<?xml version="1.0" encoding="utf-8"?>
<!-- Generator: Adobe Illustrator 22.1.0, SVG Export Plug-In . SVG Version: 6.00 Build 0)  -->
<svg version="1.1" id="Layer_1" xmlns="http://www.w3.org/2000/svg" xmlns:xlink="http://www.w3.org/1999/xlink" x="0px" y="0px"
	 viewBox="0 0 456.8 383.4" style="enable-background:new 0 0 456.8 383.4;" xml:space="preserve">
<style type="text/css">
	.st0{fill-rule:evenodd;clip-rule:evenodd;fill:#0D6C38;}
</style>
<g>
	<g>
		<g>
			<path class="st0" d="M251.8,71.9c-25.7,7.3-50.7,7-66.3,3.1c-6.3-1.6-32.2-10.7-50.5-22c-3.1-1.9-6.3-3.9-9.6-5.5
				c-1.6-0.8-50.7-17.1-42.9-33.1c0.6-1.2,1.3-2.9,2.7-3.3c3.2-0.9,6.3,1.6,9.3,2.1c3.6,0.6,6.9,2.1,10.6,2.6
				c3.8,0.5,7.6,0.5,11.4,0.8c36.3,2.3,74.1-10.3,78.2-11.2c58-12.2,90,0,90,0c0.1,0,10.4,2.6,10.5,2.7c3.4,1.4,6.9,2.7,10.4,3.9
				c5.9,2,17,7.1,35.5,22.7c0,0,6.3,6.3,15.2,13.9c2.6,2.2,4.3,5.1,6.6,7.5c16.4,16.9,22.6,25.5,29,29c7.4,4,15,2.2,21.3,1.4
				c10.6-1.3,17.4-25.4,22.9-32.8c0.9-1.2,1.9-2.3,3-3.3c11.1-9.6,22.7,29.2,15.1,32.6c-0.8,0.4-17.1,9.6-20.1,16.3
				c-1.5,3.4-2.1,7-3.1,10.5c-7.6,27.1-0.3,27.2,1.6,42.7c1.9,15.8-3.8,30.3-3.8,30.3c16.7,47.1,14,100.7-36.8,119.6
				c-5.5,2-21.4,1.2-21.4,1.2c-0.9,0.8-26.8,38.8-70.5,68.3c-10.6,7.1-22.5,16.8-37.8,8.5c-2.5-1.3-5.6-2.9-6.1-6
				c-2.2-15.6,40.1-20.3,49.4-75.2c0.8-4.9,6.6-29.1,4.8-33c0,0-10.1-14.9-15.7-28.2c-12.8-30.4-15.9-68.4,9.7-89.2
				c3-2.4,6.1-4.8,9.1-7.2c1.3-1.1,0.8-2.6,0.6-4c-1.3-8.8-0.7-16.5-3.4-21.9c-0.8-1.6-2.2-1.8-3.8-1.5c-1.3,0.2-10,6-14,12.3
				c-1.2,1.8-2.8,7.2-8.2,13.2c-2.2,2.4-6.2,8.4-10.6,12.9c-2.5,2.5-4.5,5.5-6.9,8.1c-2.2,2.5-3.5,6-4.4,9.2c-0.2,0.7-2,12.7-2,12.7
				c0,0.6,0.1,1.3,0.3,1.9c0.4,1.6,2,2.4,3.2,3.4c3.3,2.7,13.2,13.9,13.7,14.6c34,48.8-15.1,121.4-64,144.4
				c-6.8,3.2-13.9,5.7-21.3,7.4c-1.7,0.4-3.5,0.9-5.2,1c-1.9,0.1-3.9-0.1-5.9-0.2c-58.6-4.4-66.6-93.7-22.5-150.2
				c2.2-2.8,4.5-5.5,6.8-8.2c0.5-0.6,1.1-1.2,1.4-1.9c0.3-0.8-0.4-1.1-1-0.9c-1.7,0.6-3.2,1.6-4.8,2.4c-3.1,1.4-6.5,2.2-9.5,3.9
				c0,0-3.4,0.9-29.4,14.9c-6.4,3.4-12.7,6.9-18.7,10.9c-2.9,1.9-5.8,4-8.5,6.2c-2.8,2.2-5.2,4.7-8,7c-2.7,2.2-5.4,4.4-7.9,7
				c-2.4,2.5-4.7,5.2-7.1,7.8c-2.4,2.7-4.9,5.3-7.2,8.1c-2.4,2.9-4.8,5.8-7.1,8.7c-4.7,6-9.4,12.1-14,18.2c-2.2,3-4.4,5.9-6.7,8.7
				c-2.3,2.9-4.5,5.8-6.7,8.7c-4.4,5.9-9,11.7-14.2,17.1c-2.1,2.1-4.2,4.5-6.8,6.1c-29,17.3,13.9-31.1,21.8-63.2
				c0.4-1.8,1.2-3.5,1.8-5.2c2.5-6.8,4.9-13.6,7.4-20.4c1.3-3.5,3-6.9,4.5-10.3c1.4-3.5,2.8-7,4.4-10.5c3.1-6.8,7.9-12.7,11.2-19.5
				c1.5-3.1,6.8-11.6,12.2-18.6c4.5-5.8,9.4-11,14.7-16c31.1-29.4,39.8-33.6,48.2-35.8c0.8-0.2,13.1-4.6,22.1-6.5
				c12.8-2.7,60.9-8.5,60.1-8.4c15.9-2,22.4-15.3,42.6-22.6c3.6-1.3,7.1-2.4,10.8-3.3c27.6-6.5,20.1-0.5,43-3.6
				c17.3-2.4,41.3,2.6,55.9,3.4c0.9,0,1.8,0.2,2.6,0.1c0.2,0,1.6-0.6,1.3-0.9c-1.4-1.4-2.8-2.8-4.3-4.2c-3-1.5-5.6-3.6-8.9-4.6
				C311.8,64.6,299.3,58.4,251.8,71.9z M422.6,171.9c-0.1-0.5,0.3,0-0.1-0.2c0.8-0.3,0.2,0.5,0.2,0.5
				C422.8,172.3,422.7,172,422.6,171.9C422.5,171.6,423.2,172.2,422.6,171.9z M165.5,189c-0.3,0-0.7,0.1-0.9,0.4
				c-0.2,0.3-0.1,0.7-0.3,1c-0.2,0.1-0.2-0.2,0-0.4c0.4-0.4,0.9-0.8,1.3-1.2c-0.2,0-0.4,0-0.1-0.2
				C165.5,188.8,165.5,188.9,165.5,189C164.8,189.1,165.5,188.9,165.5,189z M157.6,191c-0.6,0.2-1.3,0.2-1.4,0.9
				c-0.9-0.3-1.8,0.5-2.3,1.1c-0.3,0.3-1.7,2-0.7,1.9c1,0,1.8-0.6,2.5-1.4c0.4-0.4,0.5-0.9,0.5-1.5c0-0.6,1-1,1.5-1.3
				c-0.3,0.1-0.4,0.1-0.2-0.2C157.5,190.8,157.6,190.9,157.6,191C157,191.2,157.6,190.9,157.6,191z M115.3,214.1
				c-0.4-0.1-0.8,0-1,0.2c-0.3,0.3-0.8,0.7-0.9,1c-0.1,0.3,0,0.7,0.1,1c-0.3,0.7-0.3-0.3-0.4-0.3c0,0-0.2,0.3,0.2,0.2
				c0.3-0.5,0.7-0.9,0.5-1.5c0.6,0,1.1-0.2,1.3-0.8c0.6-0.2,1-0.5,0.9-1.1c1.2,0,3.1-1,3.4-2.3c0.2-0.8-1.1-0.7-1.4-0.4
				c-0.7,0.4-1.3,0.9-1.7,1.5c-0.2,0.3-0.2,0.6-0.2,0.9c0,0.5-0.1,0.3-0.5,0.5C115,213.2,115.2,213.7,115.3,214.1
				C114.6,213.9,115.1,213.1,115.3,214.1z M16.1,318c0.5,0,0.8-0.1,1.2-0.5c0,0,7.4-9.7,7.4-9.7c0.9-1.3,2.1-2.3,2.9-3.7
				c0.8-1.5,2-2.9,3-4.2c1-1.3,2-2.6,3.2-3.8c1.3-1.3,2.3-2.8,3.3-4.3c2.1-3,4.1-6.1,6.3-9c2.3-2.9,4.8-5.7,7.2-8.6
				c2-2.4,4-4.9,4.5-8.1c0.1-0.7,0.7-1.5,1-2.2c0.4-0.9,0.7-1.7,1.1-2.6c0.8-1.8,1.6-3.6,2.2-5.4c0.3-0.8,0.5-1.6,0.7-2.5
				c0.1-0.8,0.1-1.6,0.5-2.3c0.2-0.3,0.8-1,1.1-0.4c0.4,0.8,0.1,2.1-0.1,2.9c-0.4,1.6-1,3.3-1.5,4.9c-0.3,0.9-0.6,1.8-0.8,2.7
				c-0.1,0.4-0.2,1.7,0.6,1c1.2-1.1,2.3-2.4,3.2-3.7c0.5-0.7,1-1.3,1.5-2c0.4-0.5,1.1-1.1,1.1-1.7c0-0.6-0.2-1.1-0.3-1.7
				c0-0.8,0.3-1.7,0.5-2.4c0.4-1.7,1.1-3.4,1.7-5.1c0.6-1.7,1.2-3.4,1.9-5.2c0.2-0.7,1.2-3.8,2.2-2.7c0.3,0.4,0.4,0.9,0.3,1.4
				c-0.1,0.3-0.2,0.5-0.4,0.7c-0.4,0.3-0.3,0.4-0.3,0.9c0,0.3-0.4,1.5,0.2,1.2c0.2-0.1-0.1-1.7-0.2-1.9c0.8-0.8,1.6-1.6,2.2-2.6
				c0.6-0.9,0.9-2,1.3-3c0.1-0.3,1.2-3.8,2-2.4c0.7,1.2-0.5,3.5-0.9,4.7c-0.6,1.7-1.4,3.2-2,4.9c-0.3,0.8-0.5,1.7-0.8,2.5
				c-0.3,0.9-0.2,1.3,0.1,2.2c0.7-0.4,1.3-0.7,1.7-1.4c0.5-0.7,0.7-1.6,1-2.3c0.7-1.8,1.5-3.6,2.3-5.3c1.5-3.4,2.8-6.9,4.1-10.3
				c0.1-0.3,1.4-3.9,2.1-2.3c0.6,1.4-0.8,3.8-1.3,5c-0.7,1.7-1.3,3.4-2,5.1c-0.3,0.9-0.7,1.7-1,2.6c-0.2,0.5-1.2,2.2-0.5,2.5
				c1.1,0.4,2.2-2.9,2.6-3.5c0.8-1.7,1.7-3.4,2.4-5.1c1.5-3.3,2.5-6.7,3.6-10.1c0.2-0.5,0.5-1.6,1-1.9c0.7-0.3,0.7,1.3,0.6,1.6
				c-0.2,1.9-1,3.7-1.5,5.5c-0.2,0.7,0,1,0.7,0.7c0.7-0.2,0.9-1.2,1.2-1.7c0.8-1.7,1.7-3.4,2.5-5.2c0.8-1.7,1.5-3.5,2.2-5.3
				c0.4-1,0.7-2,1-2.9c0.1-0.3,0.9-1.9,1.3-1.3c0.5,0.7,0,1.9-0.2,2.6c-0.3,1-0.7,2-1.1,3.1c-0.3,0.9-0.7,1.9-1,2.8
				c-0.1,0.4-0.2,0.7-0.2,1.1c0,0.1,0,1.2-0.3,1c0.4,0.2-0.1-0.4,0.5-0.3c0.5,0,0.8-0.2,1.2-0.5c0.7-0.6,1.4-1.3,2-2
				c1.2-1.5,2-3.2,2.7-5c0.9-2.1,1.8-4.2,2.8-6.3c0.3-0.6,0.5-1.1,0.8-1.7c0.2-0.3,0.4-1.2,0.7-1.3c0.5-0.3,0.7,0.1,1.1,0
				c-0.3,0.1-0.6,2.5-0.7,2.9c-0.4,1.3-0.9,2.5-1.5,3.8c-1,2.3-2.3,4.6-3,7c-0.2,0.7-0.4,2,0.8,1.4c1-0.5,1.6-1.7,2.2-2.6
				c1.4-2.1,2.7-4.2,3.9-6.4c1.2-2.3,2.3-4.6,3.4-6.9c0.5-1.1,1-2.2,1.6-3.3c0.5-1.1,1-2.6,1.7-3.6c0.8-1,1.2-0.3,1.1,0.7
				c-0.1,1.3-0.8,2.6-1.3,3.8c-0.5,1.1-1,2.3-1.5,3.4c-0.5,1.1-1.1,2.2-1.2,3.5c1.5-0.3,2.2-0.5,2.5,1.2c0.1,0.9-2,0.3-2,1.3
				c0,0.9-1,1.6-1.5,2.3c-1.3,1.5-2.6,3-3.9,4.5c-1,1.2-3.4,3-2.2,4.6c-1.1,0-2.2,0.1-3.3,0.1c0.2,0,0.3,0.1,0.2,0.3
				c-0.1,0.1-0.4-0.2-0.4-0.1c0,0.1,0.7-0.4,0.9-0.4c0.7-0.1,1.5,0.1,2.2,0.2c0.6,0,0.9-1,1.3-1.5c0.5-0.6,1.2-1.2,1.8-1.7
				c1.2-1.1,2.2-2.3,3.2-3.6c0.7-0.9,1.8-2.1,1.8-3.3c0-0.6-0.5-1.5,0.2-1.8c0.9-0.3,1.5-0.5,2-1.3c1-1.6,2-3.1,2.9-4.7
				c0.9-1.5,1.7-3,2.5-4.5c0.7-1.3,1.1-3.3,2.3-4.2c0.5,1.4-0.2,3.1-0.8,4.5c-0.6,1.6-1.5,3.2-2.2,4.8c-0.3,0.7,0.2,1,0.8,0.6
				c0.6-0.4,1.2-0.9,1.8-1.4c1.3-1,2.5-2.1,3.5-3.5c2-2.6,3.7-6,4.9-9.1c0.3-0.8,0.6-1.6,0.8-2.4c0.1-0.5,1.1-0.6,1,0
				c-0.1,1.8-0.7,3.5-1.4,5.1c-1.4,3.2-3.1,6.4-5.1,9.3c-0.8,1.1-2.2,2.4-2.6,3.8c-0.2,0.8-0.1,0.9,0.6,0.5c0.8-0.5,1.7-1,2.5-1.5
				c2.6-1.7,4.7-4,6-6.8c0.8-1.7,1.5-3.3,2.3-5c0.1-0.3,0.7-2.1,1.2-1.9c0.7,0.3,0.1,1.5-0.1,2c-0.1,0.4-0.5,1,0.3,1
				c-0.2-0.1-0.4-0.2-0.6-0.3c1.7,0.6,2.5-1,3.3-2.2c1-1.6,2-3.1,3.1-4.7c1-1.5,2.1-3.1,3.1-4.7c0.5-0.7,0.9-1.5,1.3-2.2
				c0.4-0.7,0.7-1.7,1.4-2.2c1.1,2.9-2.1,6.3-3.5,8.6c-2.1,3.3-4.3,6.5-6.2,9.8c-0.3,0.5,0.3,1.2,0.8,0.8c0.7-0.6,1.4-1.3,2-1.9
				c1.2-1.2,2.4-2.4,3.4-3.8c1-1.4,1.7-3,2.7-4.4c0.8-1.1,2.1-3.1,3.7-2.5c-0.2-0.3-0.6,0.9-0.7,1.1c-0.4,0.8-0.8,1.6-1.1,2.4
				c-0.5,1.3-1.1,2.5-2,3.6c-2.1,2.5-4.3,5-6.4,7.6c-1.5,1.8,0.7,1.3,1.8,0.8c1.2-0.5,2.5-1.3,3.3-2.3c0.9-1.1,1.3-2.6,2-3.8
				c0.7-1.3,1.6-2.6,2.5-3.8c1.8-2.5,3.8-4.8,5.5-7.3c0.9-1.2,1.7-2.5,2.5-3.8c0.2-0.3,1.6-3.4,2-3.1c1.7,1.5-1.5,6.1-2.4,7.5
				c-0.8,1.3-1.9,2.5-2.8,3.7c-0.5,0.6-1.2,1.4-1.3,2.2c-0.1,0.4,0,0.8,0.1,1.2c-0.2,0.2-0.3,0.2-0.2-0.1c0.2,0.5,0.5-0.2,0.7-0.4
				c0.3-0.3,0.7-0.7,1-1c0.7-0.7,1.3-1.3,2-2c0.6-0.6,1.1-1.2,1.7-1.7c0.7-0.5,1.4-0.6,2.1-0.9c1.4-0.5,2.1-2.5,2.8-3.7
				c1-1.6,2-3.3,2.9-4.9c0.8-1.4,1.6-2.9,1.9-4.5c0.3-1.5-0.1-2.8,0.9-4.2c0.7-1,2.2-2,2,0.1c-0.1,0.7-0.4,1.4-0.7,2
				c-0.4,0.9-0.6,1.7-0.9,2.6c-1,3.6-2.6,6.8-4.6,10c-0.3,0.6-2.7,3.7-2.1,4.2c0.9,0.7,2.9-2.3,3.9-2.5c0.6-0.1,1.1,0,1.6-0.3
				c0.6-0.4,0.8-1,1.1-1.6c0.9-1.7,1.8-3.3,2.6-5c0.7-1.5,1.3-3.1,2.2-4.5c0.5-0.8,0.8,0.7,0.8,0.9c0.1,0.9-0.5,1.8-0.8,2.6
				c-0.5,1.4-1.1,2.8-1.7,4.2c-0.3,0.7-2.3,3.2-1.4,3.9c0.9,0.7,2.1-1.4,2.6-1.9c1.2-1.2,2-2.3,2.8-3.8c1.5-2.9,2.7-6,4.7-8.6
				c0.3-0.3,1-0.6,1.2-0.1c0.2,0.5-0.4,1.6-0.6,2c-0.6,1.4-1.4,2.7-2.1,4c-0.6,1.2-0.8,2.6-1.5,3.8c-0.4,0.6-0.8,1.2-1,1.9
				c-0.1,0.2-0.4,1.6,0.4,1.3c2.8-1.4,4.5-5,5.9-7.8c1.6-3.2,3.1-6.3,4.7-9.5c0.2-0.5,0.9-0.9,1.3-0.4c0.4,0.4,0,1.5-0.2,2
				c-0.5,1.3-1.5,3-0.9,4.4c-0.1,0-0.2,0-0.3,0c0.3,0.3,1.1-0.9,1.4-1.2c0.7-0.7,1.3-1.5,2-2.2c1.3-1.4,2.2-3.3,3.1-4.9
				c1-1.7,1.9-3.5,2.6-5.3c0.4-0.9,0.8-1.8,1.3-2.7c0.1-0.2,0.3-0.6,0.7-0.5c0.5,0.2,0.2,0.9,0.1,1.2c-0.9,4-2.9,7.4-4.7,11.1
				c-1,1.9-1.9,3.7-2.9,5.6c-0.8,1.6-2.3,3.5-1.1,5.2c-0.2,0-0.3-0.1-0.2-0.2c0.1-0.1,0.2,0.2,0.4,0.2c0,0-0.2-0.3-0.3,0.1
				c2.7-4.5,5.5-8.9,7.9-13.6c2.3-4.4,4.8-8.7,6.6-13.4c0.1-0.4,0.6-2.5,1.4-1.6c0.5,0.6-0.3,2.7-0.5,3.4c-0.9,2.6-2.3,5-3.5,7.4
				c-1.2,2.4-2.4,4.7-3.6,7.1c-0.6,1.3-1.3,2.5-1.9,3.8c-0.2,0.4-0.4,0.8-0.6,1.3c-0.1,0.4,0,1-0.2,1c3.3-0.2,4.5-4.1,5.8-6.6
				c1.6-3.2,3.2-6.5,4.5-9.8c0.6-1.6,1.2-3.2,1.7-4.9c0.1-0.4,0.3-1.9,0.8-2.1c0.8-0.4,1.1,0.2,1.1,0.9c0,0.8-0.4,1.7-0.5,2.4
				c-0.2,0.8-0.5,1.7-0.7,2.5c-0.6,1.8-1.2,3.6-2,5.3c-0.3,0.6-2.3,3.8-1.5,4.3c1,0.7,2.5-2.9,2.8-3.5c1.3-3.2,2.7-6.5,4-9.8
				c0.6-1.6,1.2-3.2,1.6-4.8c0.2-0.7,0.2-1.6,0.7-2.2c0.5-0.7,1.1-0.1,1.8-0.4c1.1-0.4,1.1-2.2,1.3-3.2c0.1-0.9,0.2-1.8,0.2-2.7
				c0-0.4,0.1-0.6,0.2-0.9c0.5,0.3,0.7,0.3,1,0.8c0.5,1.2,0.3,2.8,1.1,3.9c-0.1,0-0.2-0.1-0.3-0.1c0.1,0.1,0.2,0.1,0.2,0.2
				c1.5-3.4,2.6-6.9,3.8-10.4c0.6-1.7,1.2-3.3,1.7-5c0.4-1.5,0.4-3.3,1.2-4.7c0.7-1.3,2-1.6,3.2-2.4c1.5-1,3-2.1,4.5-3
				c9.7-5.6,8.3-4.2,23.7-9.3c14.8-4.8,13.4-8.7,29.7-12.3c0.9-0.2,1.7-0.4,2.6-0.6c0.8-0.2,1.9-0.6,2.7-0.2c3.2,1.6,0.8,7,0.6,9.6
				c-0.8,7.2-5.3,13.1-9.7,18.6c-4.7,5.9-9.8,11.5-14.9,17.2c-2.4,2.7-4.8,5.5-6.9,8.5c-2,3-3.4,6.1-4.6,9.5
				c-4.2,12.2-9.5,20.1-9.4,19.2c-0.2,1.3,3.3,1.8,4.1,2.1c1.1,0.4,3.7,1.8,4.6,0.5c2.2-3.2-0.5-14.6,12.4-29c2.5-2.8,5-5.5,7.5-8.3
				c1.2-1.3,2.4-2.7,3.5-4c0.6-0.7,1.1-1.4,1.7-2.1c1.3-1.6,2.8-1.7,6.9-10.9c2.6-5.8,6.5-10.5,13-14.7c1.4-0.9,2.7-1.9,4-3
				c1.1-1.1,2.8-0.6,3.9,0.2c6.2,4.3,6.5,16.8,7.5,24.7c0.2,1.8,0.3,3.6,0.8,5.3c0.5,1.5,1.6,2.4,2.2,3.8c0.3,0.7,0.2,1.5,0.5,2.2
				c0.3,0.9,0.9,1.7,1.5,2.5c0.9,1.4,2,2.6,2.8,4c0.8,1.5,1.2,3.1,1.5,4.8c0.3,1.7,0.5,3.4,0.6,5.2c0.1,1.4-0.9,4,1.2,3.8
				c1.6-0.1,2.8-0.7,4.3-1.3c1.6-0.7,3.2-1.4,4.7-2.3c1.1-0.7,2.9-1.7,3.4-2.9c0.6-1.6-1.5-1.7-2.4-2c-2.9-1.1-5.1-3.4-7.3-5.5
				c-1.1-1.1-2.2-2.2-3.1-3.5c-0.8-1.2-1.8-2.3-2.7-3.5c-1.6-2.2-3.2-4.6-4.4-7.1c-0.8-1.6-1.1-2.7-1.1-4.4c0-2,0-4,0-6
				c0.2-16.5,11.7-25.8,24.8-27.2c3.7-0.4,7.4-0.3,11.1,0.3c3.5,0.5,6.8,2,10.2,3.2c15.6,5.2,21.9,4.5,32.7,1.4
				c1.8-0.5,3.5-1.1,5.2-1.9c5.9-2.6,3.8-1.8,15.3-5.6c1.3-0.4,3.4-1.5,4.7-0.6c2.3,1.7-2.6,14.1-9,20c-1.3,1.2-2.4,2.6-3.7,3.8
				c-0.7,0.6-3.3,1.9-3.1,2.9c0.2,1.5,3.1-1.2,3.7-0.1c0.5,1-0.9,1.8-1.6,2c-1.2,0.5-2.3,1-3.2,1.9c-2.9,1.3-5.7,2.7-8.5,4.1
				c0.1-0.1,0.2-0.2,0.3,0c0,0.2-0.3,0.1-0.4,0.2c0-0.1,0.3,0,0.1-0.4c0.7,0,1.4,0.2,2.1,0c0.9-0.2,1.8-0.8,2.6-1.2
				c1.1-0.6,3.6-1.3,3.6-2.9c1,0.5,3,1.2,1.3,2.3c-1.5,1-3.1,1.9-4.7,2.7c-3.1,1.5-6.5,3-9.2,5.2c-0.5,0.4-1.1,0.8-1,1.4
				c0.1,0.6,0.6,1,1.2,1c0.7,0,1.5-0.7,2.1-1c0.9-0.5,1.8-1.1,2.6-1.6c1.5-0.9,3-1.7,4.7-2.3c0.6-0.2,1.1-0.5,1.8-0.2
				c0.8,0.3-0.1,1.2-0.5,1.4c-1.5,0.9-3,1.8-4.6,2.7c-0.8,0.5-3.9,2-3.4,3.3c0.6,1.3,2.7-0.2,3.4-0.7c1.2-0.7,3.1-2,4.5-1.5
				c1.4,0.5-1.4,2-1.7,2.2c-1,0.6-3.8,2-2.8,3.5c0.9,1.3,2.4-0.5,3.4-0.8c0.7-0.3,1.4-0.5,2.2-0.6c0.8-0.1,1.3,0.6,0.7,1.2
				c-0.7,0.8-3.2,1.8-2.7,3.1c0.5,1.4,2.7-0.3,2.7,1.7c0,0.5-0.1,1.6,0.6,1.8c0.6,0.2,1.3-0.6,1.5-1.1c0.8-1.6,1.6-3.2,2.2-4.9
				c1.2-3.4,1.4-6.9,2.2-10.3c0.4-1.7,0.9-3.3,1.3-5c0.4-1.8,0.6-3.5,1.4-5.2c1.6-3.5,3-7,4.4-10.6c0.4-1,1.4-2.8,2.6-1.5
				c1.2,1.4-0.1,2.9,0.2,4.5c0.1,0.4,0.7,1.4,1.2,1c0.5-0.4,0.4-1.7,0.5-2.3c0.3-2,0.7-3.9,1.2-5.9c2.3-9.7,2.6-12.7,9.3-19
				c2.8-2.7,12.1-8,13-8.4c1.3-0.6,3.8-1,2.5-2.9c-0.9-1.3-2.2-2.2-3.2-3.3c-1.1-1.2-1.9-2.6-2.4-4.2c-1.1-3.1-2.4-16.1-2.2-15.3
				c-0.1-0.5-0.2-1.7-0.8-2c-0.7-0.4-1.3,0.3-1.8,0.7c-2.7,2.3-9.9,20.8-11,22.2c-0.6,0.8-7.4,9-11.9,11.1
				c-3.1,1.5-6.7,2.2-10.2,2.4c-19.8,0.8-23.6-9.1-28.1-12c-1-0.7-1.7,1.7-2.7,0.7c-1.1-1.2-2.1-2.7-3.6-3.2
				c-0.6-0.2-1.4-0.1-1.8-0.5c-0.5-0.4-0.6-1.2-0.9-1.7c-0.8-1.7-1.8-3.2-2.9-4.6c-0.4-0.5-0.9-1.5-1.5-1.7
				c-0.6-0.1-0.9,0.7-1.2,1.1c-0.6,1-1.3,0.7-2.2,0.3c-0.7-0.3-0.9-0.5-1.6-0.2c-0.6,0.3-1.3,0.3-2,0c-1.6-0.7-3-1.8-4.4-2.7
				c-0.7-0.5-1.3-0.8-2.1-1.1c-0.5-0.2-1-0.6-1.4-1c-1-1-1.7-2-2.9-2.8c-3-2.1-6.2-4-9.3-6c-3-1.9-6-3.8-9.2-5.4
				c-3.2-1.7-6.5-2.8-9.8-4.3c-3.4-1.5-6.7-2.9-10.2-4c-3.6-1.2-7.3-1.9-11-2.6c-7.4-1.5-14.8-3-22.4-3.1
				c-7.6-0.1-15.5-0.2-23.1,0.7c-3.9,0.5-7.7,0.7-11.6,1.1c-3.8,0.4-7.6,0.9-11.4,1.3c-7.8,0.7-15.6,1-23.4,1.2
				c-7.8,0.2-15.6-0.1-23.4-0.3c-3.9-0.1-7.7-0.3-11.6-0.6c-3.8-0.3-7.7-0.3-11.5-0.7c-7.4-0.7-14.9-1.3-22.3-2.4
				c-7.5-1.1-15.1-2.1-22.5-3.6c-3.6-0.7-7.3-1.6-10.8-2.9c-1.7-0.6-3.4-1.3-5.1-1.8c-4-1.3-6.4-0.7,5.5,5.5
				c2.9,1.5,11.6,5.8,14.8,6c1.9,0.1,3.8-0.1,5.6-0.2c1.7-0.1,3.5-0.4,5.2-0.9c0.6-0.2,1.4-0.5,1.8,0.2c0.5,0.7-0.7,1.2-1.3,1.4
				c-1.6,0.4-3.4,0.2-4.9,0.9c-0.8,0.4-0.6,1,0.1,1.3c0.9,0.4,1.9,0.8,2.8,1.3c1.7,0.8,3,0.6,4.7,0.2c1.9-0.5,3.9-0.9,5.8-1.2
				c1.7-0.3,3.5-0.7,5.2-0.4c0.6,0.1,0.9,0.2,0.6,0.8c-0.2,0.7-1.5,0.9-2.1,1c-1.8,0.3-3.6,0.5-5.5,0.8c-0.8,0.1-1.7,0.3-2.5,0.5
				c-0.9,0.2-1.2,0.5-0.8,1.4c0.5,1.2,2.6,2.2,3.6,2.6c1.7,0.7,2.8-0.2,4.4-0.7c1.7-0.5,3.4-0.7,5.1-1.1c0.9-0.2,1.8-0.3,2.6-0.5
				c1-0.2,2-0.6,3-0.7c0.4,0,1.8-0.1,2,0.3c0.2,0.5-0.9,1.2-1.3,1.3c-1.9,0.6-3.8,1.1-5.7,1.5c-1.8,0.4-3.6,0.8-5.4,1.3
				c-0.4,0.1-0.8,0.9-0.4,1.2c0.9,0.6,1.7,1.2,2.6,1.8c0.7,0.5,1.4,1,2.2,1.4c0.5,0.2,1.5,0.8,2.1,0.7c0.5-0.2,0.7-1.1,1-1.5
				c0.6-0.6,1.4-0.9,2.1-1.2c3.5-1.4,7-2.3,10.6-3.2c0.9-0.2,1.7-0.4,2.6-0.7c0.7-0.2,1.6-0.6,2.3-0.4c0.4,0.2,1,0.9,0.5,1.3
				c-0.7,0.5-1.9,0.7-2.7,1c-3.5,1.1-7.2,1.9-10.7,3.1c-0.8,0.3-3.9,1-3.6,2.2c0.5,1.6,3.1,1,4.3,0.9c3.5-0.3,7-0.9,10.3-2
				c3.4-1.2,6.5-3,10-4.1c0.6-0.2,4-1.5,4.2-0.3c0.2,1.4-3.3,2.1-4.2,2.4c-3.5,1.3-6.8,3-10.3,4.1c-1.7,0.6-3.4,1-5.1,1.4
				c-0.3,0.1-1.6,0.3-1.6,0.8c0,0.6,1.5,0.9,2,1.1c1.5,0.7,2.7,1.3,4.4,0.8c1.7-0.6,3.4-1.4,5.1-2c3.4-1.3,6.8-2.5,10-4.2
				c3.3-1.7,6.8-3.1,10.3-4.4c0.6-0.2,1.4-0.6,1.9,0c0.5,0.7-0.2,1.1-0.7,1.5c-1.5,1.1-3.7,1.7-5.4,2.4c-3.6,1.5-7.2,2.9-10.7,4.5
				c-1.6,0.7-3.3,1.4-4.9,2.2c-0.6,0.3-1.4,0.5-1.7,1.2c-0.3,0.7,1.8,0.3,2.1,0.2c1.6-0.2,3.5-0.3,5-0.8c1.5-0.6,2.9-1.7,4.4-2.4
				c0.8-0.4,1.7-0.8,2.5-1.2c0.6-0.3,1.6-1,2.3-1c1.5,0.1-1.7,2.7,0.5,2.5c0.9-0.1,1.7-0.2,2.6-0.3c0.8-0.1,1.3-0.1,1.2,0.9
				c-0.1,0.7-0.9,0.9-1.5,1.2c-0.9,0.4-1.8,0.8-2.7,1.2c-1.6,0.7-3.2,1.2-4.9,1.6c-1.2,0.3-4,0.6-4.5,1.9c-0.5,1.3,2.9,1.1,3.5,1
				c1.7-0.3,3.2-1.5,4.6-2.4c3.1-1.8,6.3-3.3,9.4-5.1c3.1-1.8,6.1-3.8,8.9-5.9c0.7-0.5,1.3-1,2-1.5c0.4-0.3,1.4-1.2,1.9-1
				c1.7,0.7-1.4,2.9-1.8,3.2c-3,2.2-6,4.2-9.2,6c-1.5,0.9-3.1,1.8-4.6,2.6c-0.8,0.4-1.6,0.8-2.3,1.2c-0.5,0.3-2,0.7-2,1.4
				c-0.1,1.1,3.5,0.1,4.1-0.1c1.7-0.4,3.5-0.8,5.2-1.3c3.4-1,6-3.1,8.9-4.9c3-1.9,6.2-3.6,9-5.7c0.4-0.3,1.1,0.1,1,0.6
				c-0.1,0.7-0.7,1.1-1.2,1.5c-1.3,1.1-2.8,1.9-4.3,2.8c-0.6,0.4-1.7,0.8-2,1.4c-0.4,0.6,0.7,1.2,1.1,1.4c1.6,0.8,3.4-1.1,4.7-2
				c0.7-0.5,1.4-1,2.1-1.3c0.4-0.1,1.6-0.6,1.9-0.3c0.8,0.9-2.3,2.6-2.8,3c-0.4,0.3-1.7,0.9-1.7,1.4c0,0.6,0.9,0.6,1.3,0.5
				c0.6-0.2,1-0.6,1.6-0.8c0.7-0.3,1.6-0.2,2.4-0.5c1.4-0.5,2.6-1.3,3.8-2.1c1.4-1,3-2.4,4.6-3.1c0.4-0.1,1.3-0.4,1.4,0.2
				c0.1,0.5-1.2,1.6-1.6,1.8c-1.6,1.2-3.2,2.3-4.9,3.5c-0.8,0.5-9.6,6.5-9.3,6.8c0,0,0-0.1,0-0.1c1.3,0.7,2.4,0.1,3.6-0.4
				c1.4-0.6,2.7-1.2,4.1-1.8c2.5-1,4.9-1.9,7.1-3.5c1.1-0.8,2.1-1.6,3.1-2.4c0.5-0.4,2.6-2.5,3-1.3c0.3,0.7-1.8,2.6-2.3,3.1
				c-0.8,1.1-0.2,2,0.4,3c-0.7,0-1.4-0.1-2,0c-0.4,0.1-0.7,0.2-1,0.5c-0.5,0-1,0-1.6,0.1c-1.9,0.4-3.6,1.7-5.2,2.6
				c-1.7,1-3.3,2-4.9,3.1c-0.3,0.2-0.7,0.4-0.9,0.7c-0.1,0.2-0.2,0.4-0.3,0.6c-0.2-0.1-0.4-0.1-0.5,0c-0.6,0.5,0.7,0.8,0.4-0.2
				c2.4,0.4,5-1.5,7-2.6c1.2-0.7,2.4-1.3,3.6-2c0.6-0.3,1.2-0.7,1.7-1.2c0.6-0.6,0.5-0.7,0.5-1.4c0.8-0.1,2.9,0,3.2-0.7
				c0.3-0.9,1.2-1.2,1.9-1.8c2-1.4,3.9-2.9,5.8-4.4c1.9-1.5,3.8-3.1,5.6-4.7c1.9-1.7,3.5-3.7,5.4-5.3c0.5-0.4,1.4-0.9,1.8,0
				c0.3,0.8-1.2,2.2-1.8,2.7c-1.9,1.8-3.9,3.6-5.9,5.3c-1.9,1.6-3.9,3.1-5.9,4.7c-1,0.8-2.1,1.6-3.1,2.4c-0.8,0.6-2,1.2-1.5,2.4
				c-0.1-0.2-0.2-0.2-0.4-0.2c-0.1,0.1,0.2,0.3,0.1,0.4c-0.1,0-0.1-0.1-0.1-0.1c0-0.2,0.7-0.3,0.7-0.4c0.7-0.3,1.4-0.5,2.1-0.8
				c0.7-0.3,1.4-0.5,2.1-0.8c0.8-0.3,1.4,0.1,2.2,0.2c1.4,0.1,2.5-1.3,3.4-2c1.3-1.1,2.7-2.2,4-3.3c2.6-2.1,5.1-4.2,7.7-6.3
				c1.2-1,2.4-2,3.7-3c0.6-0.4,2.8-2.8,3.2-1.2c0.3,1.2-1.7,2.2-2.4,2.8c-1.3,1.1-2.5,2.2-3.8,3.2c-2.4,2.1-4.9,4.1-7.3,6.1
				c-2.4,2-4.9,3.8-7.5,5.6c-2.1,1.4-4.7,3.8-7.4,3.8c0.6-0.8,1.6-1.8,1-2.9c0.5,0.4,1.1,0.5,1.7,0.3c0.3-0.1,1-0.4,0.9-0.8
				c0,0.6-0.9,0.2-1.4,0.3c-0.9,0.1-1.6,0.5-2.4,0.9c-1.7,0.9-3.4,1.6-5.2,2.4c-0.4,0.1-4.2,1.8-3.2,2.4c1.2,0.7,3.5-0.1,4.5-0.8
				c0.7-0.5,1.3-1,2.1-1.4c0.8-0.4,1.3-0.4,2.2-0.5c0.1,0.5-0.1,1.3,0.3,1.6c0.7,0.4,2,0.2,2.8,0c3.5-0.6,6.9-2.2,10.3-3.4
				c1.3-0.5,3.3-0.7,4.3-1.7c0.4-0.4,0.7-0.9,1.1-1.3c0.6-0.6,1.4-1,2.1-1.4c3.2-1.9,6.4-3.8,9.5-5.8c1.4-0.9,2.8-1.9,4.2-3
				c1.5-1.1,2.7-2.5,4.2-3.5c0.5-0.3,1.2-0.9,1.8-0.9c0.8,0,0.5,0.9,0.1,1.2c-1.3,1.3-2.6,2.5-4,3.7c-2.8,2.2-5.9,3.9-8.7,6.1
				c-0.9,0.7-1.2,3,0.2,3.1c1.9,0.1,3.7-0.7,5.4-1.3c1.7-0.5,3.4-1.1,5.1-1.6c1.6-0.4,3.1,0.2,4.7-0.4c1.3-0.5,2.3-1.6,3.5-2.2
				c1.6-0.8,3.2-1.7,4.6-2.7c3-2,5.8-4.3,8.7-6.4c0.6-0.4,3.2-3,3.4-1.2c0.2,1.4-2.4,2.7-3.4,3.5c-2.8,2.2-5.6,4.4-8.7,6.2
				c-0.5,0.3-1.2,0.7-1.3,1.3c-0.2,0.8,0.9,0.6,1.4,0.7c1.8,0.1,3.6,0.1,5.4-0.5c1.3-0.5,1.4-1.8,2.6-2.5c1.7-1.1,3.4-2.1,5.1-3.2
				c1.6-1,3.1-2,4.7-2.9c0.5-0.3,1.4-0.9,2.1-0.6c0.9,0.4,0.4,1.2-0.2,1.7c-2.6,2.4-6.4,3.5-9.1,5.8c-0.2,0.2-1.4,1.2-0.7,1.2
				c0.9,0.1,1.8,0.2,2.6,0.3c1.9,0.2,3.8,0,5.7,0.1c1.2,0.1,3,0.7,4.2,0.1c1.2-0.6,1-2.3,2.4-2.9c1.6-0.7,3.2-1.3,4.8-1.8
				c0.8-0.3,1.5-0.4,2.4-0.3c1.1,0.1,0.4,0.9-0.2,1.2c-1.4,0.8-3,1-4.4,1.6c-0.7,0.3-1.3,0.7-1.7,1.2c-0.3,0.4-0.5,1.3,0.1,1.5
				c1.7,0.5,3.4,0.9,5.2,1.2c1.7,0.3,3.4,1.3,5.2,0.9c1.7-0.4,3.2-1.4,4.8-2c0.5-0.2,1.7-0.5,2.2-0.2c1,0.6-0.4,1.5-0.8,1.8
				c-0.5,0.3-1.2,0.8-0.6,1.5c0.5,0.5,1.4,0.7,2,0.8c1.8,0.4,3.1-0.6,4.8-1.1c0.2-0.1,1.8-0.7,2-0.3c0.2,0.7,0,1-0.2,1.7
				c-0.6,1.4,0.6,1.8,1.8,2.1c3.6,0.8,7.1,2.2,10.5,3.6c3.5,1.5,7,2.7,10.6,3.7c3.4,0.9,6.8,1.6,9.9,3.3c3.1,1.7,6.3,3.5,8.8,5.9
				c1,1,2.4,2.2,2.9,3.5c0.6,1.5-0.1,2.9-1.2,3.9c-1.3,1-2.7,1.3-4.3,1.4c-2,0.1-4.1,0.1-6.1-0.1c-3.7-0.4-7.4-0.9-11.2-1.2
				c-3.9-0.4-7.6-1.2-11.4-1.9c-8.7-1.5-25.6-0.9-34.5-0.4c-15.3,0.9-42.3-2.6-63.7,14.4c-5.8,4.6-12.1,8.5-18.6,11.9
				c-3.1,1.7-6.4,3.5-10,3.8c-3.7,0.4-7.6,0.1-11.4,0.1c-23.8,0.1-37.6,4.6-39.5,5c-37.3,7.3-41,10.8-62.9,30.2
				c-5.5,4.9-11.2,9.6-16.6,14.6c-5.3,5-10.2,10.4-14.5,16.3c-2.1,2.8-3.7,6-5.8,8.8c-4.8,6.7-3.3,6-5.2,9
				c-4,6.4-8.1,12.8-11.2,19.7c-3.1,6.9-6.4,13.6-8.9,20.7c-1.3,3.6-2.5,7.2-3.6,10.8c-1.1,3.5-2.6,6.8-3.7,10.3
				c-2.3,7.2-4.7,14.5-7.4,21.6c-0.8,2.2-1.7,4.4-2.7,6.5c-0.9,1.9-3,4.5-1.9,6.6c-0.2-0.2-0.3-0.3-0.5-0.5c0.1,0.2,0.3,0.3,0.4,0.5
				c1.2-3.1,4-5.3,5.9-8c2-2.9,4.4-5.6,6.1-8.7c1.7-3.1,3.2-6.3,4.9-9.5c1.7-3.1,2.8-6.4,4.5-9.5c1.8-3.2,3.1-6.6,4.6-10
				c1.5-3.4,3.6-6.5,5.6-9.7c1-1.6,2-3.1,3-4.7c0.4-0.6,2.7-3.8,1.4-4.3c-0.5-0.2-1.5,0.6-2,0.8c-0.8,0.4-1.6,0.8-2.4,1.2
				c-1.8,0.9-3.6,1.9-5.5,2.8c-0.3,0.1-2,0.9-1.5-0.2c0.3-0.6,1.2-1.2,1.7-1.5c1.5-1.1,3.3-1.9,5-2.7c1.6-0.8,3.3-1.7,4.9-2.5
				c1.5-0.8,3.1-1.5,4.3-2.8c0.5-0.5,2.2-2.6,1.3-3.2c-0.5-0.3-1.6,0.3-2.1,0.5c-1,0.4-2,0.8-3,1.3c-1.1,0.5-3.3,1.9-4.5,1.3
				c-1.6-0.8,2.4-2.2,2.9-2.4c1.7-0.7,3.4-1.5,5.1-2.2c1.6-0.7,3.4-1.3,4.9-2.3c0.6-0.4,2.5-2.6,0.6-2.2c-1.8,0.3-3.5,0.7-5.2,1.4
				c-1.4,0.6-2.8,1.5-4.4,1.4c-1-0.1,0.1-1,0.3-1.2c0.8-0.5,1.6-0.8,2.4-1.1c3.4-1.2,6.6-2.3,9.8-4c1-0.5,1.5-1,1.7-2.1
				c0.5,0.1,0.9,0.4,0.9-0.4c-1.4,0.9-3.2,1.3-4.7,2c-0.3,0.1-3.8,2-3.7,0.8c0.1-1.5,2.5-1.9,3.6-2.5c1.7-0.9,3.4-1.9,5.1-2.8
				c1.5-0.8,3.1-1.3,4.5-2.3c0.6-0.4,1.3-0.8,1.6-1.5c0.4-1-0.2-1.1-1.1-0.9c-1.7,0.3-3.3,1-4.9,1.5c-1.8,0.6-3.7,1-5.5,1.3
				c-0.4,0-1.7,0.2-1.5-0.6c0.1-0.5,1.3-0.8,1.7-1c1.7-0.7,3.6-1,5.4-1.6c1.7-0.6,3.3-1.2,4.9-1.8c1.7-0.7,3.6-1.2,5.3-2
				c1.3-0.7,2.6-1.4,3.3-2.8c1-2-2.6-0.9-3.4-0.7c-1.7,0.5-3.5,1-5.3,1.3c-1.2,0.3-4.1,1.4-5.1,0.5c-1.2-1.2,2.2-1.9,2.8-2.1
				c2-0.5,3.9-1,5.9-1.5c3.4-0.8,7.1-1.2,10.2-2.9c1.4-0.7,2.5-1.7,3.7-2.8c0.2-0.2,1.2-1.2,0.7-1.6c-0.5-0.4-2,0.1-2.6,0.2
				c-3.8,0.7-7.5,1.5-11.2,2.4c-0.5,0.1-3.9,0.9-3.6-0.2c0.2-0.8,0.9-0.8,1.6-1c1-0.3,2-0.6,3.1-0.9c3.7-1,7.4-1.8,11.1-2.4
				c1.8-0.3,3.6-0.6,5.3-1.2c1.6-0.5,3.4-1.1,4.2-2.7c0.6-1.3-3.2-0.4-3.7-0.3c-2,0.5-4,0.9-6,1.4c-1.7,0.4-3.4,0.8-5.2,0.8
				c-0.9,0-1.8,0-2.6-0.2c-0.9-0.1,0.1-1.4,0.5-1.5c0.7-0.3,1.5-0.2,2.2-0.2c0.9-0.1,1.8-0.1,2.7-0.3c1.9-0.2,3.8-0.6,5.7-1
				c3.6-0.8,7.2-1.9,10.9-2.5c1.5-0.2,2.9-0.6,4.2-1.3c0.6-0.4,1.2-0.8,1.7-1.3c0.7-0.7,0.1-1.3-0.7-1.2c-3.7,0.6-7.5,1.3-11.2,2.1
				c-1.8,0.4-3.5,0.8-5.3,1.1c-1.6,0.3-3.6,0.7-5.2,0.1c-0.6-0.2,0.1-1.1,0.3-1.3c0.6-0.4,1.4-0.4,2.1-0.5c2-0.3,4-0.6,5.9-1
				c0.9-0.2,1.8-0.4,2.7-0.6c0.5-0.1,2.1-0.2,2.4-0.7c0.4-0.7-1.5-0.5-1.7-0.5c-1.1,0-2.1-0.1-3.2-0.1c-0.4,0-1.9,0.2-1.9-0.5
				c0.1-0.7,0.7-1,1.3-1.2c1.7-0.5,3.8-0.4,5.6-0.6c6.3-0.7,10.3-1.7,16.9-2.4c1.8-0.2,3.7-0.2,5.4-0.9c0.7-0.3,4-1.6,3.4-2.5
				c-0.4-0.5-1.7-0.2-2.3-0.2c-1.1,0.1-2.1,0.1-3.2,0.2c-8.7,0.7-10.4,1.7-14.1,1.9c-0.7,0-1.9,0.3-2.6,0c-1.8-0.7,1.2-1.5,1.8-1.6
				c3.7-0.4,14.6-1.9,16.5-2.1c0.9-0.1,1.7-0.2,2.6-0.5c0.8-0.2,1.2-0.4,0.3-1.1c-1-0.7-12.9-0.2-12.2-1.6c0.5-0.9,1.1-0.7,2-0.7
				c8.9-0.3,11.1,0.7,17.6,0.8c1.8,0,3.6,0,5.5-0.1c0.7,0,1.4-0.3,2-0.7c0.3-0.2,1.2-1,0.4-1.2c-1.8-0.4-3.6-0.9-5.4-1
				c-5.8-0.4-11.6-1.3-17.5-1.3c-0.6,0-1.3-0.1-1.6-0.7c-0.3-0.4-0.2-1.1,0.4-1.1c8.2-0.4,13.7,1,22.8,2c1.9,0.2,4,0.5,5.9,0.4
				c1.6-0.1,3.3-1.1,4.8-1.6c1.9-0.7,3.7-1.4,5.6-2.1c1.6-0.6,3.5-1.1,4.9-2c0.5-0.4,1.3-0.7,0.8-1.4c-0.3-0.5-2.3-0.3-2.8-0.4
				c-1.8-0.1-3.6-0.1-5.4,0c-0.8,0-1.6,0.1-2.3,0.1c-0.9-0.1-1.7-0.6-2.6-0.8c-0.9-0.3-15-2.1-15.8-2.3c-0.5-0.1-4.6-0.7-3.7-1.6
				c0.9-0.9,3.5,0,4.6,0.2c2,0.3,3.9,0.5,5.9,0.7c3.8,0.4,7.6,0.7,11.4,1.3c1.9,0.3,3.5,0.4,5.4,0.1c0.7-0.1,1.2-0.2,1.5-0.9
				c0.3-0.7-1.6-0.7-1.9-0.7c-0.8-0.1-18.4-1.7-13.3-3.6c0.6-0.2,1.6,0.4,2.2,0.5c1,0.2,2.1,0.3,3.1,0.4c1.8,0.2,3.7,0.4,5.5,0.6
				c1.9,0.2,3.8,0.2,5.7,0.6c1.7,0.4,3.5,0.5,5.3,0.7c1.9,0.2,3.6,0.5,5.5,0.1c0.9-0.2,1.2-0.3,1.8-0.9c-0.6-0.5-1.5-0.5-2.2-0.6
				c-2-0.3-4-0.7-6-0.9c-1.9-0.3-3.7-0.5-5.6-0.7c-1.8-0.2-3.7-0.2-5.4-0.8c-0.5-0.1-3-1.1-1.8-1.8c0.7-0.4,1.7-0.1,2.4,0
				c1.1,0.1,2.1,0.3,3.2,0.4c1.4,0.2,2.8,0.3,4.1,0.5c1.5,0.2,3,0.6,4.5,0.7c1.3,0.1,2.6,0,4-0.2c0.7-0.1,1.5-0.2,2.2-0.4
				c0.5-0.1,0.8-0.6,1.1-0.9c-0.6-0.5-1.4-0.5-2.1-0.7c-1-0.2-2.1-0.4-3.1-0.5c-1.9-0.3-3.9-0.5-5.8-0.8c-0.8-0.1-4.5-0.3-4-1.9
				c0.3-1.1,4.3-0.1,5.1,0c4.1,0.5,8.2,1.1,12.2,1.9c1.9,0.4,3.9,0.6,5.9,0.8c1,0.1,2,0,2.9-0.2c0.5-0.1,1.9-0.8,2.3-0.6
				c-0.3-0.1,0-0.3-0.1-0.6c-0.1-0.7-1.3-0.8-1.8-0.8c-1.9-0.3-3.8-0.4-5.7-0.9c-3.6-0.8-7.4-0.8-11.1-1.1c-0.9-0.1-1.9-0.2-2.8-0.2
				c-0.8-0.1-1.8,0-2.5-0.4c-0.3-0.2-0.9-0.9-0.4-1.2c0.6-0.4,2-0.3,2.7-0.3c3.9,0,7.7,0.5,11.6,1c3.8,0.5,7.7,1.2,11.5,2
				c1.7,0.3,3.5,0.9,5.3,0.8c0.8,0,1.6-0.2,2.4-0.4c0.7-0.2,2-0.6,2.4-1.2c1-1.3-1.7-1.4-2.5-1.6c-1-0.2-2-0.3-3.1-0.2
				c-1.3,0.2-2.6,0.6-3.9,0.9c-0.7,0.2-1.4,0.4-2.1-0.1c-0.6-0.4-0.8-1.2-1.4-1.7c-1.2-0.9-3.1-0.7-4.6-0.8c-1.9-0.1-4-0.1-5.8-0.7
				c-0.5-0.2-1.4-0.4-1.1-1.1c0.3-0.5,1.2-0.7,1.7-0.6c1.9,0.1,3.9,0.3,5.8,0.5c3.6,0.3,7.3,1.1,11,1c0.7,0,3.5,0.2,3-1.3
				c-0.2-0.6-1.5-0.3-1.9-0.4c-1.1,0-2.1-0.1-3.2-0.2c-1.8-0.2-3.6-0.5-5.5-0.7c-0.6-0.1-4-0.7-2.2-1.8c0.6-0.4,1.7-0.2,2.4-0.2
				c0.8,0,1.7,0.1,2.5,0.3c1.9,0.4,3.7,0.7,5.6,0.6c1.7-0.1,3.5-0.4,5.1-0.9c0.4-0.1,1.3-0.7,0.7-1c-0.7-0.4-2.1-0.2-2.9-0.3
				c-1.8-0.1-3.6-0.3-5.4-0.4c-0.3,0-4.9-0.4-3.3-1.6c0.5-0.4,1.9-0.2,2.5-0.2c0.9,0,1.8,0.1,2.7,0.2c1.9,0.2,3.8,0,5.7-0.3
				c3.6-0.7,7-2,10.5-2.9c0.6-0.1,0.9,0,0.8,0.6c0,0.6-1.2,0.9-1.7,1.1c-0.5,0.2-1.7,0.5-1.9,1.1c-0.4,1.1,1.3,0.7,1.7,0.7
				c0.8,0,1.6,0.2,2.4,0.5c0.5,0.2,1.7,0.4,1.9,0.9c0.2,0.5-0.3,1.5-0.6,2c-0.4,0.8-1,1.6-1.5,2.4c-1.9,2.8-4.2,5.3-6.8,7.5
				c-2.6,2.2-5.3,4.5-8.4,6.1c-22,11.1-55.9,23.1-60.5,25.2c-19.3,9-41.9,26.7-50.3,35.6c-2.3,2.4-4.8,4.7-7,7.2
				c0,0-4.2,5.3-4.2,5.3c-0.1,0.1-0.6,1.3-4.2,5.4c-1.2,1.4-2.4,2.9-3.4,4.4c-2.2,3.1-4.2,6.3-6.2,9.5c-1,1.5-2,2.8-3,4.3
				c-1,1.5-1.7,3.1-2.6,4.7c-0.8,1.5-1.8,2.8-2.7,4.2c-1,1.6-1.9,3.3-2.7,4.9c-3,6.1-5.3,12.4-8.4,18.5c-1.5,2.9-3.1,5.6-4.5,8.6
				c-0.7,1.5-1.3,2.8-2.2,4.2c-1.1,1.5-2.2,3-3.3,4.5c-4.1,5.6-8.2,11.3-12.4,16.9c-2.8,3.7-3.2,5.3-4.2,6.1
				c-1.1,0.8-1.9,1.8-2.7,2.9c-0.4,0.7-0.6,1.1-0.6,1.9C14.6,318.2,15.4,318.1,16.1,318z M303.5,364.1c0,0.1,0,0.2-0.1,0.3
				C303.5,364.2,303.6,364.1,303.5,364.1z M357.7,56.6c-0.2-0.6-0.5-1.1-1.2-1c0.5-1.4-1.4-2.9-2.3-3.8c-1.3-1.2-2.8-2.2-4.2-3.3
				c-12.6-10.6-17.5-27.5-74-41.2c-30.4-7.3-70.3-0.4-77.6,1.5c-16.1,4.2-47.6,13.1-78.6,11.5c-3.9-0.2-7.7,0-11.5-0.4
				c-1.8-0.2-3.6-0.2-5.3-0.6c-1.8-0.4-3.7-0.8-5.5-1.1c-1.7-0.3-3.4-0.7-5-1.2c-1.4-0.4-3.2-1.6-4.7-1.5c-1.5,0.1-1.7,1.5-1.2,2.7
				c0.6,1.5,1.9,2.7,3.6,2.2c1.5-0.4,3.5,1.2,4.7,1.9c1.7,0.9,3.3,1.9,5.1,2.7c1.6,0.7,3.2,1.4,4.8,2c1.2,0.5,3.8,2,4.8,0.8
				c0.3-0.4-7.4-4.7-8.2-5c-1.1-0.5-3.4-0.9-3.9-2c-0.3-0.6-0.2-0.9,0.4-1.2c0.7-0.3,1.5,0.3,2.1,0.6c0.7,0.3,1.5,0.7,2.3,0.6
				c0.8-0.1,1.5,0.1,2.2,0.4c1.8,0.7,3.7,1.5,5.5,2.2c0.7,0.3,1.5,0.6,2.2,0.9c0.1,0.1,2,0.8,1.5-0.1c-0.2-0.4-2.7-1.7-1.9-2.3
				c0.7-0.6,3.2,1,3.9,1.3c1.4,0.7,2.7,1.5,4,2.3c2.7,1.6,5.5,3.2,8.3,4.7c1.4,0.7,2.9,1.4,4.3,2.1c0.8,0.4,1.5,0.8,2.4,0.9
				c0.2,0,0-0.4-0.2-0.5c-0.3-0.1-0.6,0.2-0.7,0.4c0.6-1.6-1.5-2.1-1.6-3.5c0,0,0,0-0.1,0.1c0.8,0.1,1.6,0,2.3,0.4
				c0.8,0.3,1.6,0.7,2.4,1.1c1.6,0.9,3.1,1.7,4.8,2.4c0.6,0.2,3.5,1.9,3.9,0.6c0.2-1-3.1-1.2-3.3-2.5c-0.1-0.6,0-1.2-0.4-1.8
				c-0.5-0.6-1.3-0.8-1.9-1.1c-1.7-0.9-3.3-1.9-4.9-2.9c-0.6-0.4-3.7-2-3.5-2.8c0.2-1.2,3.8,1.2,4.3,1.4c3.3,1.9,6.6,3.7,10,5.5
				c3.2,1.8,6.4,3.9,10,4.8c1.2,0.3,3.3,1.1,4.4,0.5c1-0.5-2.6-2.4-2.9-2.6c-3.3-1.7-6.6-3.5-9.8-5.4c-1.6-0.9-3.1-1.8-4.6-2.8
				c-0.5-0.3-1.8-0.8-2.1-1.4c-0.4-0.8,1.1-0.7,1.4-0.6c1.5,0.5,3,1.6,4.4,2.3c1.7,0.9,3.5,1.9,5.2,2.8c1.4,0.7,2.8,1.8,4.4,1.9
				c1.8,0.2,3.5,0.8,5.3,1.3c2.2,0.7,0.9-1.2-0.1-1.9c-1.4-1-3-1.7-4.4-2.6c-1.4-0.9-2.7-1.7-4.2-2.4c-0.7-0.3-1-0.5-1.5-1.2
				c-0.5-0.8,1.3-0.5,1.7-0.4c1.6,0.5,3.2,1.6,4.7,2.5c1.7,1,3.5,2.1,5.2,3.1c3.2,1.9,6.3,4.2,9.7,5.8c1.4,0.7,2.9,1.1,4.5,1.3
				c0.8,0.1,1.6,0.2,2.4,0.2c1,0-0.3-1.3-0.5-1.5c-1.7-1.5-4.1-1.1-5.9-2.4c-0.4-0.3-0.8-0.7-1-1.1c-0.3-0.6-1-1-1.6-1.4
				c-1.2-0.9-2.3-1.7-3.6-2.3c-1.2-0.6-2.5-1.2-3.6-2.1c-0.6-0.4-1.1-0.9-1.7-1.4c-0.4-0.4,0.9-0.4,0.9-0.4c2.8,0.8,5.3,2.5,7.8,3.9
				c2.5,1.4,5,3.3,7.8,4c1.5,0.4,3,0.8,4.5,1.1c0.5,0.1,1.5,0.6,2,0.4c0.4-0.1,0.8-0.5,0.4-0.9c-2-1.9-5.1-3-7.6-4.3
				c-1.3-0.7-2.7-1.4-4-2.1c-0.6-0.4-1.2-0.8-1.9-1.2c-0.7-0.5-0.8-0.6-1-1.4c0,0-0.1,0.1-0.1,0.1c0.6,0.1,1.3-0.1,1.9,0.2
				c0.8,0.4,1.6,0.8,2.3,1.2c1.5,0.8,3.1,1.6,4.6,2.4c3,1.6,5.8,2.8,9.1,3.6c0.4,0.1,3.5,1,2.8-0.2c-0.7-1.3-2.9-2.1-4.1-2.8
				c-1.4-0.8-2.8-1.5-4.3-2.2c-1.2-0.6-3.2-1.4-4-2.6c1.5-0.5,3,0.3,4.4,0.9c1.7,0.7,3.3,1.7,4.9,2.6c3.2,1.8,6.3,3.7,9.4,5.6
				c1.4,0.9,3,1.3,4.6,1.6c0.9,0.2,1.7,0.3,2.6,0.3c0.5,0,1.9,0.3,2.2-0.2c0.8-1.2-2.1-2-2.7-2.1c-0.7-0.2-1.3-0.3-1.9-0.7
				c-0.7-0.4-1-1.1-1.5-1.7c-0.9-1.2-2.4-1.7-3.7-2.5c-1.6-0.9-3.2-1.8-4.9-2.7c-1.5-0.7-3.1-1.2-4.6-2c-0.2-0.1-1.4-1-0.5-1.2
				c0.9-0.2,1.6,0.2,2.5,0.5c3.4,1.3,6.5,2.7,9.5,4.6c3.2,1.9,6.3,3.9,9.8,4.7c1.7,0.4,3.5,0.8,5.2,1.2c0.7,0.2,1.4,0.4,2.2,0.4
				c0.8-0.1,1.2-0.8,0.4-1.3c-3.1-2.2-6.3-4.4-9.5-6.4c-1.5-0.9-3-1.8-4.5-2.5c-0.8-0.4-1.6-0.7-2.4-1.1c-0.8-0.4-2-0.8-2.6-1.5
				c-1.4-1.5,1.4-1,2.2-0.6c1.5,0.7,3,1.6,4.5,2.3c6.5,3.4,12.6,7.5,18.5,11.8c1.4,1,2.8,1.8,4.5,2.1c0.9,0.2,1.7,0.2,2.6,0.3
				c0.8,0.1,1.9,0.4,1.8-0.7c-0.1-0.6-1.3-1.3-1.7-1.6c-0.7-0.6-1.3-1.1-2-1.6c-1.5-1.1-3-2.2-4.5-3.3c-1.3-0.9-2.6-1.8-3.9-2.7
				c-1.3-0.9-2.5-2-4.1-2.5c-0.7-0.2-1.4-0.8-2-1.2c-0.3-0.2-1.6-0.8-0.8-1.2c1.2-0.5,3.2,1,4.1,1.5c1.5,0.8,3.1,1.7,4.5,2.6
				c1.3,0.8,2.7,2.1,4.2,2.6c0.7,0.2,1.4,0.2,2.1,0.1c0.8-0.2,1.6,0.1,2.3,0.4c0.8,0.3,1.6,0.7,2.4,1.1c0.8,0.3,1.5,0.2,2.4,0.2
				c0,0.1,0,0.2-0.1,0.2c-1.8-2.4-4.6-4.3-7.1-5.8c-1.3-0.8-2.8-1.3-4-2.2c-0.4-0.3-1.2-0.9-1.4-1.4c-0.3-1,1.7,0,1.9,0.2
				c3.1,1.8,6.2,3.5,9.2,5.5c3.1,2.1,6,4.3,9,6.5c1.4,1,2.7,1.8,4.3,2.3c0.5,0.2,1.6,0.7,2.1,0.5c0.8-0.2,0.6-1.1,0-1.5
				c-1.5-0.9-3.2-1.6-4.8-2.4c-1.4-0.7-3.5-1.3-4.3-2.7c-0.4-0.6-0.3-1.2-0.5-1.9c-0.1-0.8-0.7-1.2-1.2-1.6
				c-1.6-1.1-3.1-2.3-4.7-3.4c-0.6-0.4-1.6-0.9-2.1-1.5c-0.1-0.1-0.5-1.6,0.2-1.2c1.7,0.8,3.2,1.8,4.8,2.8c2.9,1.9,5.8,3.8,8.5,5.9
				c2.7,2.1,5.4,4.4,8.6,5.7c1.5,0.6,3.1,1.2,4.6,0.9c1.9-0.4-0.4-2.4-1-3c-2.7-2.4-5.5-4.8-8.5-6.8c-3.1-2-6.2-4-9.3-6
				c-0.4-0.3-3.6-2-2.5-2.5c0.7-0.4,1.5,0.3,2.1,0.7c0.8,0.4,1.6,0.8,2.3,1.3c3.1,1.8,6,3.7,8.9,5.7c0.7,0.5,1.5,1,2.2,1.5
				c0.6,0.4,1.4,1.1,2.1,1c0.8-0.2,1.4-0.6,2.2-0.2c0.7,0.4,1.5,0.7,2.4,0.4c0,0.3,0.4,0.9,0.4,0.4c0-0.2-0.3-0.3-0.5-0.3
				c-0.1-0.3-0.3-0.6-0.5-0.9c-0.6-1-1.5-1.8-2.6-2.4c-1.4-0.7-2.7-1.4-3.9-2.3c-1.1-0.8-2.9-1.8-3.6-2.9c0.5-0.2,0.7-0.4,1.2-0.2
				c0.6,0.2,1.2,0.6,1.7,0.9c1.1,0.6,2.1,1.3,3.1,2c2.1,1.5,4.4,2.9,6.5,4.4c4.2,3.1,7.6,7.4,12.6,9.1c0.7,0.2,2.7,0.6,2.8-0.4
				c0.2-1-1.1-1.9-1.7-2.5c-2-1.7-4.4-2.7-6.6-4.1c-0.9-0.6-1.4-1.3-1.8-2.3c-0.5-1.1-1.4-1.8-2.3-2.5c-1-0.8-1.9-1.7-2.9-2.5
				c-1-0.9-2.1-1.6-1.1-3c0.7,1.1,1.8,1.8,2.8,2.7c1.3,1,2.5,2.1,3.9,3.1c1.4,1,2.8,1.7,4,2.9c1.1,1.1,2.4,2.1,3.8,3
				c2.8,1.8,5.8,3.3,8.7,4.9c3,1.6,6.2,2.5,9.5,3.3c0.6,0.1,3.7,1.1,2.8-0.6c-0.2-0.4-1.1-0.8-1.5-1.1c-0.5-0.4-1-0.8-1.6-1.1
				c-0.5-0.3-1.1-0.6-1.8-0.8c-0.6-0.2-1.4,0-2-0.4c-1.4-0.9-2.6-2-4-3c-1.3-0.9-3-1.7-4-2.9c-1.1-1.3-2.2-2.3-3.5-3.3
				c-1.3-1-2.7-1.8-4-2.8c-0.6-0.5-1.3-1-1.9-1.6c-0.7-0.6-0.9-0.9-1-1.8c0,0-0.1,0.1-0.1,0.1c1.5-0.2,3,1.4,4.2,2.2
				c1.6,1.2,3.3,2.4,4.9,3.6c1.5,1.1,3,2.2,4.5,3.3c0.6,0.5,3.5,2.9,4.2,2.2c1.1-1-6.4-6.5-7.2-7.5c-0.3-0.4-0.4-1.1,0.3-1.2
				c0.6-0.1,1.4,0.6,1.9,1c1.5,1.2,3,2.5,4.5,3.7c1.3,1.1,2.7,2.3,4.1,3.4c0.5,0.4,1.1,1,1.7,0.5c0.4-0.3,1.1-1.2,1-1.7
				c-0.1-0.6-0.8-1.2-1.2-1.6c-0.6-0.6-1.1-1.2-1.7-1.7c-0.6-0.5-1.3-0.9-1.9-1.6c-0.2-0.2-0.5-0.5-0.7-0.8
				c-0.2-0.5,0.6-0.6,0.8-0.5c3.1,1.5,5.5,4.1,7.9,6.5c2.5,2.5,5,5,7.6,7.3c2.6,2.2,5.3,4.2,8.2,6c0.5,0.3,1.1-0.2,0.7-0.7
				c-0.6-0.7-1.2-1.3-1.8-2c-1.3-1.4-2.7-2.8-4-4.2c-2.7-2.7-5.4-5.2-8.1-7.8c-0.7-0.6-1.3-1.3-2-1.9c-0.5-0.5-0.4-1.1,0.4-0.8
				c1.7,0.7,2.9,1.9,4.2,3.1c5.3,5,10.8,9.9,15.4,15.5c2.1,2.6,5.1,3.6,8.2,4.5c0.6,0.2,1.1-0.1,1-0.8c-0.2-0.6-1.1-1.4-1.6-1.9
				c-1.3-1.5-2.6-3-3.9-4.4c-0.9-1-1.8-2-2.7-3c-0.4-0.4-0.8-0.9-1.2-1.3c-0.4-0.5-0.3-0.8-0.5-1.2c0.4,0.1,1.1,0,1.4,0.4
				c0.6,0.6,1.2,1.2,1.8,1.7c1.3,1.1,2.6,2.1,4,3.2c2.6,1.9,5.6,3.7,7.6,6.2c0-0.2,0-0.4,0.2-0.1c-0.6,0-0.2-0.6-0.2-1.1
				c0-0.6-0.5-1.3-0.8-1.7c-0.8-1.1-1.7-2.1-2.5-3.1c-0.9-1.1-1.7-2.1-2.6-3.1c-0.7-0.9-2-1.9-1.8-3.2c0,0-0.1,0-0.1,0.1
				c1.2-0.2,1.8,1,2.5,1.8c0.8,1,1.7,2,2.5,3c1.7,2,3.4,3.9,5,6c1.6,2,3,4.2,4.5,6.3c0.6,0.8,1.5,2,2.4,2.6c0.5,0.3,0.9,0.3,1.2,0.8
				c0.2,0.3,0.7,0.6,0.7,0c0-0.4-0.2-0.6-0.6-0.6c-0.1-0.6-0.3-1.2-0.6-1.7c-0.6-1-1.3-1.9-2-2.8c-0.8-1-1.6-2.1-2.4-3.1
				c-0.4-0.5-2.2-2.2-1.5-2.7c1-0.8,4.4,3.7,5,4.5c0.7,0.9,1.1,2,2.1,2.6c0.4,0.3,2.1,1.1,2.3,0.4c-0.1,0.1-0.1,0.3-0.2,0.4
				c0.1-0.5,0.2-0.9,0.2-1.4c-0.1-0.5-0.5-0.9-0.6-1.4c-0.1-0.3,0.2-0.8,0.5-0.7c0.4,0.1,0.8,0.5,1.1,0.8c1.6,1.5,2.8,3.5,4,5.3
				c1.2,1.8,2.4,3.6,3.8,5.2c0.7,0.8,1.5,1.5,2.3,2.2c0.4,0.4,1.8,2.1,2.3,1.8c-0.2,0-0.4,0-0.6,0c0-0.4,0.3-1,0-1.4
				c-0.5-0.7-1-1.4-1.6-2.1c-0.3-0.4-1-0.9-0.9-1.5c0.1-0.6,1-0.3,1.4-0.3c0.5,0.1,0.5,0.6,1,0.9c0.4,0.2,0.4,0,0.6,0.5
				c0.1,0.2,0.3,0.4,0.6,0.5c0.6,0.2,0.4,0.1,0.7,0.7c0.1,0.3,0.7,0.2,1,0.2c-0.3,0.3-0.8,0.8-0.3,1.2c0.5,0.4,0.9-0.3,0.5-0.7
				c-0.4-0.5-1-0.8-1.5-1.2C358.5,57,358.2,56.6,357.7,56.6C357.5,56,358.3,56.6,357.7,56.6z M69.3,246.2c-0.2-0.6,0.6-0.7,0.7-0.2
				c0,0.7-0.7,0.3-0.8,0.6C69.2,246.5,69.5,246.6,69.3,246.2c0,0.2,0,1.2,0.1,1.3c0.1,0.2,0.4,0,0.3-0.2
				C69.5,246.9,69.4,246.6,69.3,246.2C69.2,245.8,69.4,246.5,69.3,246.2z M135.7,202.6c0.3,0,1.1,0.2,1-0.3
				c-0.4,0.2-0.7,0.4-1.1,0.5c0.2-0.1,0.3-0.1,0.3,0c0,0.2-0.3,0-0.4,0.1C135.5,202.9,135.8,203,135.7,202.6
				C135.8,202.6,135.8,203.3,135.7,202.6z M411.9,155.6c0-0.6-0.3-0.7-0.7-1.1c-0.4,0.8,0,1.3,0.8,0.9c-0.1,0.4-0.3,0.8,0.3,0.8
				C412.2,156.1,412,155.9,411.9,155.6C411.9,155.5,412,155.9,411.9,155.6z M339.9,144.9c1-0.3,2.2-0.3,2.4-1.6
				c0.5,0.2,0.8,0.5,1.4,0.1c0.6-0.4-0.3-0.6-0.7-0.3c-0.9,0.6-2.9,0.4-2.9,1.9c-0.4-0.1-0.9-0.3-1.2,0.1
				C339.2,145.4,339.5,145.1,339.9,144.9C340.4,144.8,339.6,145,339.9,144.9z M213.4,33.4c0,0-0.1,0,0.1-0.2
				c0.3,1.3,1.6,1.2,2.8,1.1c0.5,0,1.5-0.6,1.7-0.1c0.3,0.5,0.8,0.8,1.4,0.9c0.2,0,1.1-0.1,0.5-0.4c-0.5-0.2-1.2-0.3-1.8-0.5
				C216.5,33.7,215,33.2,213.4,33.4z M420.9,190.8c0.7-0.5,1.5-1.7,0.7-2.4c-0.5-0.5-0.8,0.2-0.9,0.6c-0.2,0.7,0,1.3,0.3,1.9
				C420.7,190.8,420.9,190.8,420.9,190.8z M259.8,295.6c0,0.1-0.1,0.2-0.1,0.3c0.5-0.7-0.3,0.7-0.3,1c-0.1,0.6,0.4,1,0.9,0.9
				c0.4-0.1,1.3-0.6,1.2-1.2C261.3,296.1,260.2,295.8,259.8,295.6C259.7,295.7,260.2,295.8,259.8,295.6z M213.2,154.4
				c0.9-0.3,1.4-0.6,1.3-1.6c-0.1-0.7-0.8-0.1-0.9,0.2c-0.1,0.2-0.7,1.6-0.4,1.8C212.9,154.6,213.1,154.5,213.2,154.4
				C214.4,154,213.1,154.5,213.2,154.4z M423.8,256c-0.8,0-2.5,1.1-2.1,2.1c0.5,1.2,2.1-0.7,2.2-1.4c0-0.5-0.2-0.5,0.3-0.7
				c0.3-0.1,0.5-0.2,0.7-0.4c0.3-0.3,0.7-1,0.7-1.4c0.1-0.9-0.8-0.4-1.1-0.1C424,254.5,423.7,255.2,423.8,256
				C422.7,255.9,423.7,255,423.8,256z M184.2,180.8c0.8-0.1,1.4-0.3,1.9-1c0.3-0.4,1-1.4,0.7-1.9c-0.5-0.9-3.3,1.8-2.5,3
				c-0.7-0.5-0.1,0.3-0.1,0.3C184.2,181,184,181.1,184.2,180.8C184.5,180.7,183.8,181.3,184.2,180.8z M417.4,147.5
				c0.1-0.4,0.4-1.5,0.2-1.8c-0.4-0.5-0.3,1-0.3,0.9C417.3,146.9,417.3,147.2,417.4,147.5c0.2,0.2,0.4,0.5,0.5,0.8
				c0.2,0.6,0.1,1.3,0.4,1.9c0.1,0.3,0.6,1.4,1,1.4c0.6,0,0.3-0.9,0.2-1.2C419.1,149,418.5,148,417.4,147.5
				C417.4,147,417.7,147.6,417.4,147.5z M415.5,159.1c0.5-0.9,0.3-1.9,0.1-2.8c-0.2-0.9-0.8-0.3-0.8,0.3c0,0.9,0.2,1.7,0.7,2.4
				c0.2,0.9,0.2,1.8,0.5,2.7c0.2,0.8,0.6,1.6,1.1,2.2c0.6,0.9,0.7-0.7,0.6-1c-0.2-0.9-0.6-1.7-1-2.6
				C416.4,159.5,416.4,159.3,415.5,159.1C416,158.2,415.8,159.2,415.5,159.1z M408.8,288c-1.4,0.3-2.7,1-4,1.7
				c-0.5,0.3-1.6,0.6-1.9,1.1c-0.3,0.4,0.4,0.8,0.2,0.9c0.6-0.6,2.1-1.1,3-1.6c0.9-0.5,2.7-1,2.6-2.3c0.3,0.2,1.2,0.1,0.9-0.4
				C409.3,287,408.7,287.6,408.8,288C406.7,288.5,408.7,287.7,408.8,288z M425.8,153.8c0-0.2,0.1-1.3-0.4-1
				c-0.5,0.3,0.1,0.9,0.5,0.9c-0.3,1.8,0.2,4.5,1.7,5.7c0.6-1.1,0.3-3,0.2-4.3C427.8,153.9,426.8,153.7,425.8,153.8
				C425.9,152.9,427.2,153.7,425.8,153.8z M165,341.4c0-0.1,0-0.2,0.1-0.3c0.7,1.3,2.1,1.6,3.4,2c0.9,0.3,1.9,0.5,2.8,0.7
				c0.7,0.1,2,0.5,2.7,0.2c0.9-0.4-0.4-1.1-0.7-1.3c-0.8-0.4-1.7-0.8-2.6-1.1C168.9,341,166.8,340.7,165,341.4z M118.9,30.5
				c1.3,1,0.7-0.5-0.1,0.1c-0.1-0.8-0.1-0.9-0.9-1.3c-0.7-0.4-1.5-0.9-2.3-1.2c-1-0.5-3.4-2.1-4.2-0.6c-0.8,1.6,1.1,2,2.2,2.3
				C115.4,30.3,117.1,30.8,118.9,30.5C119.1,30.6,116.5,30.9,118.9,30.5z M354.1,60.9c0,0.1-0.1,0.2-0.1,0.2c0.1,0,0.2-0.1,0.2-0.1
				c-1.2-1.4-2.2-3-3.5-4.3c-0.4-0.4-3.4-3.3-3.7-2.1c-0.2,0.6,0.8,1.6,1.1,2.1c0.5,0.7,1.1,1.4,1.7,2
				C350.8,59.9,352.4,62,354.1,60.9z M258.4,28.4c-0.4-0.9-0.6,0.3,0.1-0.1c0,0.9,0.2,1.2,0.9,1.9c0.7,0.7,1.3,1.5,2,2.1
				c1.2,1.1,2.8,1.3,4.4,1c0.7-0.1,0.7-0.6,0.3-1.2c-0.4-0.7-1.8-1.2-2.4-1.5C262.1,29.6,260.3,28.5,258.4,28.4
				C258.4,28.3,258.8,28.4,258.4,28.4z M296.5,31.4c0,0-0.1-0.7-0.3-0.5C296,31.3,296.3,31.4,296.5,31.4c0.1,0.3,0.1,0.8,0.3,1.2
				c0.2,0.8,0.7,1.5,1.3,2.1c1.5,1.2,3.5,2.5,5.4,2.7c1.2,0.2,0.4-1.2,0.1-1.6c-0.7-0.8-1.4-1.5-2.2-2.1c-0.7-0.6-1.4-1.1-2.2-1.5
				c-0.4-0.3-0.9-0.5-1.3-0.8C297.5,31.2,296.9,31.4,296.5,31.4C296.5,31.3,297,31.4,296.5,31.4z M231.7,30.1
				c-0.1,0.1-0.2,0.1-0.3,0.2c0.1-0.1,0.3-0.1,0.4-0.2c0,1,0.3,1.4,1.1,2.1c0.7,0.7,1.5,1.3,2.3,1.8c1.6,1.2,3.2,1.5,5.1,0.8
				c0.9-0.3,1.3-1,0.3-1.4c-1-0.4-2-0.8-3-1.1C235.7,31.6,233.7,30.8,231.7,30.1z M279.5,243c-1.5,0-2.3-1.5-3.7-1.9
				c-0.7-0.2-1.8-0.3-2.5,0.1c-0.9,0.5-0.2,1.4,0.2,1.9c1,1.1,2.5,2.4,4,2.9c0.7,0.2,1.8,0.3,2.5-0.1c0.7-0.4,0.4-1.4,0.4-2
				c1.1,0,2.1,1.3,3.1,1.6c1.5,0.6,2-0.7,1.9-1.9c-0.1-1.7-1.3-1.9-2.8-2C281.2,241.5,280.2,241.7,279.5,243
				C278.2,243,280,242.1,279.5,243z M150.1,327.2c0-1-0.7,0.1,0.1-0.1c-0.1,2.3,1.8,3.7,3.8,4.4c1.4,0.5,2.8,0.9,4.3,1.4
				c0.7,0.2,3.3,1.5,3.8,0.9c0.6-0.7-4.9-4.2-5.5-4.5c-1.1-0.6-2.2-1.1-3.4-1.5C152.3,327.4,151.1,326.9,150.1,327.2
				C150.1,327.1,150.2,327.2,150.1,327.2z M274.8,279.2c-1.4-0.5-2.7,0.1-3.9,0.8c-0.6,0.4-0.8,1.8-1.6,1.8c-0.5,0-0.9-0.2-1.3-0.4
				c-0.7-0.3-1.2-0.1-1.9,0.1c-1.5,0.3-3,0.6-4.2,1.4c-1.3,0.9,0.1,2,1.1,2.4c1.4,0.6,2.7-0.1,4-0.6c1.6-0.6,3.2-1.1,4.8-1.7
				c1.7-0.6,2.1-2.3,2.9-3.8c-0.1,0-0.2,0-0.2,0C274.6,279.2,274.7,279.2,274.8,279.2z M450.5,74.3c0.3,0.2,1.5,0.4,1.3-0.3
				c-0.2-1.1-0.4-2.1-0.6-3.2c-0.2-0.9-4.1-16.2-5.2-15C443.9,58.2,448.4,72.7,450.5,74.3z M422.4,246.4c-1.3-0.9-2.7-0.3-4,0.1
				c-1.3,0.3-3.3,0.6-4.3,1.5c-0.4,0.4-0.5,1-0.8,1.4c-0.3,0.5-0.7,0.9-1.1,1.4c-1,1-1.9,1.8-2.6,3c-0.7,1.1,2.8,0.3,3.1,0.2
				c1.4-0.3,2.9-0.6,4-1.6c1.1-1,2.1-2.2,3.1-3.3c0.4-0.4,3.3-3,2.4-3.5C421.7,245.3,422.5,246.4,422.4,246.4
				C421.9,246,422.3,246.2,422.4,246.4z M274.9,369.7c1.4,1,3,0.2,4.4-0.3c1.6-0.6,3.2-1.3,4.9-2c1.3-0.6,3.4-1,4.3-2.1
				c1.1-1.3,1.8-3.2,2.3-4.8c0.2-0.6,0.6-1.5,0-1.9c-0.6-0.4-1.7,0.8-2.1,1.1c-1.6,1.2-3.3,2.4-4.9,3.6c-1.5,1.1-3,2.2-4.5,3.4
				c-0.7,0.5-1.5,1.1-2.2,1.6c-0.3,0.2-0.7,0.5-1.1,0.7c-0.4,0.2-1.3,0.5-0.8,0.9C275.1,369.9,275,369.8,274.9,369.7
				C275.6,370.3,275,369.8,274.9,369.7z M242.8,322.4c-2.5-0.7-4.8,0.6-7.2,1.3c-1.3,0.3-2.6,0.6-3.9,0.8c-0.4,0.1-0.6,0.5-0.7,0.8
				c-0.2,0.6,0.2,0.7,0.5,1.2c0.5,0.8-0.9,1.2-1.5,1c-1.3-0.3-2.6-0.8-3.8-1.2c-1.2-0.4-2.5-0.8-3.8-0.5c-1,0.2-2.6,0-3.5,0.7
				c-1.4,1.2,3.5,2.9,4.2,3.1c2.4,0.7,4.9,0.8,7.2,0.1c1.1-0.3,2.3-0.4,3.4-0.8c1.1-0.4,1.9-1.1,2.8-1.8c2.1-1.7,4.2-3.3,6.3-5
				c-0.2,0.1-0.4,0.2-0.2-0.1C242.7,322.2,242.8,322.3,242.8,322.4C241.9,322.1,242.8,322.3,242.8,322.4z M144.3,309.1
				c0,0-0.1-0.1-0.1-0.1c0.1,0.7,0.2,1.5,0.4,2.2c0.3,0.7,0.9,1.4,1.3,2c0.8,1.2,1.4,2.3,3,2.3c1.2,0,2.2,0.3,2.2,1.8
				c0,0.6-0.6,1.1-0.6,1.7c0,0.9,0.8,1.6,1.3,2.3c0.9,1.2,1.8,2.5,3,3.4c1.1,0.9,2.7,1,3.3,2.5c0.6,1.3,1.2,2.2,2.5,2.9
				c0.8,0.4,1.6,0.8,2.3,1.1c0.6,0.3,2.3,0.8,2.5,1.3c0.6,1.1-1.4,2.1-0.5,3.3c0.4,0.6,1.3,0.9,1.9,1.3c0.4,0.2,0.7,0.4,1.1,0.7
				c0.5,0.4,0,0.8,0.8,0.8c1.6,0.1,3.1,1.1,4.5,1.7c1.8,0.8,3.5,1.8,5.4,2.3c1.6,0.5,3.3,0.6,4.9,0.5c0.7,0,1.5,0,2.1-0.4
				c-0.7-0.8-1.3-0.9-2.4-1.2c-3.7-1-7.4-2.1-11.2-3c-0.9-0.2-1.7-0.4-2.6-0.2c-0.8,0.2-1.4,0.8-1.6-0.4c-0.1-0.6-0.5-1.7-0.3-2.2
				c0.3-1,1.5-0.3,2.1,0c1.6,0.6,3.1,1.3,4.7,1.7c0.7,0.2,1.6,0.5,2.3,0.4c0.9-0.1,1.1-1.1,1.9-1.2c0.7-0.1,1.5,0.6,2.1,0.9
				c0.8,0.5,1.6,0.9,2.4,1.3c1.6,0.8,3.2,1.6,5,1.7c0.9,0.1,3.5,0.2,2.8-1.5c-0.3-0.6-1.1-1-1.6-1.3c-0.8-0.5-1.7-0.9-2.6-1.1
				c-1.8-0.5-3.6-1-5.3-1.6c-0.7-0.2-1.4-0.5-2.2-0.6c-1-0.1-1.4,0.6-2.2,0.8c-1.3,0.3-3.2-1.2-4.2-1.8c-1.6-0.9-3.1-1.9-4.6-3
				c-5.8-4.2-11.1-9.6-15.3-15.4c-0.5-0.7-0.8-1.2-1.1-2c-0.2-0.7,0.8-0.3,1.1-0.1c1.2,1.1,2.2,2.7,3.3,4c2.3,2.6,4.7,5.1,7.2,7.5
				c1.2,1.1,2.5,2.2,3.8,3.3c1.2,1,2.5,2.3,3.9,2.8c0.7,0.2,1.4,0.2,2.1,0c0.7-0.2,1.6,0.4,2.2,0.6c1.8,0.7,3.6,1.3,5.5,1.9
				c3.5,1.1,7.1,2.1,10.7,2.9c1.7,0.4,3.4,0.7,5.1,1.2c0.8,0.2,1.7,0.5,2.5,0.8c1.1,0.4,1.5,0.5,2.6,0.3c0.9-0.2-0.4-1.1-0.6-1.2
				c-0.7-0.4-1.4-0.6-2.1-0.8c-0.7-0.2-1.3-0.5-1.9-0.9c-0.7-0.5-1-1.2-1.7-1.6c-1.3-0.8-3.1-1-4.6-1.3c-0.8-0.2-1.7-0.4-2.5-0.4
				c-1-0.1-1.9,0.3-2.9,0.4c-1.4,0.2-3-0.8-4.3-1.4c-1.7-0.7-3.1-1.7-4.5-2.8c-3-2.1-5.9-4.1-8.6-6.6c-2.9-2.6-5.8-5.1-8.7-7.7
				c0,0-1.4-1.2-1-1.4c0.7-0.3,1.2-0.3,1.9,0.1c1.6,1,3,2.6,4.4,3.9c2.8,2.5,5.6,5.1,8.6,7.4c1.3,1,2.8,1.9,4.2,2.9
				c1.5,1.1,2.3,2.2,4.3,2.2c3.7,0.1,7.5,1.3,11.1,2.1c1.8,0.4,3.6,0.7,5.5,1c1.7,0.3,3.9,1.1,5.5,0.3c0.6-0.3,2-1.1,1.4-1.9
				c-0.3-0.4-0.7-0.6-0.8-1c-0.2-0.5-0.2-1-0.1-1.5c-0.1,0-0.1,0.1-0.2,0.1c2.5,1,5.1,2.3,7.7,2.9c0.9,0.2,1.8,0.2,2.8,0.2
				c0.7,0,3.9,0.1,4-0.6c0.2-1.4-2.9-2.2-3.8-2.6c-0.8-0.4-1.7-0.8-2.5-1.2c-0.4-0.2-2.2-0.9-2.2-1.5c-0.3-1.7,2.1-0.7,2.8-0.3
				c0.6,0.3,1.4,0.7,2.1,0.6c0.9,0,1.9-0.7,2.8-1c0.4-0.1,1.4-0.4,1.5-1c0-0.5-1.3-1.2-1.6-1.4c-0.5-0.3-1.2-0.7-1.3-1.4
				c-0.1-0.9,1.2-0.4,1.6-0.3c2.4,0.9,4.7,2.8,7.3,2.8c1,0,2.1-0.2,3.1-0.4c0.6-0.1,1.4,0,1.7-0.6c0.6-0.9-0.3-1.1-1.1-1.4
				c-1.5-0.5-3-0.9-4.5-1.5c-0.6-0.3-1.5-0.6-1.8-1.3c-0.4-1,1-0.7,1.5-0.7c1,0.1,8.5-0.5,8.1-2.1c-0.2-1-2.3-1.9-3.2-2.3
				c-1.2-0.7-2.5-1.1-3.7-1.8c-1.1-0.7-1.7-2-2.8-2.7c-1.2-0.8-2.4-1.3-3.6-2.2c-1.2-0.8-2.3-1.8-3.4-2.6c-0.4-0.3-1.1-0.5-1.1-1
				c0-0.6,0.4-0.9,0.9-0.6c2.8,1.4,5.3,3.4,8,5.1c1.3,0.8,2.9,1.4,4.1,2.3c0.4,0.3,0.7,0.9,1.1,1.2c0.5,0.4,1.1,0.7,1.7,1
				c0.5,0.2,1,0.5,1.5,0.8c0.3,0.2,0.4,0.5,0.6,0.8c0.4-0.1,0.8,0,1.2,0.1c1.3,0.5,2.5,1.7,4.1,1.4c1.5-0.4,0-1.8-0.8-2.1
				c-1.4-0.5-3.1,0.2-4.5,0.6c0.4-0.8,0.9-1.8,0.2-2.6c-0.6-0.7-3.4-2.4-1.3-2.8c0.6-0.1,1.8,0.7,2.3,1c0.8,0.4,1.6,0.8,2.5,1.2
				c0.7,0.3,4.4,0,4.2-1c-0.3-1.5-2.6-1.6-3.5-2.6c-0.4-0.4-0.5-1,0-1.2c0.8-0.3,1.9,0.4,2.6,0.7c2.6,1.1,7,4.5,9.1,0.7
				c0.7-1.3-1.9-2.3-2.7-2.1c-1.4,0.4-1.9-0.2-2.3-1.5c-0.5-1.5-2.5-2.2-3.8-2.9c-0.8-0.5-1.6-0.9-2.4-1.4c-0.6-0.3-0.8-1.3,0-1.5
				c0.7-0.2,1.6,0.5,2.1,0.8c0.8,0.4,1.6,0.8,2.4,1.3c1.5,0.8,3.2,2.3,4.9,2.4c0.8,0.1,1.5-0.2,2.2-0.5c0.5-0.2,1.6-0.4,1.9-1
				c0.7-1.2-1.4-2.3-2.2-2.8c-0.6-0.4-1.2-0.7-1.9-0.8c-0.6-0.1-1.5,0.1-2-0.2c-0.6-0.3-0.5-1.1-0.8-1.7c-0.3-0.6-1.2-0.9-1.4-1.5
				c-0.7-2.1,1.8-0.5,2.6-0.1c1.7,0.9,3.3,0.9,5.1,0.7c0.4,0,4.2-0.8,2.9-1.8c-1.5-1.2-3.1-2.1-4.7-3.1c-1.3-0.8-2.7-1.5-3.8-2.5
				c-0.5-0.5-0.9-0.9-0.2-1.4c0.8-0.5,1.8,0.4,2.4,0.8c1.4,0.8,2.9,2.2,4.5,2.6c0.8,0.2,1.4-0.1,2.1-0.3c1-0.3,1.9-0.5,2.9-0.8
				c0.9-0.2,3.9-0.6,3.1-2.1c-0.3-0.6-1.5-1.1-2-1.5c-0.9-0.6-1.8-1.2-2.7-1.8c-0.8-0.5-1.6-1-2.3-1.5c-0.6-0.4-1.7-0.8-2.1-1.5
				c-0.2-0.3-0.6-1.3,0.1-1.3c0.8,0,1.6,0.4,2.2,0.9c1.2,0.8,2.5,1.7,3.8,2.3c0.9,0.4,1.4,0.6,2.3,0.3c1-0.3,2-0.6,3.1-0.9
				c1-0.3,3.1-0.8,1.7-2.1c-1.4-1.2-3-2.1-4.6-3.1c-1.5-0.9-3-1.8-4.5-2.8c-0.6-0.4-1.7-0.8-2-1.4c-0.4-0.7,0.1-1.3,0.9-1.1
				c2.9,0.8,5,4.1,8.2,3.8c1.7-0.1,3.4-0.2,5.1-0.6c0.5-0.1,1.8-0.2,2-0.8c0.2-0.6-0.9-1.5-1.3-1.9c-1.2-1.1-2.7-1.9-4.1-2.7
				c-1.7-1-3.4-2.1-5.1-3.1c-1.5-0.9-3-1.8-4.3-2.9c-0.4-0.3,0.1-0.9,0.5-0.9c1,0.1,1.7,0.5,2.6,1c1.5,0.9,3,1.8,4.6,2.8
				c1.5,0.9,2.9,1.9,4.7,1.7c0.5,0,4.1-0.8,3.2-1.7c-1.4-1.4-2.9-2.5-4.4-3.6c-1.6-1.1-3.3-2.2-4.9-3.3c-0.8-0.5-1.6-1-2.2-1.8
				c-0.4-0.6,0.1-1.5,0.8-1c1.8,1.1,3.5,2.3,5.3,3.4c0.8,0.5,1.7,1.3,2.6,1.6c0.9,0.3,1.2-0.5,1.9-0.8c0.4-0.2,3.8-0.7,3.8-1.1
				c0-1.5-2.2-2.7-3.3-3.6c-1.6-1.3-3.3-2.3-5-3.4c-0.9-0.6-1.7-1.1-2.6-1.7c-0.4-0.3-1.7-1.4-2.1-1.4c0.3,0,0.2-0.5,0.5-0.7
				c0.5-0.4,1.4,0.2,1.9,0.4c1.7,0.8,3.3,1.8,4.8,2.9c1.2,0.8,2.7,2.3,4.2,2.3c2.2,0,0.6-1.8-0.2-2.6c-1.2-1.2-2.4-2.2-3.7-3.3
				c-1.3-1-2.7-1.9-3.9-2.9c-0.4-0.4-0.9-1-0.5-1.5c0.4-0.5,1.2,0.1,1.7,0.3c1.6,1,3,2.2,4.4,3.4c1.4,1.1,2.7,2.2,3.9,3.4
				c1.2,1.1,2.3,2.7,3.9,3.1c0.8,0.2,3.1,0.3,3.4-0.7c0.3-1-1.4-2.5-2.1-3.1c-1-0.8-2.1-1.2-3.4-1.2c-1.1,0-3.6,0-2.1-1.7
				c1-1.1,0.6-1.7-0.5-2.6c-1.4-1.1-2.8-2.2-4.3-3.2c-1.4-1-2.8-1.9-4.3-2.7c-0.6-0.3-1.5-0.6-2-1.2c-0.5-0.6,0.1-1.1,0.8-1.1
				c0.7,0,1.5,0.6,2.2,0.9c0.8,0.4,1.6,0.8,2.3,1.3c1.5,1,2.7,2.6,4.7,1.8c0.5-0.2,1.2-0.5,1.3-1.1c0-0.7-0.9-1.2-1.4-1.5
				c-1.5-1.2-3.1-2.4-4.6-3.6c-1.3-1-3-1.8-4.2-3c-0.3-0.3-0.8-0.8-0.3-1.1c0.7-0.5,1.6-0.1,2.2,0.3c3.1,2.1,6,4.6,9,6.9
				c1.2,1,2.3,2.1,3.9,2.6c0.8,0.2,4.4,1.2,4.4-0.2c0-0.5-0.8-1.3-1.1-1.7c-0.4-0.5-0.9-1-1.5-1.5c-1.2-1-2.5-1.8-3.9-2.3
				c-0.5-0.2-1.1-0.3-1.6-0.6c-0.5-0.4-0.6-1.1-0.9-1.6c-0.7-1.2-1.9-2-3-2.7c-1.4-1-2.9-2-4.2-3.1c-0.7-0.6-1.3-1.2-2-1.8
				c-0.3-0.3-0.9-1.3-0.1-1.5c0.6-0.1,1.6,0.9,2,1.2c0.8,0.5,1.5,1.1,2.3,1.7c1.6,1.2,3.3,2.4,4.9,3.6c1.4,1,2.7,2.3,4.3,2.9
				c0.6,0.2,4,1.2,3.7-0.2c-0.2-1.3-2.4-2.5-3.4-3.3c-1.4-1.2-2.8-2.3-4.3-3.4c-1.3-1-2.7-2-4.1-3c-0.7-0.5-1.4-0.9-2.1-1.4
				c-0.7-0.4-1.6-0.8-1.9-1.6c-0.4-0.9,1.3-0.4,1.5-0.3c0.8,0.3,1.5,0.7,2.3,1.2c1.6,1.1,3.2,2.2,4.8,3.3c1.2,0.8,2.7,2.4,4.3,2
				c0.7-0.2,1.2-0.7,2-0.6c0.7,0.1,1.5,0.7,1.9,1.4c0.8,1.4-1.6,2.3-0.3,3.7c0.6,0.7,1.1,1.3,1.7,2c0.2,0.2,0.5,0.7,0.8,0.7
				c0.3,0,1,0,0.9-0.5c-0.8-4.2-1.6-8.4-2.8-12.4c-0.6-2-1.4-3.9-2.3-5.7c-0.5-0.9-0.9-1.8-1.4-2.7c-0.2-0.4-0.4-0.7-0.8-1
				c-0.1-0.1-0.6-0.6-0.4-0.2c-1.1-3.4-3.3-5.6-5.7-8.2c-2.5-2.7-4.7-5.6-7.5-8c-17-14.6-44.5-15.6-56.8-14.1
				c-3.3,0.4-6.7,1-9.9,1.8c-0.8,0.2-4.2,1.1-2.1,2.2c2.4,1.2,4.9,1.9,7.4,2.7c1,0.3,1.9,0.7,2.8,1.1c0.8,0.4,2.3,1.1,2.7,1.9
				c0.1,0.3-0.4,0.7-0.7,0.5c-0.7-0.3-1.4-0.5-2.1-0.8c-1.2-0.5-2.5-1-3.7-1.5c-2.4-0.9-4.8-1.7-7.2-2.4c-1.7-0.5-4.5-2-5,0.7
				c-1.3,0-2.6,1.2-3.7,1.8c-0.6,0.4-1.3,0.4-2,0.6c-0.8,0.2-1.6,0.6-2.3,1c-2.9,1.8-5.6,4.2-8.2,6.4c-2.7,2.3-4.8,5.2-7.1,7.9
				c-21.1,25.1-36.3,62.4-29.4,94.1c2.4,10.9,5.3,30.2,15.6,40.6c1,1,2.1,1.9,3.4,2.7c0.5,0.3,0.9,0.7,1.5,0.5
				c0.6-0.2,1.1-0.9,1.1-1.5c0.1-1.2-2.1-1.6-2.9-1.9c-0.4-0.2-1.3-0.3-1.4-0.8c-0.1-0.5-0.1-0.9,0.4-1.2c0.3-0.2,1.1-0.1,1.3-0.5
				c0.1-0.3-1.2-0.6-1.4-0.6c-1.1-0.5-2.1-1.2-3.2-1.7c-1-0.5-1.7-1.2-1.6-2.3c0.1-1.3-1.1-2.5-1.8-3.6c-0.4-0.6-0.8-1.3-1.3-1.9
				c-0.4-0.7-0.9-1.2,0-1.5c0.5-0.2,1.5,0.3,2,0.5c0.9,0.3,1.7,0.5,2.6,0.8c0.4,0.1,1-0.2,0.9-0.6c-0.1-0.6-1-1.5-1.4-2.1
				c-0.8-1.1-1.6-2.9-2.8-3.5c-1.1-0.5-2.8-1.2-3.5-2.2c-0.5-0.9-0.2-2.1-0.3-3.1c-0.1-0.8-0.6-1.4-0.9-2.1
				C142.1,309.4,142.9,309.2,144.3,309.1z M398.1,154.9c-0.5,0,0.5-3.3-1-3.4c-1.1-0.1-2.6,1.6-3.1,2.4c-0.5,0.9-0.2,2.8-1.6,2.6
				c-1.8-0.2-3,1-4.2,2.2c-1.3,1.3-2.5,2.6-3.8,3.9c-1.3,1.3-2.5,3-4,3.9c-0.5,0.3-1.1,0.4-1.3-0.3c-0.1-0.7,0.5-1.2,0.9-1.7
				c1.3-1.4,2.6-2.8,4-4.2c1.2-1.3,2.5-2.5,3.8-3.7c1.2-1.1,3-2.1,3.8-3.6c0.6-1.3,0.4-3,0.2-4.4c-0.1-0.9-0.3-1.7-0.5-2.6
				c-0.1-0.6-0.4-2.3-0.9-2.6c-0.6-0.4-0.9,0.1-1.3,0.5c-0.6,0.6-1.2,1.2-1.9,1.7c-1.4,1.2-2.9,2.3-4.4,3.4c-3,2.3-5.7,5-8.4,7.6
				c-1.3,1.2-2.6,2.6-4.1,3.6c-0.6,0.4-1,0.8-1.6,0.4c-0.7-0.4,0.3-1.2,0.6-1.5c2.4-2.9,5.3-5.2,8.1-7.6c2.9-2.5,5.9-4.9,8.8-7.4
				c1.3-1.1-1.8-4.4-2.8-5.1c-2.7-1.9-5.6-3.1-8.7-4.2c-1.7-0.6-2.1,0.7-2.9,1.9c-1,1.4-2.2,2.6-3.4,3.8c-2.6,2.4-5.2,4.8-8,6.9
				c-0.7,0.5-2.3,2-3.2,1c-0.7-0.7,2.8-3.2,3.3-3.6c2.7-2.3,5.6-4.5,8-7.1c0.8-0.9,2.1-2.4,1.5-3.7c-0.7-1.6-3.4-1.2-4.7-1.4
				c-1.6-0.2-3.2-1-4.9-0.9c-1.8,0.1-3,1.6-4.3,2.7c-1.4,1.2-2.8,2.2-4.2,3.4c-0.6,0.4-1.2,1.2-2,1.1c-1.2-0.1-0.7-1-0.3-1.6
				c1.1-1.4,2.5-2.4,3.9-3.5c0.5-0.4,1.4-0.8,1.1-1.6c-0.2-0.7-1.8-0.3-2.3-0.2c-3.5,0.3-7.2,1.6-10.5,2.7c-3.3,1.1-6.9,2.3-10,4.1
				c-0.9,0.5-2.7,1.7-2.2,2.9c0.6,1.4,1.4,2.8,2.5,3.9c0.4,0.4,1,1,1.6,1.1c0.3,0,1.6,0.1,1.2-0.4c-0.2-0.4-1.1-0.5-0.9-1
				c0.1-0.4,0.6-0.8,0.9-1c1.5-1.8,2.7-4.2,4.6-5.6c1.4-1.1,3.1-1.9,4.7-2.7c0.4-0.2,1.4-1.1,1.9-0.6c0.7,0.6-0.1,1.2-0.6,1.6
				c-1.3,0.9-2.7,1.6-4,2.5c-0.4,0.3-1.4,1-1.5,1.6c-0.1,1.1,0.6,0.8,1.4,0.6c1.4-0.3,3.4-1.3,4.9-0.7c1.4,0.5,2.4,2.1,3.1,3.3
				c1.3,2.4,1.7,5.3,0.9,7.9c-1.6,5.3-5.9,10.2-10.6,13c-2.9,1.7-6.1,2.8-9.4,3.6c-3.5,0.9-7.3,1.8-10.9,2c-1.3,0.1-3.1-0.4-3.6-1.8
				c-0.6-1.9,1.1-2.4,2.5-2.4c1.3-0.1,3.4,0.3,4.5-0.6c1.1-0.9,0-2.8-1.2-2.9c-0.7-0.1-1.5,0.3-2.2,0.5c-0.2,0.1-1.8,0.4-1.3-0.4
				c0.3-0.6,1.4-1,2-1.4c0.8-0.5,1.6-1.1,2.4-1.7c2.6-2.1-1.3-6.8-2.5-8.6c-0.9-1.4-1.4-2.4-3-1.3c-1.6,1-3.2,2-4.8,3
				c-1.5,0.9-2.9,1.9-4.3,2.9c-0.5,0.4-3.4,3-3.9,1.7c-0.3-0.9,2.6-2.7,3.2-3.2c1.5-1.1,3.1-2.1,4.6-3.1c1.4-0.9,3.1-1.7,4.3-2.9
				c0.5-0.5,1.2-1.1,0.7-1.8c-0.6-0.9-1.1-0.8-1.9-0.4c-1.6,0.6-2.9,1.8-4.3,2.8c-1.5,1.1-3,2.3-4.4,3.5c-2.6,2.2-5.1,4.5-7.4,7.1
				c-4.6,5.2-7.6,10.2-9.1,18.5c-0.2,1.2-1,6.2-0.2,7.2c0.5,0.6,1.6,0.7,2.2,0.9c0.7,0.3,1.4,0.7,2.1,1.1c0.4,0.3,1.5,0.8,1.7,1.3
				c0.2,0.5-0.6,0.9-1,0.9c-0.9,0-1.9-0.8-2.6-1.2c-6.6-3.9-2.2,22.6-0.9,27.1c0.5,1.7,1.2,3.4,1.7,5.1c0.3,0.9,0.5,1.7,0.8,2.6
				c0.3,1,0.8,1.4,1.8,1.8c1.4,0.6,2.8,0.9,4.1,1.6c1.6,0.8,3.1,1.9,4.8,2.7c1.3,0.6,3,1.1,4.2,2c1.7,1.3-0.7,1.5-1.7,1.1
				c-1.7-0.7-3.4-1.5-5.1-2.3c-1.7-0.8-3.2-1.7-4.9-2.5c-2.1-0.9-1.2,1.8-0.8,2.7c0.7,1.7,1.3,3.5,2.1,5.2c4.1,9.3,2.8,7.2,4.5,9.8
				c0.9,1.4,1.9,2.8,2.6,4.3c0.7,1.6,1.3,3.3,2.3,4.7c20.4,30.9,33.1,36.4,49.2,40.3c1.7,0.4,3.5,1.1,5.2,1.2c0.4,0,1.4,0.1,1.6-0.4
				c0.2-0.6,0.6-1.9,0-2.2c-1.2-0.7-3.2-0.5-4.6-0.7c-1.1-0.2-3.9-0.4-3.8-2c0.1-1.2,3.7-0.1,4.3,0c1.9,0.4,3.9,0.6,5.8,0.6
				c1.9,0.1,3.7,0,5.6-0.1c1.8-0.1,3.8,0.1,5.6-0.4c1.7-0.4,2.7-0.5,4.4-0.1c1.8,0.4,3.6,0.6,5.5,0.8c1.6,0.2,3.5,0.7,5.1,0.4
				c1.7-0.3,3.4-0.7,5.1-1.4c1.2-0.5,3-0.9,3.1-2.3c0-0.2-4.7-0.3-5.2-0.3c-1.8,0-3.7-0.2-5.5,0.1c-1.9,0.3-3.7,0.7-5.6,1
				c-0.5,0.1-0.4-0.8-0.3-1c0.2-0.5,1.4-0.9,1.9-1.1c0.7-0.4,1.5-0.7,2.3-0.9c0.8-0.3,1.7-0.1,2.6-0.3c1.6-0.2,3.2-0.8,4.7-1.5
				c0.8-0.3,4.1-1.3,2.4-2.4c-1.1-0.7-2.5-0.5-3.5-1.4c-0.4-0.4-0.6-1-1.2-1.1c-0.8-0.2-1.7,0.1-2.5,0.3c-0.7,0.2-1.6,0.6-2.3,0.1
				c-0.5-0.3-0.3-0.8,0.1-1.2c0.4-0.5,1.4-0.5,2-0.7c0.9-0.3,1.9-0.6,2.8-0.9c3.3-1.1,6.6-1.4,9.4-3.6c0.5-0.4,1.3-0.8,1.1-1.5
				c-0.2-0.7-1.4-0.5-1.9-0.6c-2-0.2-4.1-0.3-6.1-0.2c-0.7,0-1,0-0.8-0.7c0.1-0.6,1.1-0.8,1.6-1c1.7-0.6,3.4-1.2,5-2.1
				c0.7-0.4,3.5-1.5,2.7-2.7c-0.4-0.5-1.1-0.4-1.4-1.2c-0.3-0.8,0.9-1,1.4-1.1c1.7-0.3,3.5-0.4,5.3-0.6c2-0.3,3.9-0.7,5.8-1.2
				c1.4-0.3,2.8-0.8,3.9-1.8c1.4-1.2,2.5-2.8,3.6-4.3c1.2-1.4,2.3-2.8,3.4-4.3c0.4-0.6,0.6-1.3,0.9-1.9c0.1-0.2,0.3-0.6,0.2-0.8
				c-0.1-0.3-0.5-0.5-0.8-0.3c-0.9,0.9-2,1.6-3.1,2.1c-1.5,0.6-0.4,2.2-0.8,3.3c-0.4,1.2-2.5,1.9-3.5,2.3c-1.9,0.6-3.9,1-5.8,1.5
				c-0.8,0.2-1.6,0.5-2.5,0.6c-0.8,0-1.6-0.2-2.5-0.2c-0.9,0-1.6,0.2-2.4,0.4c-0.6,0.2-1.9,0.9-1.5-0.3c0.4-1.4,2.4-2.2,3.4-3.1
				c1.4-1.2,2.8-2.5,4.1-3.8c0.6-0.6,1.1-1.2,1.5-1.9c0.2-0.6,0.3-1.4,0.8-1.8c0.5-0.5,1.2-0.8,1.7-1.4c0.6-0.6,1.1-1.3,1.7-2
				c1.1-1.2,2.1-2.4,3.2-3.5c1.1-1.2,1.9-2.6,2.4-4.2c0.2-0.8,0.4-1.7,0.7-2.5c0.2-0.5,0.7-1.5,0.4-2c-0.5-0.9-3.2,2.9-3.5,3.3
				c-0.5,0.7-1,1.3-1.8,1.7c-0.5,0.3-1,0-0.9-0.7c0.1-0.5,2-3,0.1-2.8c-1.5,0.2-3.2,0.4-4.6,1c-1.4,0.6-1.8,1.9-2.8,3
				c-0.9,1.1-2.1,1.8-3.4,2.4c-0.6,0.3-1.3,0.6-2,0.6c-0.3,0-1.6-0.4-0.9-0.9c1.4-0.9,3.1-1.7,4.4-2.8c1.1-0.9,0.9-2.5,2-3.4
				c1-0.9,2.5-0.9,3.8-1.2c1.8-0.4,3.7-0.8,5.5-1.5c1.6-0.7,2.9-1.5,4.1-2.8c0.6-0.6,0.1-1.1-0.4-1.6c-0.6-0.7-0.2-1.4,0-2.2
				c0.2-0.7,0.4-1.2-0.6-1.2c-0.6,0-1.4,1-1.8,1.4c-1.3,1.3-2.4,3.1-3.9,4.1c-0.4,0.2-1.2,1-1.5,0.2c-0.3-0.9,0.4-1.3,0.9-1.9
				c1.4-1.5,2.7-2.9,4.1-4.4c2.3-2.5,5.1-4.9,5.7-8.4c0.2-1,0.6-3.5-0.3-4.2c-1.1-0.7-2.7,1.9-3.2,2.7c-0.5,0.7-0.8,1.2-0.2,2
				c0.4,0.5,0.6,1.2,0,1.7c-1.4,1.1-3,1.9-4.6,2.8c-0.7,0.4-1.5,0.8-2.2,1.2c-0.6,0.4-1.3,1-2,1.1c-0.8,0.1-1.5,0-2.2,0.1
				c-0.9,0.2-1.7,0.6-2.5,1c-0.7,0.4-1.4,0.7-2.2,1c-0.6,0.2-1.5,0.7-2.2,0.7c-0.8,0-0.3-0.9,0-1.1c0.8-0.5,1.6-1,2.5-1.5
				c2.9-1.5,6.3-2.1,8.7-4.2c1.1-1,2.2-2.2,3.2-3.3c1-1.2,1.8-2.6,2.3-4.1c0.2-0.5,1.2-4-0.3-2.7c-1.5,1.3-2.7,2.7-4,4.1
				c-0.5,0.5-1.1,1.6-1.8,1.9c-0.5,0.2-0.8-0.4-0.8-0.9c0-0.6,1.1-1.5,1.4-1.9c0.6-0.7,1.1-1.5,1.6-2.3c0.4-0.7-0.7-0.9-1.1-0.8
				c-0.8,0.2-1.5,0.4-2.3,0.6c-1.6,0.5-3.1,1-4.6,1.6c-1.4,0.6-2.7,1.3-3.9,2.2c-0.6,0.5-1.2,1-1.7,1.5c-0.4,0.5-1.1-0.4-1.2-0.8
				c-0.1-1.3,2.5-2.6,3.3-3.3c0.6-0.5,1.2-1,1.9-1.4c0.8-0.4,1.7-0.5,2.6-0.8c1.7-0.6,3.4-1.1,5-1.8c0.3-0.1,1.5-0.9,0.8-1.2
				c-0.6-0.3-1.4,0.6-1.8-0.2c-0.5-1,1.1-2.4,1.7-3c0.4-0.5,0.9-1,0.7-1.6c-0.3-0.9-1.6-0.2-2.2,0c-3.4,1-6.7,2.8-10.2,3.5
				c-1.5,0.3-2.5,2-3.5,3c-0.6,0.7-1.2,1.3-1.9,1.9c-0.5,0.4-1.4,1.5-2.1,1.4c-1.7-0.1,0.6-2.5,1-2.9c1.2-1.3,2.5-2.4,3.7-3.7
				c1.1-1.1,2.2-1.6,3.7-2.1c0.9-0.3,1.7-0.6,2.5-1c0.7-0.3,1.7-0.6,2.1-1.3c0.4-0.6,0.6-1.3,1-1.9c0.4-0.6,0.9-1.2,1.3-1.8
				c0.6-0.8,2.8-3.2,1.3-3.7c-0.6-0.2-1.7,0.3-2.3,0.5c-0.9,0.3-1.7,0.6-2.6,1c-0.9,0.3-1.8,0.7-2.6,1c-1,0.4-2,1-3,1
				c-1.5,0.1-2.9,0.8-4.2,1.6c-1.6,1-3.2,1.9-4.9,2.8c-0.8,0.4-1.3,0.8-2.2,0.7c-0.7-0.1-0.4-1-0.1-1.3c0.4-0.6,1.4-0.9,2.1-1.3
				c0.9-0.5,1.7-1,2.6-1.5c1.5-0.9,2.9-1.8,4.2-2.8c1-0.8,2.3-2.4,3.7-1.6c1.3,0.7,3.6-0.5,5-0.9c1.8-0.6,3.7-1.1,5.3-2
				c1.2-0.6,0.4-2.4-0.8-2.5c-1.5-0.1-2.4,1.8-3.5,2.5c-0.6,0.4-1.3,0.3-1.9,0c-0.6-0.3-1.2-0.2-1.8,0c-1.6,0.5-3,1.8-4.7,1.9
				c-0.6,0-1-0.5-0.8-1.1c0.3-0.6,1-1,1.5-1.2c1.5-0.7,3.2-0.9,4.7-1.6c1.6-0.7,1.9-1.6,1.8-3.2c0-0.4,0.2-1.7-0.4-1.8
				c-0.8-0.1-1.4,0.5-1.9,1c-1.1,1-2,2.2-3.1,3.3c-0.4,0.4-1.1,0.1-1.3-0.3c-0.3-0.8,0.3-1.3,0.7-1.9c1-1.4,2.5-2.6,3.7-3.8
				c1.4-1.4,2.5-2.2,2.8-4.3c0.1-0.8,0.3-2.9-0.7-3.2c-0.6-0.2-1.9,1.7-2.3,2.1c-0.8,0.8-1.5,1.6-2.1,2.6c-0.3,0.5-0.4,1.1-0.9,1.5
				c-0.5,0.5-1.2,0.7-1.8,1.1c-0.8,0.4-2.1,1.6-3,1c-0.8-0.5,1.3-2.2,1.7-2.6c0.8-0.9,1.8-1.7,2.2-2.9c0.2-0.7,0.5-2.8-0.6-2.9
				c-1-0.1-2,1.3-2.6,1.9c-0.3,0.3-1,0.8-1.4,0.3c-0.4-0.5-0.1-1.1,0.1-1.6c0.3-1.1-0.2-2.5-0.3-3.6c0-0.8,0.3-2.8-0.7-3.1
				c-0.7-0.2-2.1,0.7-2.7-0.1c-0.5-0.7,1.1-2.1,1.6-2.4c0.8-0.7,1.5-1.2,1.8-2.3C398,157.6,398,156.2,398.1,154.9
				C398,154.9,398,155.8,398.1,154.9z M290,100.8c0.1-0.4-0.7-0.7-1-0.8c-0.7-0.2-1.5,0.1-2.2,0.3c-1.8,0.5-3.4,1.5-5,2.3
				c-3.3,1.7-6.7,3.2-10.1,4.7c-3.4,1.4-6.9,2.5-10.4,3.8c-7.5,2.8-12.9,3.2-20,7c-3.1,1.7-5.9,3.7-8.8,5.8
				c-1.5,1.1-1.9,2.1-2.5,3.8c-0.6,1.9-1.3,3.7-2,5.5c-1.4,3.5-2.8,7-4.2,10.5c-2.7,6.6-6.1,13-10.3,18.8c-2,2.8-4.2,5.6-6.6,8.1
				c-0.6,0.7-3,2.4-2.6,3.5c0.5,1.3,3.8,0.1,4.8,0c13.3-1.3,34,2.7,32.9,2.8c3-0.2,5.3-4.3,6.5-6.6c5-9.7,4.6-17.1,14.2-27.8
				l13-14.3c2.4-2.7,4.8-5.6,7-8.5c2.1-2.8,4-5.7,5.4-8.8C289.3,107.5,289.5,104.1,290,100.8C290,100.6,289.6,103.6,290,100.8z
				 M348.8,102.7c-14.4-0.4-27.5,10.5-25.6,27.4c0.2,1.7,0.8,3.3,1.6,4.7c0.9,1.6,3-0.1,4-0.6c3.3-1.7,6.8-2.8,10.3-4.1
				c3.5-1.3,7.1-2.1,10.8-2.8c3.7-0.7,7.2-0.7,11-0.5c3.7,0.2,7.4,0.8,11,1.8c3.4,0.9,6.9,2,10,3.8c1.4,0.9,2.9,1.7,4.4,2.5
				c1.7,0.9,2.5,0.4,3.7-1c2.4-2.7,4.7-5.3,7.3-7.8c6.2-5.9,22.2-17.4,21.2-23.6c0,0-26,8.4-39.7,6.7
				C363.3,107.3,359.8,102.3,348.8,102.7C345.6,102.6,353.7,102.5,348.8,102.7z M308,323.2c-0.1,0-0.1,0-0.2,0
				c0.4-0.1,1,0.7,0.5,0.9c-0.8,0.4-1.7,0.8-2.5,1.3c-1.6,0.8-3.5,1.5-4.8,2.7c-0.3,0.3-1.1,1-1,1.5c0.1,0.7,0.7,0.6,1.3,0.9
				c1.9,0.9-1.7,2.5-2.5,2.9c-1.3,0.8-2.6,1.6-3.5,2.8c-0.5,0.6-2.3,3.3-0.3,3.1c0.6-0.1,1.1-0.5,1.7-0.8c0.7-0.3,1.5-0.4,2.2-0.5
				c0.2,0,0.4,0.4,0.4,0.6c0,0.3-0.5,0.6-0.7,0.7c-0.8,0.6-1.6,1.2-2.4,1.7c-2.7,1.8-6.2,3.4-8.4,5.9c-10,11.3-26.5,19.5-25.9,23.7
				c0.2,1.4,3,1.7,4,1.5c1.6-0.2,2.8-1.5,4-2.5c1.4-1.2,2.7-2.3,4.2-3.3c6-4.1,11.7-8.9,17.2-13.7c1.4-1.2,2.8-2.4,4.2-3.6
				c1.3-1.1,2.8-1.8,4-3.1c1.1-1.2,2.1-2.5,3.2-3.7c1.3-1.3,2.6-2.5,3.9-3.8c2.6-2.5,4.9-5.3,7.2-8.1c2.2-2.7,4-5.8,6-8.8
				c4.1-5.9,7.5-12.3,10.1-19.1c0.6-1.6,1.2-3.2,1.9-4.8c0.3-1.6,1-3.1,1.9-4.5c0.3-0.4,1.2-1.3,1.1-1.9c-0.2-0.6-1.4-1.3-1.9-1.7
				c-0.6-0.5-1.3-1.3-2-1.5c-0.8-0.2-1.6,0.2-2.3,0.5c-3.3,1.5-7.1,2.1-10.7,2.9c-0.8,0.2-4,1.5-4.3,0.4c-0.4-1.2,2.8-2.3,3.7-2.5
				c1.6-0.5,3.2-0.6,4.8-1c0.9-0.2,1.7-0.5,2.5-0.7c0.8-0.2,2-0.3,2.6-0.8c1.3-1-0.6-2.1-1.5-2.3c-1.8-0.4-4,0.1-5.8,0.4
				c-1.8,0.3-3.6,0.6-5.3,1.2c-1.7,0.5-2.2,1.7-2.6,3.2c-0.4,1.6-1.2,3.2-1.4,4.9c-0.1,0.6-0.3,1.3,0.1,1.8c0.6,0.7,1.5,0.2,2.2-0.1
				c3.3-1.3,6.6-2.7,10.2-2.9c0.6,0,0.8,0.6,0.4,1c-0.5,0.4-1.1,0.6-1.7,0.9c-0.7,0.3-0.9,0.8-1.5,1.2c-0.5,0.3-1.4,0-2,0.1
				c-1.6,0.4-3.1,0.9-4.6,1.6c-1.2,0.6-3.5,1.3-4.1,2.6c-0.5,1.2-0.2,2.8,1.4,2.2c1.9-0.6,3.8-1.3,5.7-2c0.8-0.3,1.5-0.5,2.4-0.6
				c0.9-0.1,0.5,1,0.2,1.3c-1.4,1.3-3.2,1.6-5,2.3c-1.7,0.7-3.4,1.5-5.1,2.3c-1,0.5-2.6,2.3-1.3,3.4c0.5,0.4,2.7-0.8,3.2-1
				c1-0.4,2.7-1.4,3.8-1.3c1.2,0.1,1.8,1.2,0.4,1.8c-1.3,0.5-2.6,1-3.9,1.6c-1.3,0.6-2.5,1.2-3.7,1.9c-1.1,0.6-2.2,1.4-2.7,2.6
				c-0.1,0.4-0.5,1.3-0.1,1.6c0.4,0.4,1.1,0.3,1.5,0c1.2-0.7,2.4-1.4,3.7-2.1c1.1-0.5,2.3-1.2,3.5-1.4c0.5-0.1,1.4-0.2,1.9,0
				c0.3,0.1,0.5,0.8,0.1,1c-2.6,1.4-5.4,2.7-7.9,4.3c-1.2,0.8-2.4,1.6-3.5,2.5c-0.6,0.5-2.3,1.5-1.8,2.6c0.4,0.9,1.7,0.4,2.3,0.2
				C305.8,323.4,306.8,323.1,308,323.2C307.6,323.1,305.7,322.9,308,323.2z M318.7,335c0-0.7,0-1.5,0-2.2c0-0.5,0.1-1.2-0.1-1.7
				c-0.6-1.5-2.9,1.9-3.2,2.3c-2.2,2.9-4.3,5.8-6.7,8.4c-1.1,1.2-2.4,2.3-3.6,3.5c-1.3,1.3-2.6,2.6-4,3.8c-1.3,1.1-2.5,2.2-3.7,3.4
				c-0.6,0.6-1.2,1.2-1.8,1.8c-0.3,0.3-0.6,0.6-0.9,0.9c-0.2,0.6-0.3,1.2-0.5,1.8c-0.5,1.6-1.1,3.3-1.4,4.9
				c-0.4,1.8,1.6,1.7,2.6,0.9c1.2-0.9,1.8-2.7,2.4-4c0.8-1.6,1.4-3.6,2.5-5c0.3-0.4,1.1-1,1.5-0.4c0.3,0.5-0.1,1.6-0.3,2.1
				c-0.3,0.8-2.3,4-1.2,4.5c1,0.4,2.6-1.3,3-2c1-1.6,1.7-3.4,2.6-5c0.4-0.7,0.7-1.3,1.1-2c0.3-0.5,0.6-1.3,1-1.8
				c1.1-1.1,1.6,0.1,1.3,1.2c-0.4,1.2-1.1,2.4-1.6,3.5c-0.6,1.4,0.2,1.8,1.4,1c0.9-0.6,1.5-2.2,2-3.2c0.5-1.2,1.5-2.9,1.1-4.2
				c-0.2-0.7-0.5-1.2-0.6-2c0-0.7,0.1-1.4,0.2-2c0.1-0.3,0.9-3.7,1.3-3.4c1,0.8,0.3,2.3,0.4,3.4c0.1,1.2,1.6,1.3,1.8,2.3
				c0.2,1.1-0.8,2.8-1.1,3.9c-0.1,0.4-0.4,1.2-0.1,1.6c0.3,0.4,1.1,0,1.4-0.2c2.4-1.3,2.2-4.9,2.4-7.3
				C317.9,341,318.8,338,318.7,335C318.7,333.4,318.7,336.5,318.7,335z M338.5,302.8c-0.2-1.8-0.1-3.5,0.1-5.3
				c0.1-0.9,0.7-4.1-0.7-4.4c-1.1-0.3-1.7,2.4-1.7,3.1c0,0.6,0.4,1.1,1,1.4c0.7,0.4,0.7,1.4,0.6,2.1c-0.1,1.8-0.5,3.4-0.7,5.2
				c-0.3,1.9-0.3,4-0.4,6c-0.2,3.9-0.5,7.7-0.7,11.6c-0.1,1.8-0.1,3.7-0.4,5.5c-0.2,1.9-0.7,3.8-1,5.8c-0.1,0.4-0.3,1.7,0.2,1.9
				c0.5,0.2,1.2-0.3,1.6-0.6c1.2-1,2.7-1.7,3.5-3.1c1.7-2.9,1.6-7,1.9-10.2c0.4-3.8,0.8-7.6,1-11.4c0.2-3.6,0.5-7.1,0.8-10.7
				c0.1-1.1,0.7-3.2-0.1-4.2c-0.4-0.5-1-0.8-1.7-0.8c-0.7-0.1-0.9,0.7-1,1.2c-0.4,1.5-0.3,3.1-0.3,4.6c0,1.9,0,3.7,0,5.6
				c-0.1,3.7-0.6,7.4-0.8,11.1c-0.2,3.5-1,6.8-1.3,10.2c-0.1,0.6-0.2,1.2-0.5,1.7c-0.1,0.2-1.1,1.1-1.2,0.4
				c-0.1-0.8-0.3-1.7-0.2-2.5c0.1-0.9,0.3-1.8,0.5-2.7C338.1,317.1,338.6,309.9,338.5,302.8C338.3,301,338.6,306.7,338.5,302.8z
				 M342.7,328.1c0,3.3,4.1-0.4,4-2c0-0.6-0.4-1.1-0.5-1.8c0-0.7,0.2-1.4,0.2-2.1c0.2-1.7,0.4-3.3,0.6-5c0.4-3.2,0.8-6.4,1.1-9.7
				c0.1-1.6,0.3-3.1,0.4-4.7c0.1-1.5,0.5-3.1,0.3-4.6c-0.1-0.8-0.8-1.9-1.8-1.4c-1.4,0.8-1.3,2.4-1.5,3.8c-0.4,3.1-0.8,6.3-0.9,9.4
				c-0.2,3.1-0.6,6.1-0.9,9.2C343.5,322.3,342.8,325.2,342.7,328.1C342.7,328.3,342.7,327.3,342.7,328.1z M334.4,316.9
				c0.1-3,0.1-6,0.3-8.9c0.1-1.9,0.3-3.7,0.5-5.6c0-0.5,0.4-2-0.3-1.8c-0.7,0.2-1,0.6-1.2,1.3c-0.4,1.4-1.2,2.9-1.4,4.4
				c-0.1,0.8,0.2,1.5,0.3,2.2c0.1,0.8,0,1.7-0.1,2.5c-0.2,1.8-0.7,3.5-0.8,5.3c-0.1,1.9-0.2,3.9-0.3,5.9c-0.2,3.6-0.7,7.2-1,10.8
				c-0.2,1.7-0.6,3.6-0.5,5.3c0.1,0.8,0,1.3,0.9,1.1c0.8-0.2,1-1,1.2-1.7C333.8,331,333.7,323.8,334.4,316.9
				C334.5,313.4,333.9,322.5,334.4,316.9z M324.9,327.6c0-0.9,0-1.8,0-2.6c0-0.7,0.6-3-0.1-3.4c-0.7-0.4-1.8,1.2-2.2,1.7
				c-0.6,0.8-1.1,1.7-1.4,2.7c-0.6,2.3-0.5,5-0.7,7.4c-0.2,2.8-0.5,5.5-0.9,8.3c-0.1,0.7-0.9,6.4,0.7,5.9c2.3-0.8,2.4-2.7,2.7-4.8
				C323.8,337.6,324.5,332.6,324.9,327.6C324.9,327.3,324.4,333.8,324.9,327.6z M225.1,332.2c-1.1,0.1-2.2,0.2-3.3,0.3
				c-1.1,0.1-2.6,0.7-1.3,1.8c0.4,0.3,0.6,0.7,0.2,1.1c-0.3,0.4-1.3,0.2-1.7,0.1c-1.4-0.2-2.8-0.7-4.1-1.1c-1.2-0.4-2.4-0.8-3.7-0.9
				c-1.5,0-3.1,0-4.6,0.1c-1.1,0.1-2.6,0.2-3.6,0.8c-1,0.7,1.8,1.6,2.1,1.7c1.2,0.4,2.4,0.6,3.6,0.9c1.4,0.3,2.7,0.9,4.1,1
				c1.3,0.1,2.6,0,3.8-0.1c1.3-0.2,2.7-0.4,4-0.6c2.6-0.5,4.5-2.1,6.6-3.6c0.3-0.2,2.6-1.7,1.5-2.1c-0.5-0.2-1.4,0.2-1.9,0.2
				C226.3,332,225.7,332.1,225.1,332.2C223.5,332.3,225.9,332.1,225.1,332.2z M272.7,378.4c2.6,0,5.1-0.3,7.6-0.9
				c2.5-0.6,5-1.2,7.3-2.3c2.5-1.2,4.6-3.1,6.9-4.7c0.6-0.4,1.2-0.9,1.8-1.3c0.5-0.4,1.3-0.8,1.7-1.3c0.1-0.1,0.7-0.9,0.4-1
				c-0.6-0.1-1,0.1-1.5,0.3c-2.6,1-5.3,1.9-7.9,3c-2.7,1.2-5.2,2.6-7.9,3.6c-2.7,1-5.4,1.8-8.2,2.2c-0.7,0.1-3,0.3-2.5,1.4
				C270.7,378.3,271.9,378.4,272.7,378.4C277.1,378.5,272.5,378.4,272.7,378.4z M399.3,279.7c1.9-0.2,4-0.3,5.9-0.8
				c2.2-0.5,3.7-2.3,5.2-3.7c0.8-0.7,1.6-1.5,2.4-2.2c0.5-0.5,1.4-1.1,1.6-1.8c0.3-1.9-3.6-0.6-4.4-0.5c-0.9,0.1-1.8,0.1-2.7,0.5
				c-0.9,0.4-1.3,1.1-2,1.8c-1.4,1.4-3.2,2.3-5.1,3c-0.9,0.3-1.8,0.6-2.7,1c-0.7,0.3-2.4,0.8-2.7,1.5
				C394.3,279.6,398.8,279.7,399.3,279.7C400.5,279.6,397.3,279.7,399.3,279.7z M396.6,294.6c-0.4-0.8-2.1-0.6-2.9-0.7
				c-1.3-0.1-2.7,0-4,0.2c-1.3,0.2-2.7,0.5-4,0.7c-1.1,0.2-2.6,0.7-3.8,0.3c-1.1-0.4-0.4-1.2-0.9-2c-0.5-0.8-1.8-1.2-2.7-1.1
				c-1.3,0.2-2.5,0.6-3.8,0.8c-1.3,0.1-2.6,0-3.9,0.3c-0.3,0-1.1,0.1-1.3,0.4c-0.2,0.2,0.9,0.6,1,0.7c1.2,0.6,2.5,0.8,3.8,1.1
				c2.8,0.6,5.5,1.1,8.3,1.7c2.4,0.5,5.2,1.5,7.6,0.8c1.3-0.4,2.6-1,3.9-1.5C394.9,295.9,396.4,295.7,396.6,294.6
				C396.5,294.5,396.6,294.8,396.6,294.6z M328.8,326.4c0.7-2.5,0.6-5.3,0.8-7.9c0.1-1.4,0.2-2.8,0.3-4.2c0-0.4,0.3-1.5-0.1-1.8
				c-0.6-0.4-1,0.5-1.2,0.9c-1.3,2.4-1.2,5-1.5,7.6c-0.3,3-0.4,5.9-0.6,8.9c-0.2,2.9-0.6,5.7-1.1,8.5c-0.2,1.3-0.5,2.5-0.5,3.8
				c0,1.4,1.5,0.9,2.1,0.1c0.7-0.9,0.6-2.3,0.8-3.4c0.2-1.5,0.5-3,0.6-4.5C328.7,331.9,328.7,329.1,328.8,326.4
				C329.4,324.5,328.7,328.6,328.8,326.4z M406.7,269.2c2-0.1,4.1-0.2,6.1-0.6c0.9-0.2,1.8-0.4,2.6-0.9c0.8-0.5,1.3-1.5,1.9-2.2
				c0.5-0.7,1.1-1.3,1.6-2.1c0.1-0.1,1.1-1.8,0.5-1.7c-0.9,0.1-1.3,0.2-2.1,0.9c-0.9,0.8-1.8,1.6-2.7,2.4c-0.5,0.5-1.3,1.2-2.1,0.9
				c-0.9-0.3,0-1.2,0.2-1.6c0.4-1.1-0.3-1.2-1.3-1c-1.2,0.2-2.4,0.4-3.5,0.6c-1.9,0.3-2.4,1.8-3.6,3.2c-0.4,0.5-1.3,1.3-0.5,1.9
				C404.5,269.4,405.8,269.2,406.7,269.2C409.2,269.1,406,269.2,406.7,269.2z M236.8,317.7c-0.8,0.1-1.7,0.3-2.5,0.4
				c-0.7,0.1-1.9,0-2.2,0.9c-0.1,0.5,0.6,1.6,0.8,2.1c0.5,0.9,0.8,1,1.7,0.9c1.8-0.3,3.5-1.1,5.3-1.5c1.7-0.4,3.5-0.4,5.1-1
				c1.6-0.5,2.7-2.4,3.7-3.6c0.5-0.6-0.7-0.9-1-0.9c-0.8,0-1.7,0.4-2.4,0.6c-1.6,0.4-3.1,0.8-4.4,1.8c-0.6,0.5-0.9,0.7-1.7,0.7
				C238.4,318.1,237.6,317.9,236.8,317.7C235.4,318,237.6,317.9,236.8,317.7z M399.6,286.1c2.8,0,6-0.3,8.7-1.1
				c1.2-0.3,2.4-1.4,3.4-2.2c0.5-0.4,3.1-2.5,1.2-2.7c-3.4-0.3-6.5,0.6-9.5,2c-1.5,0.7-3,1.5-4.5,2.3c-0.4,0.2-1.1,0.7-0.8,1.3
				C398.2,286.1,399.2,286,399.6,286.1C402.8,286.1,399.4,286.1,399.6,286.1z M356,302.6c-0.1-0.5-0.1-2.2-0.8-2
				c-1,0.3-1.2,1.9-1.4,2.8c-0.6,2.7-1,5.4-1.4,8.1c-0.5,2.6-0.8,5.3-1.7,7.9c-0.3,0.9-1.5,0.8-1.9,1.6c-0.5,0.9-0.1,1.8,0.1,2.7
				c0.8-0.4,1.2-0.6,1.7-1.4c0.6-0.8,1.2-1.6,1.7-2.4c0.5-0.8,1.1-1.5,1.3-2.4c0.2-0.8,0.2-1.7,0.2-2.5c0-0.8,0.4-1.5,0.5-2.3
				c0.2-1.1,0.4-2.2,0.5-3.3C355.3,307.1,355.6,304.9,356,302.6C355.9,301.9,355.5,305.8,356,302.6z M273,260.7
				c-0.8,0.1-3.4,0-3.5,1c-0.1,1.2,2.5,2.7,3.4,3.1c2.5,1.3,6.3-0.3,8.3-1.8c0.8-0.6,2.2-2,1.3-3.1c-0.5-0.6-1.3-0.2-1.9,0
				c-0.9,0.3-1.1,0.6-1.5,1.4c-0.7,1.3-1.6-0.2-2.6-0.5C275.4,260.3,274.2,260.7,273,260.7C272.4,260.7,273.7,260.7,273,260.7z
				 M410.8,179.6c0,0.5-0.1,1.2,0.2,1.7c0.3,0.7,1.4,0,1.7-0.3c1-1,2-2.8,2.4-4.1c0.5-1.6,0.3-3.6,0.1-5.3c-0.2-1.7-0.9-3.4-2-4.7
				c-0.2-0.3-1.4-0.9-1.4-0.1c0,0.6-0.2,1.2-0.2,1.8c-0.2,1.2,0,2.3,1.1,3c0.8,0.5,0.9,0.5,0.4,1.4c-0.4,0.8-1,1.4-1.4,2.2
				C410.8,176.5,410.9,178.1,410.8,179.6C410.8,179.7,410.9,178.5,410.8,179.6z M270.1,286.7c0-1.2-2.5,0-2.9,0.1
				c-1.5,0.5-3.1,1-4.6,1.3c-1,0.2-7.6,1-7.1,2.6c0.3,1,1.9,1.5,2.9,1.4c1.6-0.2,3.2-0.9,4.7-1.4c1.5-0.5,3-1,4.5-1.5
				C268.8,288.8,270.1,288.2,270.1,286.7C270.1,286.4,270.1,287.4,270.1,286.7z M200.4,73.5c1.1-0.3,2-0.4,3-1
				c1-0.5,1.9-1.1,2.8-1.6c1.7-1,3.8-2.2,4.7-4c-1.5-0.4-2.8,0.5-4.3,1c-1.5,0.5-3,0.9-4.4,1.6c-1.4,0.7-2.7,1.5-4,2.3
				c-0.4,0.2-0.4,1.1,0.1,1.2C199,73.2,199.7,73.4,200.4,73.5C201.1,73.4,199.6,73.4,200.4,73.5z M421.6,243.3c0,0,2.5-0.6,2.8-0.8
				c0.9-0.6,1.3-1.8,1.8-2.8c0.5-1.1,1.4-2.4,1.6-3.6c0.1-0.7,0.4-2.5-0.8-2.3c-1,0.2-2,1.9-2.7,2.7c-1,1.1-2,2.3-3,3.4
				c-0.4,0.5-0.8,0.9-1.2,1.4c-0.3,0.3-1.1,1-1.1,1.5C419.1,244.4,420.5,243.6,421.6,243.3C421.6,243.3,420.9,243.5,421.6,243.3z
				 M243.8,314.1c1.4,0,3.1-0.8,4.4-1.2c1.3-0.4,3.5-0.6,4.4-1.6c0.4-0.5,2.8-2.8,2-3.3c-0.9-0.6-3.1,0.6-3.9,1
				c-0.5,0.3-1.2,0.5-1.6,0.9c-0.5,0.4-0.7,1.1-1.1,1.6c-0.8,1.1-1.7,0.1-2.7-0.1c-1.1-0.2-3.4-0.1-4.2,0.9
				C240.4,313.1,243.3,314.1,243.8,314.1C243.9,314.1,242.7,314.1,243.8,314.1z M320.1,281.3c-1.3,0.3-2.4,0.6-3.7,0.7
				c-0.7,0-1.1-0.4-0.8-1.1c0.4-0.8,1.4-1,2.1-1.2c5.8-1.9,1.3-2.2-0.7-1.8c-0.7,0.1-2.1,0.3-2.7,0.8c-1.2,1-1,3.6-0.8,4.9
				c0.2,1,4.1-0.1,4.8-0.1c0.8-0.1,4.8-0.3,4.9-1.1C323.4,280.7,320.9,281.2,320.1,281.3C318.9,281.6,320.2,281.3,320.1,281.3z
				 M272.4,272.3c2-0.1,4.1-0.1,5.6-1.7c0.8-0.9-3.2-2.6-3.6-2.7c-0.9-0.3-1.8-0.4-2.7-0.2c-0.8,0.1-2.4,0.2-3,0.7
				C267.3,269.4,271.7,272,272.4,272.3C274,272.2,272,272.1,272.4,272.3z M276.5,274.1c-1.3,0-2.1,0.7-3.3,0.9
				c-0.5,0.1-1.1,0-1.6-0.1c-0.7-0.1-1.4,0.1-2.1,0.2c-1.3,0.1-6.3,0.5-3.8,2.5c2,1.7,4,0.8,6.1-0.1c1.3-0.6,2.6-1.1,3.8-1.7
				c0.5-0.2,1.1-0.3,1.3-0.9C277,274.5,277,274.1,276.5,274.1C276.1,274.1,276.9,274.1,276.5,274.1z M196.8,38.1
				c0.6,0,2.9,0.4,3.4-0.1c1-0.9-1.6-1.5-2.1-1.5c-2.9-0.1-5.6-1.1-8.5-1.6c-0.4-0.1-3.1-0.7-3.2,0.1c-0.2,1.5,1.3,1.5,2.4,1.6
				c1.4,0.2,2.6,0.8,3.9,1.1C194.1,38.1,195.5,38.2,196.8,38.1C198.1,38.1,194.9,38.3,196.8,38.1z M408.9,162.3c0-0.8,0-1.8-0.6-2.6
				c-0.6-0.8-1.6-1.3-2.5-0.6c-0.8,0.7-0.9,2,0.3,2.3c0.5,0.1,1.1,0.2,1.3,0.7c0.2,0.6-0.2,1.2-0.5,1.7c-0.7,1-1.6,1.7-1.9,2.9
				c-0.1,0.6-0.2,1.4,0,1.9c0.3,0.7,1.3-0.2,1.6-0.4c0.9-0.8,2-1.6,2.4-2.8C409.3,164.4,409.1,163.5,408.9,162.3
				C408.9,162.6,409.1,163.6,408.9,162.3z M403.1,161.7c0-0.6,0.2-1.8-0.1-2.3c-0.5-0.8-1.3-0.3-1.9,0.1c-1.7,1.2-1.7,3.3-1.9,5.2
				c-0.1,0.7-0.2,2.1,0.4,2.6c0.7,0.6,1.4,0,2-0.5C403.1,165.4,403,163.5,403.1,161.7C403.1,161.2,403,162.8,403.1,161.7z
				 M418.8,200.3c0.1,1.8,1.5,1.6,2.6,0.7c1.3-1.1,2.3-2.9,2.2-4.6c0-0.7-0.3-2-1-2.3c-0.7-0.4-1.3,0.8-1.7,1.2
				C419.7,196.9,418.7,198.2,418.8,200.3C418.9,200.7,418.7,198.9,418.8,200.3z M414.9,277.5c2-0.3,3.2-1,4.6-2.4
				c0.9-1,3.3-3.1,2.4-4.6c-0.8-1.4-4.1,2.2-4.7,2.8c-0.9,0.8-1.8,1.7-2.8,2.5C413.5,276.6,414,276.9,414.9,277.5
				C416.1,277.3,414.5,277.2,414.9,277.5z M345.8,145.5c-0.7,0.6-1,1.3-1.6,1.9c-0.7,0.7-1.7,1.1-2.6,1.5c-0.7,0.4-2,0.7-1.9,1.7
				c0,0.8,1.5,1.4,2.1,1.5c1.9,0.5,3-2.3,4.2-3.3c0.7-0.5,0.9-1,0.9-1.9C346.8,146.3,346.6,145.5,345.8,145.5
				C345.5,145.7,345.9,145.5,345.8,145.5z M189.1,143.5c-1.1,0.1-2.6-0.1-3.5,0.4c-1.5,0.8,1.4,1.2,1.9,1.3c1.5,0.2,2.7-0.1,4.1-0.5
				c1.4-0.4,2.8-0.6,4.2-1.3c1-0.5,2.3-1.1,2.8-2.2c-1-0.4-2.4-0.1-3.4,0.3c-1.1,0.4-1.6,1.5-2.6,2
				C191.6,144,190.1,143.6,189.1,143.5C188.5,143.5,190.3,143.6,189.1,143.5z M208.5,340.2c-0.8,0-4.8-0.2-4.9,0.8
				c0,0.7,1.6,1,2.1,1.1c1,0.3,2.1,0.9,3.2,0.9c1,0.1,4.9-1,4.6-2.4C213.2,339.5,209.4,340.2,208.5,340.2
				C207.3,340.2,210.4,340.2,208.5,340.2z M423.6,126.4c0.1-1-0.1-2-0.4-2.9c-0.2-0.5-0.5-2.3-1-2.6c0.2,0.2-0.6,0.1-0.6,0.1
				c-0.4,0-0.8,1.1-1,1.4c-0.8,1.5-0.6,2.5,0,4c0.5,1.1,0.8,2.8,1.9,3.3C422.9,129.8,423.5,126.7,423.6,126.4
				C423.7,124.5,423.4,127.4,423.6,126.4z M418.5,190c-0.1-1.4-1.2-1.7-2.1-0.5c-0.6,0.9-1.2,1.8-1.8,2.6c-0.4,0.6-1.5,1.7-1.3,2.5
				c0.3,1.2,3.7-0.4,4.4-1C418.6,192.7,418.5,191.3,418.5,190C418.5,190.2,418.5,190.9,418.5,190z M360.6,302.3
				c0.6,0,1.5-0.3,1.9,0.3c0.5,0.8-0.2,2.4-0.3,3.3c0,0.3,0.3,0.7,0.6,0.8c0.5,0,0.9-0.8,1.1-1.1c0.5-0.7,1.8-1.9,1.7-2.8
				c-0.1-1.1-1.6-1.2-2.5-1.3c-1.3-0.3-2.7-0.5-4.1-0.5c-0.8,0-1.5,1.4-1.1,2C358.5,303.4,360.1,302.5,360.6,302.3
				C361.2,302.2,360.4,302.3,360.6,302.3z M205.1,64.8c-1.3-0.8-4,0.4-5.3,0.9c-0.8,0.3-4.6,1.9-4.2,3c0.3,0.7,4.6-0.8,5.3-1.1
				C202.2,67.2,204.9,66.4,205.1,64.8C205,64.8,205.1,65,205.1,64.8z M176.4,348.3c-0.7,0-1.2,0.1-1.9,0.3c2,1.2,4.9,1.1,7.2,1.2
				c1.2,0.1,2.4,0.1,3.7,0.1c0.8,0,2.7,0.5,3.4-0.1c0.9-0.8-1.3-1-1.6-1c-1.3,0-2.5,0.6-3.7,0.7c-1.3,0.1-2.3-0.4-3.5-0.9
				C178.8,348.2,177.6,348.3,176.4,348.3C176.1,348.3,177.7,348.3,176.4,348.3z M192.7,345.6c-0.5,0-3.6-0.5-3.7,0.2
				c-0.1,0.8,4.1,2,4.8,2.1c0.5,0.1,4.9-0.2,4.1-1.2c-0.3-0.5-2.2-0.5-2.7-0.6C194.4,345.8,193.6,345.7,192.7,345.6
				C191.2,345.5,194,345.8,192.7,345.6z M257.5,295.5c-0.4-1.3-2.4-0.6-3.4-0.4c-0.8,0.2-4,0.7-2.7,2c0.8,0.7,2.4,1.7,3.5,1.7
				C256.3,298.8,257.4,296.5,257.5,295.5C257.5,295.3,257.5,295.8,257.5,295.5z M256.1,305c0.6-0.2,1.2-0.1,1.7-0.5
				c0.7-0.5,1.3-1.1,1.8-1.8c0.3-0.5,1.1-1.5,0.9-2.1c-0.2-0.5-1.4-0.5-1.7-0.1c-0.4,0.6-0.9,1.1-1.6,1.4c-0.7,0.3-1.6,0.1-2.2,0.7
				C253.9,303.8,254.6,305.1,256.1,305C256.3,305,254.8,305.1,256.1,305z M282.8,248.3c-0.5,0-1.5-0.1-1.9,0.2
				c-0.3,0.2-0.6,0.8-0.3,1.2c0.7,0.8,1.6,2.5,2.9,2.5C285.5,252.1,286.8,247.9,282.8,248.3z M119.9,174.7c-5,0.6-10.6,2.2-2.2,1.1
				c0.9-0.1,1.9-0.1,2.8-0.1c0.8,0,2.3,0.2,3-0.3c1-0.7-0.5-1.2-1.1-1.2C121.6,174.2,120.8,174.7,119.9,174.7
				C118.6,174.8,121,174.7,119.9,174.7z M95.4,225.6c-0.6-1.4-2.1,0.5-2.6,1.1c-0.8,0.8-2.6,2.2-2.5,3.5c0.1,1.6,2.5-0.8,2.9-1.1
				C94.4,228,95.1,227.2,95.4,225.6C95.3,225.4,95.2,226.6,95.4,225.6z M372.4,298c1.1,0,1.8,0.1,2.7-0.4c-2.3-1.4-5.6-2-8.2-1.6
				c-0.2,0-1.2,0.6-0.4,0.8c0.7,0.2,1.5,0.4,2.2,0.5C369.9,297.7,371.1,297.9,372.4,298C373.7,298,372.5,298,372.4,298z
				 M425.9,143.8c0.1,0,0.1,0,0.2-0.1c-0.5-1.4-0.8-3.2-1.7-4.5c-0.2-0.3-0.9-1.3-1.2-0.7c-0.3,0.5,0.2,1.7,0.3,2.2
				c0.4,1.5,1,3,1.8,4.3c0.1,0.3,0.8,1.6,1.1,0.9C426.6,145.4,426.1,144.3,425.9,143.8C426,143.8,426.1,144.4,425.9,143.8z
				 M281.8,254.9c-0.6,0.1-2.6,0-2.8,0.7c-0.4,1.1,1,2.1,1.9,2.2c1.1,0.1,2.1-0.5,2.8-1.3C284.7,255.2,282.4,255,281.8,254.9
				C280.9,255,282.2,254.9,281.8,254.9z M399.8,154c0.1,0.7-0.2,2.6,0.8,2.7c0.9,0.1,2.2-1.3,2.3-2.1c0.2-1-0.8-2.3-1.8-2.7
				C399.9,151.4,399.9,153.3,399.8,154C399.8,154.9,399.8,153.5,399.8,154z M266.2,292.2c-1.3,0.1-2.6,0.6-3.8,1.1
				c-1.3,0.6,0,2,0.8,2.5c0.8,0.4,1.5,0,2-0.6C265.8,294.4,267.1,293,266.2,292.2C264.7,292.3,266.3,292.3,266.2,292.2z
				 M416.9,180.3c0.4,0-0.4,3.1,0.6,2.9c1.1-0.3,1.7-1.5,1.6-2.5c-0.1-1.1-0.1-2.6-1.1-3.2C416.6,176.7,416.9,179.6,416.9,180.3
				C416.9,180.3,416.9,179.4,416.9,180.3z M283.7,234.9c-0.8,0-2.4-0.1-2,1.2c0.3,0.9,1.3,1.8,2.2,2.2
				C285.6,239,286,235.1,283.7,234.9C283.4,235,284.9,235,283.7,234.9z M197.8,344c0.5-0.1,1.1,0,1.4-0.4c0.3-0.3,0.6-0.8,0.2-1.1
				c-0.5-0.4-1.3-0.5-1.9-0.7c-0.5-0.2-1.3-0.6-1.8-0.6c-0.6,0-1.8,0.9-1.5,1.7C194.6,343.8,196.9,343.8,197.8,344
				C198.3,343.9,196.9,343.8,197.8,344z M418.3,132.3c-0.8,0.9-0.8,2.1-0.3,3.1c0.3,0.7,0.7,1.3,1.1,2c0.2,0.4,0.9,2,1.3,2
				c1.1,0.1,0-3.3-0.2-3.8C419.8,134.5,419.5,132.8,418.3,132.3C418.2,132.4,418.4,132.4,418.3,132.3z M171.8,36.4
				c-0.1-0.2-0.1-0.7-0.3-0.8c-0.7-0.2-1.4-0.4-2.1-0.6c-1.1-0.3-2.5-1.1-3.3,0.1c-0.7,1.1,1.4,1.3,1.8,1.3
				C169.2,36.6,170.6,37,171.8,36.4C171.7,36.1,171.5,36.5,171.8,36.4z M177,150.5c-0.4-1.3-4.7-0.1-4.4,0.8
				C173.3,153.3,176.5,151.7,177,150.5C177,150.4,177,150.6,177,150.5z M393.5,146.9c0.1,0.9,0,2.3,0.4,3.1c0.6,1.1,1.8,0.1,2.3-0.5
				c0.8-0.8,0.4-1.5-0.3-2.2c-0.4-0.4-0.8-0.7-1.2-1.1C394.2,145.9,393.7,146.7,393.5,146.9C393.6,147.8,393.8,146.6,393.5,146.9z
				 M180.2,347.1c0.6,0,2.9,0.1,1.6-1c-0.9-0.8-2-1-3.1-1.3c-0.7-0.1-1.4,1-1.2,1.5C177.8,347.2,179.4,347,180.2,347.1
				C180.8,347.1,179.7,347,180.2,347.1z M186.5,70.7c1,0,2-0.1,2.8-0.7c0.3-0.2,0.6-0.5,0.6-0.9c0.1-0.7-0.7-0.6-1.2-0.6
				c-1.2,0-2.4,0.2-3.5,0.8C184,70.2,185.9,70.6,186.5,70.7C187.8,70.7,186.2,70.6,186.5,70.7z M169.2,346.5
				c-0.4-0.9-1.6-1.4-2.5-1.7c-0.3-0.1-3-0.7-2.6,0.1C164.6,346,168.5,347.9,169.2,346.5C169.2,346.4,169.2,346.6,169.2,346.5z
				 M425.5,162.3c-0.5,0.7,0,1.9,0.2,2.7c0.3,1,0.6,1.8,1.6,2.1c0.3-0.8-0.2-1.8-0.5-2.6C426.6,163.7,426.2,162.9,425.5,162.3
				C425.4,162.4,425.6,162.4,425.5,162.3z M208.5,129c0.4,1.2,4.8,0.2,4.7-0.8C213.2,126.2,209.2,128.3,208.5,129
				C208.5,129.1,209.7,127.9,208.5,129z M317.4,275.2c0.1-1.3-2.2-3.2-2.6-1.1c-0.1,0.6-0.1,1.5,0.6,1.7
				C316.2,276.2,316.8,275.8,317.4,275.2C317.4,275.1,317.2,275.4,317.4,275.2z M426.8,229.6c0.7-0.3,2.4-2.6,1.2-3.2
				c-0.7-0.3-1.2,0.9-1.4,1.4C426.5,228.4,426.2,229.3,426.8,229.6C427,229.5,426.7,229.5,426.8,229.6z M161.9,337.6
				c0.6,0.2,1.5-0.7,0.9-1c-1-0.6-2.2-0.8-3.3-1c-1.1-0.2-1.5,0.2-0.5,0.9C159.9,337.1,161,337.3,161.9,337.6
				C162.3,337.8,160.8,337.3,161.9,337.6z M279.6,266.3c-0.6,0.2-1.3,0.3-1.6,0.9c-0.3,0.6,0.3,1.2,0.8,1.4
				C280.3,269.5,280.8,266.1,279.6,266.3C279.3,266.4,280,266.3,279.6,266.3z M206.3,133.2c0.5,1,2.9,0.9,3.1-0.4
				C209.5,131.3,206.6,132.6,206.3,133.2C206.3,133.3,206.3,133.1,206.3,133.2z M123,29.9c-0.3,0.3-0.9,0.7-0.6,1.1
				c0.3,0.5,1.4,0.7,1.9,0.5C125.9,31.1,123.8,29.8,123,29.9C122.8,30.1,123.7,29.8,123,29.9z M426.5,172.4
				c-0.1-0.2-1.3-1.7-1.2-0.8C425.4,172.3,426.1,173.3,426.5,172.4C426.4,172.3,426.4,172.6,426.5,172.4z M277.2,257.2
				c-0.4-0.8-2.1-2.3-2.7-0.9c-0.2,0.4,0.7,1.1,1,1.3C276.4,258,276.8,257.9,277.2,257.2C276.7,256.2,277.1,257.4,277.2,257.2z
				 M211.7,36.1c-0.2,0.2-0.4,0.4-0.6,0.7c0.6,0.5,1,0.8,1.8,0.3C213.8,36.5,212.2,36.1,211.7,36.1
				C211.5,36.4,211.9,36.1,211.7,36.1z M207.8,35.8c-0.5-0.1-0.8-0.3-1.2,0.1C207.1,36.1,207.4,36.2,207.8,35.8
				C207.5,35.7,207.7,35.9,207.8,35.8z M196.7,33.8c-0.1,0-1.6-0.3-1.3,0.2C195.7,34.4,196.6,34.2,196.7,33.8
				C196.4,33.7,196.7,33.9,196.7,33.8z M332,47.3c-0.2-0.4-0.9-1.5-1.2-0.5c-0.1,0.3,0.1,0.5,0.3,0.6
				C331.6,47.6,331.7,47.6,332,47.3C331.8,47.1,331.9,47.4,332,47.3z M139.5,166.3C140.2,166.6,139.8,165.7,139.5,166.3
				C139.6,166.4,139.6,166.2,139.5,166.3z M421.4,157.6c-0.2,0.3-0.2,0.3-0.1,0.7C421.5,157.9,421.5,157.9,421.4,157.6
				C421.3,157.7,421.4,157.7,421.4,157.6z M420.6,155c-0.1-0.8-0.5-0.2-0.3,0.3C420.4,155.2,420.5,155.1,420.6,155
				C420.5,154.4,420.5,155.1,420.6,155z M85.6,235.2C86.1,234.4,84.7,234.8,85.6,235.2C85.8,234.8,85.5,235.1,85.6,235.2z
				 M338.1,148.3C338.8,148.6,338.4,147.6,338.1,148.3C338.2,148.3,338.1,148.2,338.1,148.3z M425.5,222.7
				C425.4,222,424.9,223,425.5,222.7C425.5,222.6,425.5,222.8,425.5,222.7z M399.7,291.3C398.5,292,401,291.9,399.7,291.3
				C399.6,291.4,399.9,291.4,399.7,291.3z M130.5,206.2C131.4,205.6,129.8,205.2,130.5,206.2C130.6,206.2,130.4,206.1,130.5,206.2z
				 M251.8,303.6c-0.3-0.3-1-0.7-1.2,0C250.5,304.3,251.7,303.7,251.8,303.6C251.7,303.5,251.6,303.8,251.8,303.6z M225.3,36.1
				c0.1,0,0.2-0.1,0.3-0.1c-0.2-0.3-0.4-0.3-0.6-0.1C225.2,35.9,225.3,36,225.3,36.1C225.5,36,225.3,36,225.3,36.1z M68.6,250.9
				c0-0.1-0.1-0.2-0.2-0.3c-0.1,0.1-0.1,0.2-0.1,0.4C68.4,250.9,68.5,250.9,68.6,250.9z"/>
			<path class="st0" d="M152.2,156.7c-12.7-1-23.9-2.7-23.9-2.7c-0.6,0-1.3,0-1.9-0.1c-0.5-0.1-1-0.3-1-0.9c0-0.6,0.7-0.6,1.1-0.7
				c1.4-0.4,3.3,0.2,4.8,0.4c14,1.7,2.5,0.9,23.4,2.4c0.6,0,3.8-0.1,3.9,0.6C159.1,157.2,153.1,156.7,152.2,156.7
				C150.9,156.6,154.2,156.7,152.2,156.7z"/>
			<path class="st0" d="M243.7,68.7c-0.2,0-1.1,0.1-1.2-0.2c-0.1-0.4,0.5-0.9,0.7-1.1c1.2-0.7,2.4-1.4,3.6-2.1
				c2.6-1.5,4.9-3.3,7.4-5c2.4-1.7,4.8-3.6,7.1-5.5c1.1-0.9,2.3-1.9,3.4-2.9c0.6-0.5,1.1-1,1.7-1.4c0.4-0.4,1.1-1.3,1.8-1.2
				c1.3,0.2,0.4,1.8-0.2,2.3c-1.1,0.8-2.1,1.7-3.1,2.6c-2.1,1.9-4.3,3.5-6.7,5c-1.1,0.7-2.1,1.7-3.1,2.5c-1.2,1-2.5,1.9-3.9,2.8
				C248.7,66.2,246.3,67.5,243.7,68.7C243.1,68.7,244.7,68.2,243.7,68.7z"/>
			<path class="st0" d="M288,48.3c-0.7,1.5-2.4,2.6-3.7,3.7c-1.4,1.2-2.9,2.3-4.4,3.4c-1.5,1.1-3,2.2-4.6,3.1
				c-0.9,0.5-1.7,1-2.6,1.5c-0.4,0.2-2,0.5-1.8-0.3c0.2-0.6,1-1.1,1.6-1.4c0.8-0.5,1.6-1,2.4-1.5c1.5-1.1,2.9-2.3,4.3-3.4
				c1.6-1.2,3.1-2.4,4.7-3.6C284.9,49.2,287.3,46.5,288,48.3C287.9,48.6,287.9,48.1,288,48.3z"/>
			<path class="st0" d="M47.5,273c1.2-3.2,3-6.2,4.7-9.3c0.8-1.5,1.6-3.1,2.4-4.6c0.4-0.6,0.8-1.4,1.2-0.4c0.2,0.6-0.7,2.1-0.9,2.7
				c-1.4,3.5-3.2,6.7-4.8,10.1c-0.6,1.3-1.2,3.4-2.3,4.3c-0.1,0.1-1.6,0.6-1.3-0.1C46.8,274.8,47.2,273.9,47.5,273
				C49.1,268.9,47.2,273.9,47.5,273z"/>
			<path class="st0" d="M303.5,58.7c-0.8-1,0.5-1.5,1.3-1.9c1.1-0.6,2.2-1.2,3.3-1.9c1.1-0.6,2.2-1.2,3.3-1.8
				c0.5-0.3,2.3-1.5,2.9-0.9c1.3,1.4-3.5,3.4-4.3,3.9C307.8,57.1,305.7,58.1,303.5,58.7C303.3,58.4,304,58.5,303.5,58.7z"/>
			<path class="st0" d="M151.4,138.5c-0.4,0-4.5,0.6-4.4-0.3c0.1-1.4,3.9-1.3,4.8-1.3c1,0,2.1,0,3.1,0.1c0.4,0,1.7,0.5,1.2,1.1
				c-0.5,0.5-1.6,0.3-2.3,0.3C152.9,138.5,152.2,138.5,151.4,138.5C149.8,138.6,151.8,138.5,151.4,138.5z"/>
			<path class="st0" d="M242.4,49.2c0.1,1.2-1.7,2.6-2.6,3.3c-0.6,0.5-1.2,1-1.8,1.4c-0.7,0.5-1.3,1.2-1.7,0.1
				c-0.4-1,1.7-2.6,2.4-3.2C239.2,50.4,241.8,47.9,242.4,49.2C242.4,49.3,242.2,48.8,242.4,49.2z"/>
			<path class="st0" d="M326.2,57.1c-0.3,0.8-1,1-1.8,1.2c-1,0.3-2,0.7-3,1.1c-1,0.4-1.9,1-2.8,1.6c-0.5,0.3-1.5,0.9-1.8,0
				c-0.6-1.8,2.9-2.6,3.9-2.9c1.2-0.4,2.3-0.9,3.5-1.3C324.6,56.7,326.5,56,326.2,57.1C326.2,57.3,326.3,56.7,326.2,57.1z"/>
			<path class="st0" d="M168.2,128.7c0.5,0,3.4-0.2,3,0.7c-0.5,1.4-2.8,1.3-4.1,1.4c-0.9,0-1.7,0-2.6-0.2c-0.2,0-1.7-0.5-0.9-1
				C164.8,128.6,166.8,128.8,168.2,128.7C169.3,128.7,167.1,128.8,168.2,128.7z"/>
			<path class="st0" d="M160.1,133.7c-0.7,0-3.3,0.3-3.2-1c0.1-1.1,2.9-0.9,3.6-0.9c0.7,0,2.6-0.1,2.7,1.1
				C163.4,134.2,160.1,133.2,160.1,133.7C159.3,133.6,160.1,133.6,160.1,133.7z"/>
			<path class="st0" d="M150.5,185.2c-0.9-1.5,0.1-3.1,0.8-4.4c0.4-0.8,0.8-1.6,1.2-2.4c0.3-0.7,0.6-1.5,1.2-1.9
				c0.4,0.9,0.4,1.1,0.1,2c-0.3,0.9-0.6,1.7-1,2.6c-0.4,0.8-0.8,1.7-1.2,2.5C151.4,183.7,150.3,185,150.5,185.2z"/>
			<path class="st0" d="M177.9,167.3c-0.8-0.9,0.7-2.3,1.3-3.1c0.4-0.7,1.7-3.4,2.5-1.6c0.4,0.8-0.6,2.4-1.1,3.1
				C179.9,166.7,179.1,167.3,177.9,167.3C177.8,167.2,178.2,167.3,177.9,167.3z"/>
			<path class="st0" d="M217.2,58.3c0.4-1,1.7-1.8,2.6-2.4c0.4-0.3,3.3-2,3.2-0.5C222.9,56.8,217.9,59.7,217.2,58.3z"/>
			<path class="st0" d="M186.2,162.5c-0.9-0.7,0-2,0.4-2.9c0.4-0.8,1.1-2.6,2.1-2.7c1.3-0.2,0.1,2.2-0.1,2.7
				C188.1,160.5,187.3,162.3,186.2,162.5C186.1,162.4,186.3,162.5,186.2,162.5z"/>
			<path class="st0" d="M276.6,209.2c-0.3,1.3-1.3,1.8-2.5,1.8c-0.7,0-1.7-0.2-2.4,0.1c-0.9,0.4,0.7,1.7,1,1.9
				c1.3,1.2,2.6,2.4,3.9,3.6c0.6,0.5,1.2,1.1,1.9,1.4c0.6,0.2,1.5,0.3,1.6,1c0.1,1.3-1.4,1.3-2.3,1.9c-0.5,0.4-0.8,1.2-1.5,1
				c-0.8-0.2-1.7-1.2-2.4-1.7c-3-2.4-6-4.8-9.1-7c-5.8-4.1-11.9-8.5-18.6-11c-1.6-0.6-3.1-1.1-4.8-1.4c-0.7-0.2-1.4-0.4-1.9-0.9
				c-0.2-0.2-0.4-0.4-0.3-0.7c0.2-0.5,0.8-0.3,1.2-0.2c3.6,0.3,7,1.9,10.2,3.5c6.5,3.2,12.3,7.6,18.1,11.9c1.1,0.8,2.7,2.5,4,2.5
				c1.8,0,0.3-1.5-0.3-2.2c-1.1-1.2-2.7-2.1-4-3c-1.5-1.1-3-2.3-4.5-3.4c-3-2.1-6.1-3.9-9.3-5.5c-1.5-0.7-3-1.6-4.5-2.4
				c-0.8-0.4-1.5-0.8-2.3-1.1c-0.8-0.3-1.9-0.5-2.6-1c-0.1-0.1-0.8-0.9-0.6-1.1c0.6-0.3,1.3-0.5,1.9-0.3c1.7,0.5,3.3,1.4,4.9,2.2
				c3.4,1.9,6.8,3.7,10.1,5.6c1.3,0.8,2.6,1.7,3.8,2.6c0.6,0.4,1.1,0.8,1.7,1.3c0.4,0.3,1,1,1.6,0.9c0.6-0.1,3.1-1.6,3-2.2
				c-0.1-0.5-1-1-1.4-1.2c-0.7-0.5-1.4-1-2.2-1.5c-1.1-0.8-2.3-0.8-3.5-1.3c-1.1-0.5-1.5-1.7-2.5-2.3c-2.8-1.6-5.6-3-8.5-4.3
				c-1.1-0.5-3-0.9-3.6-2c-0.8-1.5,2.6-0.5,3.1-0.2c2.9,1.4,5.8,2.7,8.6,4.3c2.7,1.6,5.4,3.2,8.1,4.9c1.3,0.9,2.6,1.8,3.9,2.7
				c1.1,0.8,2.4,1.7,3.1,3C276.6,209.3,276.6,209.2,276.6,209.2z"/>
			<path class="st0" d="M204.6,328.1c-0.9,0-1.8-0.1-2.7-0.1c-0.8,0-1.9-0.2-2.6,0.2c-0.6,0.3-0.9,1.1-1.7,1.3
				c-0.8,0.3-1.5,0-2.2-0.2c-1.5-0.5-3.3-0.9-4.2-2.3c-0.4-0.6-0.7-1.2-1.4-1.5c-0.9-0.4-1.9-0.5-2.8-0.8c-0.5-0.2-1.2-0.7-0.8-1.2
				c0.5-0.6,1.8-0.1,2.5,0c2,0.4,4,1,6.1,1.4c2,0.5,4.1,1,6.2,1.2c0.8,0.1,2.1,0,2.8,0.5c0.5,0.4,0.5,1.1,0.8,1.6
				C204.4,328.2,204.5,328.1,204.6,328.1z"/>
			<path class="st0" d="M144.3,309.1c-1.1-0.7-2.7-1.3-2.9-2.8c-0.1-0.8,0-1.4-0.3-2.2c-0.3-0.8-0.7-1.5-1.1-2.2
				c-0.4-0.8-2.7-3.7-1.9-4.5c1-0.9,2.2,2.1,2.5,2.6c0.7,1.3,1.3,2.6,2.1,3.8c0.4,0.6,0.9,1.2,1.5,1.6c0.7,0.5,0.7,1,1,1.8
				c0.2,0.7,0.6,1.2,1.1,1.7c0.3,0.3,1.2,1.1,1.1,1.5c-0.1,0.7-1.2,0.2-1.5,0.1c-0.7-0.4-1.3-0.9-1.7-1.6
				C144.2,309,144.2,309,144.3,309.1z"/>
			<path class="st0" d="M146.8,289.7c-0.4,0.4-0.4,0.6-1,0.5c-0.7-0.1-1.1-0.4-1.6-0.9c-1-1-1.6-2.5-2.2-3.8c-0.7-1.3-1.4-2.7-2.1-4
				c-0.4-0.8-1.9-2.6-1.3-3.5c0.6-1,1.9,1,2.1,1.4c0.7,1.2,1.5,2.5,2.2,3.7c0.7,1.2,1.2,2.4,2,3.6
				C145.3,287.7,146.7,288.7,146.8,289.7C146.6,289.9,146.8,289.6,146.8,289.7z"/>
			<path class="st0" d="M250.4,189.8c0.7,0.1,1.4,0,2,0.1c0.8,0.2,1.6,0.5,2.4,0.8c1.4,0.6,2.8,1.2,4.2,1.9c1.4,0.7,2.7,1.4,4,2.2
				c0.9,0.5,3.3,1.5,3,2.8c-0.2,0.8-3-0.9-3.4-1.1c-1.4-0.8-2.8-1.6-4.3-2.3c-1.4-0.8-2.9-1.5-4.4-2.2c-1-0.4-3.6-1-3.6-2.4
				C250.5,189.7,250.5,189.7,250.4,189.8z"/>
			<path class="st0" d="M148.1,300.9c-0.6,2.2-4.6-2.9-5.2-3.7c-1.7-2.3-2.9-4.8-3.9-7.4c-0.1-0.3,0.1-0.9,0.4-0.9
				c0.6-0.1,0.8,0.4,1.1,0.8c0.9,1.4,1.7,2.8,2.5,4.1c0.8,1.3,1.6,2.6,2.5,3.9C146.3,298.8,147.5,299.7,148.1,300.9
				C148,301.1,147.9,300.6,148.1,300.9z"/>
			<path class="st0" d="M217.5,188c-0.5,1-2.2,0-2.9-0.4c-1.3-0.7-2.7-1.4-4.1-1.9c-1.4-0.5-2.9-0.9-4.4-1.4
				c-0.7-0.3-1.3-0.6-1.9-0.9c-0.5-0.2-1.8-0.8-1.9-1.3c-0.5-1.6,2.5,0,3,0.2c1.5,0.6,2.9,1.2,4.4,1.8
				C212.3,185.1,215.7,185.4,217.5,188C217.4,188.1,217.3,187.7,217.5,188z"/>
			<path class="st0" d="M257.6,234.5c-1.9-0.7-3.8-1.5-5.7-2.5c-1-0.5-1.9-1.1-2.8-1.8c-0.3-0.3-0.8-0.5-0.8-1c0-0.7,0.6-0.5,1-0.4
				c2.1,0.8,4.1,1.7,6.1,2.7c1,0.5,2,1,2.9,1.7C259.1,233.9,258.4,234.6,257.6,234.5C254.3,233.3,257.7,234.5,257.6,234.5z"/>
			<path class="st0" d="M188.9,185.3c0,1.3,1.6,1.6,2.6,2.1c1.3,0.6,2.6,1.1,3.9,1.6c1.3,0.5,2.7,0.9,4.1,1.2
				c0.6,0.1,1.2,0.2,1.7,0.6c0.5,0.3,0.4,1-0.2,1c-1.5-0.1-2.8-0.1-4.3-0.6c-1.6-0.5-3.1-1-4.6-1.6c-1.4-0.5-2.6-0.9-3.8-1.7
				C187.3,187.1,188.6,186,188.9,185.3z"/>
			<path class="st0" d="M169.8,313.5c1,0.5,1.9,1.5,2.8,2.2c1,0.8,2.1,1.6,3.1,2.4c1.1,0.8,2.2,1.5,3.3,2.3c0.3,0.2,1.4,0.6,1.4,1.1
				c0,0.5-0.6,0.5-1,0.5c-2.2-0.3-4.3-2.4-6-3.7C172.4,317.7,168.2,314.9,169.8,313.5C169.9,313.6,169.7,313.6,169.8,313.5z"/>
			<path class="st0" d="M197.8,324.1c-2-0.2-3.8-1.2-5.4-2.4c-0.8-0.6-1.6-1.3-2.4-2c-0.3-0.2-0.6-0.5-0.7-0.9
				c0-0.3,0.8-0.6,1.1-0.5c0.9,0.3,1.8,1.2,2.7,1.7c0.9,0.6,1.9,1.1,2.9,1.5c1,0.4,2,0.7,3,1.2c0.2,0.1,0.2,0.7,0.2,0.9
				C199.3,324.1,198,324.1,197.8,324.1C197.4,324.1,198.2,324.1,197.8,324.1z"/>
			<path class="st0" d="M237.4,187c0.5-0.3,2.3,0.5,2.8,0.7c1,0.4,2,0.8,3,1.3c1,0.5,1.9,1,2.8,1.6c0.4,0.2,2.6,1.5,1.7,1.9
				c-0.8,0.4-2.2-0.7-2.9-1c-1.1-0.5-2.2-1-3.3-1.4c-1.1-0.5-2.2-0.9-3.4-1.3C236.8,188.3,236.2,187.9,237.4,187
				C237.4,186.9,237.1,187.2,237.4,187z"/>
			<path class="st0" d="M208.9,314.4c1,0.4,1.9,0.8,2.9,1.2c0.5,0.2,2.3,0.7,1.7,1.3c-1,1.1-4.3-0.6-5.5-1c-0.9-0.4-5.1-1.7-4.6-3
				C203.9,311.5,208.6,314.9,208.9,314.4C210.4,315,208.9,314.4,208.9,314.4z"/>
			<path class="st0" d="M219.9,296.4c2.1,0.9,3.8,2.8,5.6,4.2c0.9,0.7,1.9,1.3,2.9,1.9c0.4,0.2,0.6,0.4,0.6,0.9
				c0,0.3-0.6,0.6-0.9,0.5c-2-1-3.9-2.1-5.5-3.5c-0.8-0.7-1.5-1.4-2.2-2.2c-0.2-0.3-0.8-0.7-0.8-1.1
				C219.6,296.7,219.4,296.2,219.9,296.4C220.2,296.6,219.6,296.2,219.9,296.4z"/>
			<path class="st0" d="M218.3,183.7c0.7,0.2,6,1.8,5.1,2.6c-0.6,0.6-2.4-0.3-3.1-0.5c-1.2-0.3-2.4-0.7-3.6-1
				c-1.2-0.4-2.4-0.7-3.6-1.1C212.2,183.4,208.7,180.6,218.3,183.7z"/>
			<path class="st0" d="M256.7,248.5c-0.4,1.6-3-0.2-3.8-0.6c-1.7-0.9-3.4-2-5-3.1c-0.6-0.4,0.7-0.9,1-0.9c0.9,0.1,1.9,0.9,2.7,1.4
				C253.2,246.2,255.4,247,256.7,248.5C256.6,248.6,256.4,248.3,256.7,248.5z"/>
			<path class="st0" d="M141,272.3c-0.3-0.8-0.7-1.5-1-2.3c-0.4-0.9,0.6-1.1,1.1-0.5c1.3,1.6,2.2,3.4,3.1,5.3c0.3,0.6,0.8,1.3,0.6,2
				c-0.2,0.7-1,0.6-1.5,0.2C143,276.6,140.7,272.4,141,272.3C140.6,271.4,141,272.3,141,272.3z"/>
			<path class="st0" d="M142.7,246.8c0.1-0.4,0-1.5,0.7-1.2c0.7,0.3,1,1.2,1.3,1.8c0.4,0.9,0.8,1.8,1.2,2.7c0.5,0.9,1.1,1.7,1.6,2.5
				c0.4,0.6-0.4,1.3-1,1.2c-0.6-0.1-1.3-1-1.6-1.4C143.9,250.8,143.4,248.6,142.7,246.8C142.8,246.2,143.3,248.4,142.7,246.8z"/>
			<path class="st0" d="M249.9,214.3c0.9,0.3,1.6,0.9,2.4,1.4c0.9,0.6,1.8,1.2,2.7,1.8c0.9,0.6,1.8,1.2,2.7,1.8
				c0.6,0.4,0.9,1.7-0.2,1.3C256,220.1,248.2,216.3,249.9,214.3C250.1,214.3,249.8,214.4,249.9,214.3z"/>
			<path class="st0" d="M249,236.8c0.6-0.3,2,0.6,2.6,0.8c1,0.4,2,0.7,2.9,1.1c1,0.4,1.9,0.8,2.9,1.3c0.4,0.2,1,0.3,0.8,0.9
				c0,0.2-0.4,0.6-0.7,0.6c-2-0.6-4-1.1-5.9-1.9c-0.9-0.4-1.8-0.8-2.6-1.2C248.2,237.8,248.1,237.3,249,236.8
				C249.2,236.8,248.8,237,249,236.8z"/>
			<path class="st0" d="M225.3,291.7c0.7-0.2,1.3,0.3,2,0.6c0.9,0.4,1.7,0.9,2.6,1.4c0.7,0.4,4.1,2.2,3,3.3c-0.7,0.6-3.7-1.6-4.3-2
				c-0.8-0.5-1.6-1-2.4-1.6C225.4,292.8,224.7,292.5,225.3,291.7C225.4,291.6,225.2,291.8,225.3,291.7z"/>
			<path class="st0" d="M251.2,220.5c1.7,0.7,3.4,1.4,5.1,2c0.5,0.2,1.2,0.6,0.8,1.2c-0.4,0.8-1.5,0.4-2.1,0.2
				c-1.7-0.5-3.3-1.4-4.9-2.2c-0.4-0.2-1-0.9-0.6-1.3C249.9,220,251.1,220.9,251.2,220.5C253.1,221.3,251.2,220.6,251.2,220.5z"/>
			<path class="st0" d="M237.5,289.6c-1.1,0.3-7-2.6-5.9-3.9c0.6-0.8,3,1,3.6,1.4C236,287.5,238.8,288.5,237.5,289.6
				C237.4,289.6,237.7,289.5,237.5,289.6z"/>
			<path class="st0" d="M257,212.8c0.4,0.8-1.2,0.3-1.4,0.2c-0.9-0.3-1.8-0.7-2.6-1.1c-0.9-0.4-1.7-0.8-2.5-1.3
				c-0.8-0.5-2.1-1.1-2.6-1.9c-0.5-0.9,1.2-0.4,1.4-0.4c1,0.4,2,0.8,3,1.3c0.9,0.4,1.7,0.8,2.5,1.3
				C255.6,211.4,256.8,211.9,257,212.8C257.2,213,257,212.6,257,212.8z"/>
			<path class="st0" d="M150.8,243.4c0.3,1.2-1.5,0.9-2,0.5c-1-0.7-1.6-2.2-1.9-3.3c-0.2-0.7-0.3-0.9,0.3-1.4c0.5-0.4,1.1,0.7,1.3,1
				C149.2,241,150.6,242.3,150.8,243.4C150.9,243.7,150.7,243.2,150.8,243.4z"/>
			<path class="st0" d="M246.9,274.9c-0.9,1.2-2.8-0.5-3.6-1.1c-0.7-0.6-1.4-1.1-2.2-1.7c-0.4-0.3-1.7-1-1.6-1.6
				c0.3-1.5,3,0.9,3.5,1.2c0.8,0.5,1.5,1.1,2.3,1.6C246,273.7,246.8,274.1,246.9,274.9C246.9,275,246.9,274.7,246.9,274.9z"/>
			<path class="st0" d="M223.4,182.4c1.6,0.4,2.8,1.2,4.1,2.1c0.6,0.4,3.5,1.6,1.9,2.4c-0.3,0.1-1.3-0.5-1.6-0.7
				c-0.7-0.3-1.5-0.7-2.2-1.1C224.9,184.7,222.1,183.4,223.4,182.4C223.9,182.5,223.3,182.5,223.4,182.4z"/>
			<path class="st0" d="M192.4,314.2c-1.2,0-2.4-0.2-3.5-0.6c-0.6-0.2-1.2-0.4-1.5-1c-0.3-0.7,0.6-0.6,1.1-0.6
				c1.2,0,2.5,0.1,3.7,0.5C193.4,312.9,194,314,192.4,314.2C190.8,314.2,192.7,314.2,192.4,314.2z"/>
			<path class="st0" d="M184,191.8c1.1-0.3,2.6,0.2,3.6,0.6c0.5,0.2,3.2,1.2,1.9,2c-0.8,0.5-2.6-0.3-3.4-0.6
				C185.6,193.6,182.9,192.6,184,191.8C184.2,191.7,183.9,191.9,184,191.8z"/>
			<path class="st0" d="M244.6,263.4c1.1,0.4,2.1,1.1,3.1,1.8c0.5,0.4,1.6,1.5,0.2,1.6c-0.9,0.1-2.2-0.8-2.9-1.3
				C244.1,264.9,243.3,264,244.6,263.4C245.9,263.9,244.4,263.5,244.6,263.4z"/>
			<path class="st0" d="M251.4,258.6c-0.2,2.5-4.5-0.1-4.7-1.4c-0.3-1.5,1.5-0.4,2-0.1c0.6,0.3,1.2,0.5,1.9,0.6
				C251.2,257.9,251.1,258.1,251.4,258.6C251.4,259.3,251.3,258.3,251.4,258.6z"/>
			<path class="st0" d="M254.6,253.1c-0.7,0.5-1.1,0.5-1.8,0c-0.6-0.4-1-1.1-1.1-1.8c-0.2-0.9,1.5-0.1,1.6,0.1
				C253.9,251.8,254.6,252.3,254.6,253.1C254.4,253.2,254.6,252.9,254.6,253.1z"/>
			<path class="st0" d="M203.7,319.9c0.7,0,1.4,0.1,2,0.4c0.2,0.1,0.7,0.3,0.7,0.6c0,0.1-0.1,0.6-0.4,0.6c-0.6-0.1-1.3-0.2-1.9-0.5
				C203.9,320.9,202.8,319.9,203.7,319.9C204.5,320,203.2,319.9,203.7,319.9z"/>
			<path class="st0" d="M250.5,189.7c-0.1,0-0.3,0-0.4,0.1c0-0.1,0-0.2,0.1-0.3c0.1,0.1,0.2,0.2,0.3,0.3
				C250.5,189.7,250.5,189.7,250.5,189.7z"/>
			<path class="st0" d="M365.4,157.9c-1.8-0.9,1.4-3,2.1-3.7c1.7-1.4,3.3-2.8,4.9-4.3c1.6-1.5,3.2-2.9,4.9-4.3
				c0.8-0.7,1.7-1.3,2.5-2c0.7-0.5,1.9-1.9,2.8-2.1c1.1-0.2,0.4,1.1,0.1,1.4c-0.7,0.9-1.6,1.6-2.5,2.3c-1.7,1.5-3.4,3-5.1,4.5
				c-1.7,1.5-3.5,2.9-5.2,4.3C368.5,155.4,367.2,157.2,365.4,157.9C365.2,157.8,365.7,157.8,365.4,157.9z"/>
			<path class="st0" d="M377.6,260.9c-0.5,0-1.4,0-1.8-0.4c-0.5-0.5,0.6-1.1,1-1.2c2.4-0.5,4.9-1,7.3-1.5c4.3-1,8.7-3,12.5-5.3
				c0.4-0.2,1.7-1.4,1.9-0.4c0.2,0.9-1,1.8-1.7,2.2c-1.9,1.2-3.9,2.2-6,3c-2.3,0.9-4.7,1.5-7,2.2c-1.2,0.4-2.4,0.8-3.6,1
				c-0.5,0.1-1.1,0.2-1.6,0.3c-0.3,0-0.8,0-1.1,0.1C377.5,260.9,377.6,260.9,377.6,260.9C376.1,260.9,377.2,260.9,377.6,260.9z"/>
			<path class="st0" d="M375.8,268.7c-0.3-0.4-1.1-1.2-0.2-1.5c1.1-0.3,2.1-0.5,3.2-0.7c2.3-0.5,4.6-0.9,6.9-1.5
				c2-0.5,3.9-1.2,5.8-2c2-0.9,3.7-2.3,5.6-3.1c0.8-0.3,1,0.6,0.5,1.1c-0.8,0.7-1.7,1.3-2.6,1.9c-1.8,1.2-3.7,2.1-5.7,2.8
				c-2.2,0.8-4.5,1.3-6.8,1.8c-1.2,0.3-2.4,0.5-3.6,0.7C378,268.4,376.9,268.7,375.8,268.7C375.6,268.4,376,268.7,375.8,268.7z"/>
			<path class="st0" d="M388.9,150c-0.3,0.8-1.2,1.3-1.9,1.9c-0.8,0.7-1.6,1.4-2.4,2.1c-1.6,1.4-3.2,2.8-4.8,4.2
				c-1.6,1.4-3.3,2.8-4.9,4.1c-0.7,0.6-1.5,1.5-2.4,1.8c-0.4,0.2-2,0.3-1.5-0.6c0.8-1.6,2.5-2.6,3.8-3.7c1.7-1.3,3.3-2.7,5-4
				c1.6-1.4,3.3-2.7,4.9-4.1C385.4,151.2,388.2,148.3,388.9,150C388.8,150.2,388.8,149.9,388.9,150z"/>
			<path class="st0" d="M366.1,285.2c4.1,0.1,8.1-0.5,12-1.4c0.4-0.1,2-0.8,2.4-0.5c0.7,0.6,0.2,1.2-0.6,1.5
				c-1.9,0.7-3.9,1.3-5.9,1.6c-4,0.6-8.3,0.7-12.3,0.5c-0.9,0-1.7-0.1-2.4-0.7c-0.8-0.7-0.2-1,0.6-1.1
				C361.9,284.8,364.1,285.1,366.1,285.2C370.9,285.3,364.3,285.2,366.1,285.2z"/>
			<path class="st0" d="M361.4,154.3c-1.3-1.4,0.9-2.9,2-3.7c1.6-1.2,3.1-2.6,4.6-4c1.4-1.4,2.8-2.8,4.3-4.2
				c0.7-0.7,1.4-1.3,2.1-1.9c0.6-0.5,1.5-1.4,2.3-1.5c0.8-0.2,0.7,1.1,0.4,1.5c-0.5,0.7-1.1,1.4-1.8,1.9c-1.6,1.4-3.1,2.8-4.6,4.2
				c-1.5,1.4-3.1,2.8-4.6,4.2C364.6,152.1,363.2,153.4,361.4,154.3C361.3,154.2,361.9,154.1,361.4,154.3z"/>
			<path class="st0" d="M394.1,158.9c-1.3,3.2-4.1,5.4-6.5,7.7c-1.4,1.3-2.8,2.7-4.2,4c-0.4,0.4-3.3,3.3-3.5,1.6
				c-0.1-1.1,1.9-2.8,2.6-3.5c1.3-1.3,2.8-2.5,4.2-3.8c1.4-1.3,2.7-2.5,4-3.9C391.4,160.3,393.4,157.2,394.1,158.9
				C394,159.3,394,158.7,394.1,158.9z"/>
			<path class="st0" d="M386.9,184.2c0.4,0,1.3-0.1,1,0.7c-0.3,0.6-1,1.2-1.5,1.6c-1.4,1-2.7,2.1-4.1,3c-2.9,2-6.2,3.7-9.4,5.3
				c-0.5,0.2-1.2-0.2-1.1-0.7c0.1-0.6,0.7-1,1.2-1.3c1.6-1,3.2-1.9,4.8-2.8C380.9,188.3,383.9,186.3,386.9,184.2
				C387.2,184.2,383.2,186.8,386.9,184.2z"/>
			<path class="st0" d="M379.4,252.1c-0.9-0.6,0.3-1.1,0.9-1.3c1-0.3,2-0.6,3-0.9c1.9-0.5,3.7-1,5.5-1.7c1.8-0.7,3.5-1.5,5.1-2.4
				c0.8-0.5,1.6-1,2.4-1.6c0.9-0.7,0.9,0.8,0.6,1.3c-0.8,1.3-2.5,2.3-3.9,2.9c-1.4,0.7-2.8,1.2-4.3,1.7
				C385.8,251.2,382.4,252.4,379.4,252.1C379.2,252,379.7,252.1,379.4,252.1z"/>
			<path class="st0" d="M323,257c-2.9-0.2-5.9-0.7-8.7-1.5c-1.5-0.5-2.9-1-4.3-1.7c-0.3-0.2-0.8-0.9-0.7-1.2
				c0.2-0.6,1.3-0.4,1.7-0.3c2.8,1.1,5.8,2,8.8,2.5c0.7,0.1,1.4,0.2,2.2,0.3c0.5,0.1,2,0,2.4,0.4C325.5,256.7,324,257,323,257
				C318.4,256.7,323.1,257,323,257z"/>
			<path class="st0" d="M315.5,155.1c-0.2,0.6-1,0.9-1.6,1.3c-0.7,0.5-1.4,1-2.1,1.5c-1.5,1.1-3,2.2-4.5,3.4
				c-1.4,1.1-2.7,2.5-4.2,3.5c-0.7,0.4-1.4,0.8-2.1,1.1c-0.2,0.1-2.1,0.8-2,0c0.3-1.2,2.4-2.1,3.3-2.8c1.5-1.1,2.9-2.2,4.3-3.5
				c1.3-1.2,2.7-2.4,4.2-3.3C312.1,155.7,314.3,154.3,315.5,155.1C315.5,155.3,315.4,155.1,315.5,155.1z"/>
			<path class="st0" d="M397.4,212.5c-0.5,1.3-2.1,2.4-3.2,3.2c-1.4,1-2.9,1.7-4.4,2.5c-1.6,0.7-3.2,1.4-4.8,2
				c-0.6,0.2-4.5,1.8-4.3,0.3c0.1-0.7,1.2-1,1.8-1.2c0.8-0.4,1.6-0.7,2.5-1c1.6-0.6,3.1-1.3,4.6-2c1.5-0.7,2.9-1.5,4.3-2.5
				C394.7,213.2,396.5,211.1,397.4,212.5C397.3,212.7,397.3,212.4,397.4,212.5z"/>
			<path class="st0" d="M300.8,173.5c-1.7-2.1,3.8-5.6,5.1-6.7c1.3-1.1,2.6-2.2,3.9-3.2c0.2-0.2,2.9-2.7,3.1-1.6
				c0.1,1.2-1.5,2.1-2.3,2.8c-1.1,1.1-2.3,2.1-3.6,3.1c-1.1,0.9-2.3,1.9-3.3,2.9c-0.6,0.6-1.1,1.2-1.6,1.8
				C301.7,173.4,301.7,173.4,300.8,173.5C300.7,173.4,301.1,173.5,300.8,173.5z"/>
			<path class="st0" d="M398.7,235.1c-0.2,1.5-1.1,1.9-2.3,2.6c-1.4,0.8-2.7,1.5-4.2,1.9c-1.4,0.4-2.8,0.8-4.1,1.3
				c-0.9,0.3-3.2,1.5-4.2,0.7c-0.9-0.7,2.2-1.9,2.5-2c1.6-0.6,3.2-1.1,4.8-1.6c1.3-0.4,2.6-0.9,3.8-1.6c0.6-0.3,1.2-0.6,1.8-0.9
				C397.5,235.2,398.2,234.6,398.7,235.1C398.7,235.4,398.6,235,398.7,235.1z"/>
			<path class="st0" d="M370.3,168.1c-0.4,1.2-0.8,2.1-1.7,3c-1.2,1-2.4,2-3.7,2.9c-1.2,0.8-2.3,1.7-3.5,2.5
				c-0.5,0.3-1.1,0.6-1.7,0.8c-0.8,0.2-0.8-0.8-0.5-1.2c0.8-1.1,2.4-1.9,3.5-2.8c1.3-1,2.6-2.1,4-3.1c0.5-0.4,0.9-0.7,0.9-1.4
				c0-0.6-0.3-1.2,0.2-1.7C368.6,166.1,369.8,167.4,370.3,168.1C370,169.1,370.1,167.8,370.3,168.1z"/>
			<path class="st0" d="M412.4,240c0.3,0.3,0.7,0.4,0.5,0.9c-0.2,0.5-0.6,1-1,1.3c-1.1,0.9-2.7,1.4-4,2c-1.4,0.6-2.7,1.2-4.1,1.8
				c-1,0.5-3.1,1.6-4.2,1c-1-0.6,0.2-1.4,0.8-1.7c1.3-0.6,2.8-1,4.2-1.5C407.3,242.7,409.7,241.2,412.4,240
				C412.6,240.2,411.9,240.2,412.4,240z"/>
			<path class="st0" d="M352.6,173.3c-1.4-1.4,3-4.3,4-5.2c0.9-0.8,1.9-1.5,2.7-2.3c0.6-0.6,1.4-2.4,2.2-2.2c1.1,0.2,0.4,2,0.1,2.5
				c-0.7,1.1-2,2-2.9,2.8c-0.9,0.8-1.9,1.7-2.9,2.4C355,172,353.7,173.4,352.6,173.3C352.5,173.2,352.8,173.3,352.6,173.3z"/>
			<path class="st0" d="M366.2,181.6c-1.3,0.4,0.5-1.5,0.8-1.7c1.3-0.9,2.6-1.9,3.9-2.8c1.1-0.8,2.3-1.5,3.4-2.4
				c0.5-0.4,1-0.8,1.4-1.3c0.4-0.4,0.8-1.3,1.3-1.3c1.3,0,0.6,1.9,0.2,2.5c-0.8,1.1-2.3,1.9-3.4,2.7
				C371.5,178.9,368.9,180.8,366.2,181.6C365.6,181.8,367.7,181.1,366.2,181.6z"/>
			<path class="st0" d="M392.4,205.4c-1.1,2.2-4.1,3.7-6.3,4.8c-1.3,0.6-2.6,1.2-3.9,1.7c-0.8,0.3-3.3,1.4-4,0.5
				c-0.5-0.6,2.4-1.7,2.7-1.8c1.4-0.6,2.7-1.2,4-1.9c1.3-0.7,2.6-1.4,3.9-2.1C389.9,206.1,391.4,204.6,392.4,205.4
				C392.3,205.7,392.3,205.3,392.4,205.4z"/>
			<path class="st0" d="M369.9,186.4c0.7-1.2,2-1.7,3.2-2.4c1.3-0.8,2.7-1.6,4-2.3c1.4-0.8,2.7-1.6,4.1-2.4c0.5-0.3,1.3-1,1.9-1
				c0.4,0,0.7,0.6,0.5,0.9c-0.6,1.1-1.9,1.8-2.9,2.5c-1.1,0.8-2.3,1.5-3.5,2.1c-1.2,0.7-2.4,1.3-3.7,1.8c-0.6,0.3-1.3,0.5-1.9,0.8
				C370.8,186.6,370.6,186.6,369.9,186.4C370.1,186.1,370.2,186.4,369.9,186.4z"/>
			<path class="st0" d="M350.5,166.8c-0.8-0.7,0.4-1.5,0.9-2.1c0.8-0.9,1.5-1.8,2.3-2.7c0.4-0.4,4.4-4.9,4.5-4.7
				c0.6,1,0.4,1.6-0.2,2.5c-0.7,1.1-1.5,2.1-2.3,3C354.4,164.3,352.5,166.6,350.5,166.8C350.4,166.7,350.8,166.8,350.5,166.8z"/>
			<path class="st0" d="M325.9,263.8c-2.1-0.6-4.2-0.6-6.3-1.1c-0.6-0.1-2.4-0.4-2.6-1.1c-0.3-0.8,1-1.2,1.5-1.2
				c1.1,0,2.4,0.4,3.4,0.6c1.2,0.2,2.4,0.5,3.7,0.7c0.5,0.1,2.8,0.2,2.6,0.9C328,263.5,326.6,263.6,325.9,263.8
				C323,262.9,326.5,263.6,325.9,263.8z"/>
			<path class="st0" d="M386.4,196.7c-0.8,1.2-2,1.9-3.1,2.7c-1.1,0.9-2.2,1.8-3.4,2.5c-1.2,0.7-2.4,1.3-3.6,1.7
				c-0.2,0.1-3.3,1.2-3,0.2c0.2-0.5,0.9-0.7,1.4-1c0.6-0.4,1.3-0.8,1.9-1.2c1.3-0.8,2.5-1.5,3.9-2.3c1.1-0.6,2.1-1.3,3.2-2.1
				C384.3,196.9,385.8,195.5,386.4,196.7C386.2,197,386.3,196.6,386.4,196.7z"/>
			<path class="st0" d="M385.4,234.1c-0.7-0.7-0.8-1.2,0.3-1.6c1.1-0.4,2.3-0.8,3.4-1.3c1.1-0.5,2.2-1,3.2-1.6
				c0.7-0.4,2-1.6,2.8-1.2c1.8,0.8-2.7,3.3-3.2,3.5C389.9,232.9,387.7,233.9,385.4,234.1C385.2,233.9,385.8,234,385.4,234.1z"/>
			<path class="st0" d="M357.2,142.6c-1.3-0.6-0.1-1.5,0.5-2.2c0.7-0.8,1.6-1.5,2.4-2.3c0.8-0.7,1.5-1.5,2-2.4
				c0.2-0.4,0.4-0.9,0.5-1.3c0.1-0.6,0.9-0.7,1.5-0.7c1,0,0.7,1.9,0.5,2.4c-0.4,1-1.4,1.9-2.1,2.6c-0.8,0.8-1.6,1.6-2.5,2.4
				C359.2,141.7,358.2,142.5,357.2,142.6C357.1,142.5,357.4,142.6,357.2,142.6z"/>
			<path class="st0" d="M300.4,234c2.2,0.4,4.2,1.8,6.2,2.8c1.1,0.6,2.1,1.2,3.2,1.8c0.5,0.3,0.9,0.4,1,0.9c0.1,0.5-0.2,0.5-0.7,0.5
				c-2-0.1-4.3-1.6-6-2.5c-1-0.5-1.9-1.1-2.9-1.7C300.4,235.3,299.3,234.7,300.4,234C300.8,234,300.2,234.1,300.4,234z"/>
			<path class="st0" d="M305.9,243.2c0.9,0,1.8,0.5,2.7,0.9c1.2,0.5,2.3,0.9,3.5,1.4c1,0.4,2,0.8,3,1.2c0.9,0.4,0.1,1.4-0.5,1.4
				c-0.8,0.1-1.9-0.5-2.7-0.7c-1.1-0.3-2.2-0.7-3.2-1.2c-0.9-0.4-1.8-0.8-2.7-1.4C305.1,244.3,305.2,243.9,305.9,243.2
				C306.1,243.2,305.7,243.4,305.9,243.2z"/>
			<path class="st0" d="M294.2,216.6c1.9,0.8,3.5,2.2,5.3,3.3c1,0.6,2,1.2,3,1.8c0.8,0.4,0.5,1.2-0.4,1.2c-0.8,0-1.8-0.6-2.5-1
				c-1-0.4-1.9-0.9-2.8-1.5c-0.9-0.6-1.8-1.2-2.6-1.9C293.4,217.9,293.6,217.3,294.2,216.6C294.7,216.8,294,216.9,294.2,216.6z"/>
			<path class="st0" d="M373,279.8c-0.5-0.1-1.1-0.1-1.6-0.4c-0.8-0.7-0.4-1.1,0.4-1.2c1.9-0.2,3.7-0.3,5.6-0.7
				c0.6-0.1,1.4-0.7,2-0.2c0.5,0.5,0.4,1.4-0.4,1.5C377,279.2,375,279.5,373,279.8C372.3,279.7,374.8,279.5,373,279.8z"/>
			<path class="st0" d="M348,280.9c0.7,0.2,4.3-0.4,4,0.9c-0.3,1.6-3.9,1.1-5,0.9c-0.8-0.1-4.5-0.4-4-1.7
				C343.5,279.9,347.1,280.8,348,280.9C349.1,281.1,346.7,280.8,348,280.9z"/>
			<path class="st0" d="M291.4,203.1c1.6,0,3.1,1,4.3,1.8c0.6,0.4,4,2.7,2.6,3.3c-0.6,0.3-1.6-0.4-2.1-0.6c-0.8-0.4-1.6-0.9-2.4-1.4
				c-0.7-0.5-1.4-1-2.1-1.6C291.2,204.1,290.6,203.7,291.4,203.1C291.7,203.1,291.2,203.3,291.4,203.1z"/>
			<path class="st0" d="M398.4,185.8c-0.2,1.3-2.6,2.3-3.7,2.8c-1.1,0.5-3,1.6-4.2,1c-1.3-0.7,2.7-2.2,3.1-2.4c1-0.4,2-0.9,2.9-1.3
				C397.2,185.5,397.8,184.9,398.4,185.8C398.3,185.9,398.3,185.6,398.4,185.8z"/>
			<path class="st0" d="M395.6,172.2c0,2.6-3.5,4.6-5.6,5.4c-0.7,0.3-0.3-1.2-0.2-1.3c0.4-0.7,1.3-1.3,1.9-1.8
				c0.7-0.6,1.4-1.2,2.1-1.8C394.2,172.3,395.2,171.1,395.6,172.2C395.6,172.4,395.4,171.7,395.6,172.2z"/>
			<path class="st0" d="M386.9,172.7c-1.5-1.3,3.6-5.3,5-5.2c1.6,0.2-0.9,2.6-1.3,2.9C389.6,171.4,388.4,172.4,386.9,172.7
				C386.8,172.6,387.2,172.6,386.9,172.7z"/>
			<path class="st0" d="M326.5,269.5c-1.6-0.1-3.3-0.3-4.8-0.9c-0.6-0.2-1.4-0.6-1.2-1.4c0.2-0.7,0.7-0.8,1.3-0.7
				c1.8,0.4,3.5,0.8,5.3,1.3c0.6,0.1,1.3,0.4,0.8,1.1C327.7,269.4,327.1,269.4,326.5,269.5C324.7,269.4,327,269.4,326.5,269.5z"/>
			<path class="st0" d="M349.3,161.6c-1.3-0.7,2.1-4.4,3.2-4c1.4,0.5,0.5,1.4-0.2,2.2c-0.4,0.5-0.9,0.9-1.5,1.4
				C350.2,161.6,350,161.6,349.3,161.6C348.9,161.4,349.6,161.6,349.3,161.6z"/>
			<path class="st0" d="M293.3,196.2c1.1,0,2.3,0.9,3.1,1.6c0.5,0.4,1,0.8,1.4,1.3c0.6,0.6-0.5,1-1,0.9
				C295.7,199.7,291.1,197.5,293.3,196.2C293.5,196.2,293.2,196.2,293.3,196.2z"/>
			<path class="st0" d="M402.6,229.5c0-1.1,1.5-1.6,2.2-2.2c0.7-0.5,1.9-2.1,2.7-0.7C408.5,228.5,403.8,230.1,402.6,229.5
				C402.6,229.4,402.7,229.6,402.6,229.5z"/>
			<path class="st0" d="M336.7,273.2c0.5,0.1,2.6,0,2.5,0.7c-0.1,1.1-1.8,1.3-2.6,1.4c-0.6,0-2.8-0.1-2.8-1.1
				C333.9,272.9,335.9,273.2,336.7,273.2C337.6,273.3,336.1,273.2,336.7,273.2z"/>
			<path class="st0" d="M336.8,282.3c-1.2-0.2-2.5-0.2-3.7-0.7c-0.5-0.2-1.1-0.5-1.1-1.1c0-0.6,0.5-0.7,1-0.7c1.4,0,2.8,0.3,4,0.9
				c0.6,0.2,0.9,0.3,1.1,0.9C338.3,282.2,337.3,282.2,336.8,282.3C335.2,282.1,337.1,282.2,336.8,282.3z"/>
			<path class="st0" d="M132.1,29.3c-2,0.1-4.2-1.5-5.9-2.5c-1-0.5-2-1.1-2.9-1.8c-0.9-0.6-2.1-1.3-2.6-2.2c0.2-0.1,0.6-0.5,0.8-0.3
				c0.7,0.4,1.3,0.7,2,1.1c1.2,0.7,2.4,1.3,3.6,2c1.2,0.7,2.4,1.4,3.5,2c0.4,0.2,0.9,0.4,1.2,0.8C132,28.8,132,29.3,132.1,29.3z"/>
			<path class="st0" d="M315.6,31.3c-1.2,0-2.4-1.1-3.3-1.9c-0.4-0.4-0.9-0.9-1.3-1.3c-0.2-0.3-0.5-0.6-0.7-0.8
				c-0.1-0.1-0.3-0.7,0.1-0.6c1.2,0.5,2.4,1.2,3.4,2.1c0.5,0.4,0.9,0.9,1.2,1.4C315.3,30.4,315.5,31.3,315.6,31.3z"/>
			<path class="st0" d="M151,22.5"/>
			<path class="st0" d="M170.3,22.2c-0.7,0.2-1.4,0.2-2.1-0.1c-0.3-0.1-1.7-1.1-0.8-1.5c0.4-0.2,1.4,0.6,1.7,0.7
				C169.5,21.5,170.2,22.2,170.3,22.2z"/>
			<path class="st0" d="M259.2,15.7c-0.4,0.1-2.4,1-2.4,0C256.8,15.1,258.7,15.9,259.2,15.7z"/>
			<path class="st0" d="M269.6,16.2c-0.3,0.3-0.9,0.3-0.9-0.2c-0.1-0.8,0.8,0.3,0.8,0.4C269.5,16.3,269.5,16.2,269.6,16.2z"/>
			<path class="st0" d="M315.5,31.4c0.7,0.1,0.9,0.3,1,1C316.3,32.8,315.3,31.4,315.5,31.4z"/>
			<path class="st0" d="M323.6,31.4c-0.1-0.7-0.2-1.2-0.4-1.8c0,0.3,0.1,0.7,0.2,0.9C323.4,30.9,323.5,31.4,323.6,31.4z"/>
			<path class="st0" d="M323.2,29.7c-0.3,0.2-0.7,0.8-1,0.3C322,29.8,323,29.8,323.2,29.7z"/>
			<path class="st0" d="M279.4,242.8c0.8,0,1.1,0.4,1.2,1.2C279.8,244,279.4,243.6,279.4,242.8z"/>
		</g>
		<g>
			<path class="st0" d="M154.6,230.8c-1.1-0.5-2.3-0.3-3.4,0c-0.9,0.3-0.5,1.7,0.4,1.4c1-0.3,2.1-0.4,3-0.8
				C154.8,231.3,154.8,230.9,154.6,230.8z"/>
			<path class="st0" d="M295.3,178.4c-1.7-0.5-3.4-0.9-5.2-0.9c-0.6,0-1.4,0-1.7,0.6c-0.4,0.6,0.3,1.2,0.7,1.5
				c0.5,0.3,0.9-0.1,0.9-0.5c0.6,0,1.2,0.1,1.7,0.1c1.1,0,2.4,0.1,3.5-0.2C295.6,178.9,295.6,178.4,295.3,178.4z"/>
			<path class="st0" d="M405.8,97.5c-3.6-0.5-7.1,1.1-10.5,1.9c-5,1.2-10,0.8-15.1,1c-0.6,0-0.8,1-0.2,1.2c8.1,1.7,18.5,0.4,26-3.3
				C406.4,98.1,406.2,97.5,405.8,97.5z"/>
			<path class="st0" d="M444.3,80c-2.1,0.5-3.9,2.3-5.6,3.6c-2.2,1.8-4.5,4.1-7.1,5.3c-0.3,0.1-0.1,0.7,0.2,0.6
				c2.4-0.7,4.2-1.6,6.2-3.2c2.2-1.7,4.9-3.5,6.6-5.6C444.9,80.3,444.7,79.9,444.3,80z"/>
			<path class="st0" d="M442.4,77.1c-1.4,0.3-2.5,1-3.5,2c-1.2,1-2.5,2.3-3.4,3.6c-0.4,0.6,0.3,1.1,0.8,0.8c2.6-1.2,3.7-4.3,6.3-5.4
				C443.3,77.9,443.1,76.9,442.4,77.1z"/>
			<path class="st0" d="M441.1,72.2c-1.8,1.2-3.8,2.1-5.3,3.7c-0.2,0.2,0,0.7,0.3,0.6c2.1-0.6,3.9-2,5.7-3.4
				C442.3,72.7,441.6,71.8,441.1,72.2z"/>
			<path class="st0" d="M338.8,95.2c-4.6,0.1-10.3,3.1-14.2,5.5c-4,2.5-7.4,6.2-5.5,11.1c0.2,0.6,1.2,0.4,1-0.3
				c-2.7-9.8,13.5-11.8,18.8-15.6C339.3,95.7,339.2,95.2,338.8,95.2z"/>
			<path class="st0" d="M319.9,101.4c-1.7,1.1-2.7,2.7-3.7,4.5c-0.7,1.2-1.4,2.8-0.8,4.1c0.2,0.4,0.9,0.3,0.9-0.1
				c0.6-3.1,2.9-5.3,4-8.1C320.5,101.5,320.1,101.3,319.9,101.4z"/>
			<path class="st0" d="M362.1,98.7c-2.1-2-7.1-2.3-9.7-1.2c-0.3,0.1-0.2,0.6,0.1,0.7c1.6,0.3,3.3,0.2,5,0.4
				c1.5,0.2,2.9,0.8,4.3,0.8C362.2,99.5,362.4,99,362.1,98.7z"/>
			<path class="st0" d="M285.1,128.8c-2.7,3.7-5.3,7.2-8.5,10.6c-2.6,2.7-5.7,5.3-7.8,8.4c-0.3,0.4,0.3,0.8,0.7,0.5
				c3.6-2.8,6.8-6.5,9.7-10c2.4-2.8,4.9-6,6.2-9.4C285.5,128.8,285.2,128.7,285.1,128.8z"/>
			<path class="st0" d="M296.3,101.6c-0.1-0.3-0.5-0.4-0.7-0.1c-1,1.8-1.1,4-1.5,5.9c-0.5,2.2-1,4.3-0.9,6.5c0,0.5,0.7,0.5,0.8,0.1
				c1-2.3,1.4-4.6,1.9-7C296.3,105.3,296.8,103.4,296.3,101.6z"/>
			<path class="st0" d="M289.8,92.7c-6.4,1.4-13.2,2.2-19.3,4.6c-5.2,2-10.7,5.6-15.2,8.8c-0.3,0.2-0.1,0.7,0.3,0.7
				c6.1-1.3,11.1-6.2,16.8-8.5c5.7-2.3,12.1-2.2,17.6-5C290.3,93,290.1,92.6,289.8,92.7z"/>
			<path class="st0" d="M337.7,159.7c-0.4-0.9-1.7-1.1-2.5-1.5c-1-0.4-2-0.9-3-1.5c-0.6-0.4-1.3,0.5-0.8,1c0.9,0.8,1.8,1.4,2.9,1.9
				c0.9,0.4,2,1.1,3,0.8C337.7,160.3,337.9,159.9,337.7,159.7z"/>
		</g>
	</g>
</g>
</svg>
